{
.appVersion = "3260";
.formatVersion = 3;
DisplayStrings = (
"Zero Handles:
&6:?Mglo

Angled Handles:
!\"#$%&'()+,-.0123456789:;<=>?@ABCDEFGHIJKLMNOPQRSTUVWXYZ_abcdefghijklmnopqrstuvwxyz~×÷−

Almost Orthogonal Lines:
4Pjz

Bad Path Orientation:
!\":?÷

"
);
customParameters = (
{
name = vendorID;
value = XXXX;
},
{
name = panose;
value = (
0,
0,
0,
0,
0,
0,
0,
0,
0,
0
);
},
{
name = unicodeRanges;
value = (
0,
1,
2,
31,
38
);
},
{
name = codePageRanges;
value = (
"1252",
"1250"
);
},
{
name = fsType;
value = (
);
},
{
name = glyphOrder;
value = (
.notdef,
null,
controlLF,
controlCR,
space,
exclam,
quotedbl,
numbersign,
dollar,
percent,
ampersand,
quotesingle,
parenleft,
parenright,
plus,
comma,
hyphen,
period,
zero,
one,
two,
three,
four,
five,
six,
seven,
eight,
nine,
colon,
semicolon,
less,
equal,
greater,
question,
at,
A,
B,
C,
D,
E,
F,
G,
H,
I,
J,
K,
L,
M,
N,
O,
P,
Q,
R,
S,
T,
U,
V,
W,
X,
Y,
Z,
underscore,
a,
b,
c,
d,
e,
f,
g,
h,
i,
j,
k,
l,
m,
n,
o,
p,
q,
r,
s,
t,
u,
v,
w,
x,
y,
z,
asciitilde,
nonbreakingspace,
softhyphen,
multiply,
divide,
minus
);
}
);
date = "2022-06-23 20:56:39 +0000";
familyName = Typo;
fontMaster = (
{
customParameters = (
{
name = typoAscender;
value = 900;
},
{
name = typoDescender;
value = -200;
},
{
name = typoLineGap;
value = 0;
},
{
name = winAscent;
value = 834;
},
{
name = winDescent;
value = 183;
},
{
name = hheaAscender;
value = 900;
},
{
name = hheaDescender;
value = -200;
},
{
name = strikeoutPosition;
value = 258;
},
{
name = strikeoutSize;
value = 49;
}
);
id = m01;
metricValues = (
{
pos = 900;
},
{
pos = 700;
},
{
pos = 500;
},
{
},
{
pos = -200;
},
{
}
);
name = Regular;
}
);
glyphs = (
{
glyphname = exclam;
kernLeft = exclam;
lastChange = "2024-06-01 14:05:47 +0000";
layers = (
{
layerId = m01;
shapes = (
{
closed = 1;
nodes = (
(230,233,o),
(250,235,o),
(267,243,cs),
(287,253,o),
(304,269,o),
(318,287,cs),
(341,315,o),
(362,350,o),
(362,387,cs),
(362,399,o),
(349,403,o),
(338,398,c),
(346,435,o),
(355,473,o),
(362,511,cs),
(370,551,o),
(377,593,o),
(367,632,cs),
(360,659,o),
(346,688,o),
(323,705,cs),
(299,723,o),
(265,724,o),
(235,725,cs),
(190,725,o),
(143,725,o),
(100,710,cs),
(84,705,o),
(69,694,o),
(60,680,cs),
(50,663,o),
(45,643,o),
(43,623,cs),
(39,589,o),
(41,555,o),
(44,521,cs),
(50,458,o),
(67,395,o),
(98,340,cs),
(116,309,o),
(138,279,o),
(166,257,cs),
(179,247,o),
(195,239,o),
(211,236,cs)
);
},
{
closed = 1;
nodes = (
(270,-13,o),
(298,3,o),
(318,25,cs),
(351,62,o),
(350,120,o),
(315,155,cs),
(303,167,o),
(287,175,o),
(271,179,cs),
(268,180,o),
(266,182,o),
(263,182,cs),
(245,182,o),
(228,179,o),
(210,176,cs),
(195,173,o),
(182,162,o),
(171,151,cs),
(157,139,o),
(144,126,o),
(134,111,cs),
(126,100,o),
(120,86,o),
(121,73,cs),
(122,38,o),
(163,-6,o),
(196,-17,cs),
(211,-22,o),
(226,-22,o),
(241,-19,cs)
);
},
{
closed = 1;
nodes = (
(189,19,o),
(157,49,o),
(151,71,cs),
(149,83,o),
(156,95,o),
(163,104,cs),
(170,115,o),
(199,148,o),
(211,153,cs),
(214,154,o),
(228,157,o),
(232,157,c),
(237,152,o),
(264,143,o),
(271,140,cs),
(279,137,o),
(287,134,o),
(292,129,cs),
(307,114,o),
(310,81,o),
(300,63,cs),
(292,48,o),
(277,37,o),
(262,28,cs),
(248,19,o),
(229,12,o),
(212,15,cs)
);
},
{
closed = 1;
nodes = (
(214,281,o),
(199,287,o),
(188,297,cs),
(162,321,o),
(143,351,o),
(125,381,cs),
(101,419,o),
(90,462,o),
(81,505,cs),
(75,539,o),
(70,574,o),
(72,609,cs),
(73,629,o),
(76,651,o),
(88,667,cs),
(111,696,o),
(199,694,o),
(235,694,cs),
(250,694,o),
(266,693,o),
(281,690,cs),
(291,687,o),
(303,682,o),
(310,674,cs),
(334,650,o),
(344,613,o),
(346,580,cs),
(351,512,o),
(328,446,o),
(317,379,c),
(316,376,o),
(313,362,o),
(313,359,cs),
(313,358,o),
(314,356,o),
(313,355,cs),
(297,335,o),
(282,314,o),
(263,297,cs),
(253,288,o),
(241,282,o),
(228,282,cs)
);
}
);
width = 418;
}
);
note = exclam;
unicode = 33;
},
{
glyphname = quotedbl;
kernLeft = quotedbl;
lastChange = "2024-06-01 14:05:47 +0000";
layers = (
{
layerId = m01;
shapes = (
{
closed = 1;
nodes = (
(434,325,o),
(450,326,o),
(459,334,cs),
(468,343,o),
(498,394,o),
(504,406,cs),
(536,466,o),
(554,535,o),
(560,603,cs),
(561,611,o),
(560,619,o),
(559,628,c),
(564,634,o),
(562,643,o),
(555,648,cs),
(553,649,o),
(552,653,o),
(551,655,cs),
(546,664,o),
(534,666,o),
(526,659,c),
(501,667,o),
(474,674,o),
(447,672,cs),
(406,670,o),
(361,652,o),
(336,619,cs),
(323,602,o),
(314,579,o),
(314,557,cs),
(314,535,o),
(321,514,o),
(330,494,cs),
(342,465,o),
(404,355,o),
(426,333,cs)
);
},
{
closed = 1;
nodes = (
(183,321,o),
(189,321,o),
(194,325,cs),
(201,330,o),
(207,339,o),
(212,347,cs),
(222,365,o),
(230,385,o),
(237,405,cs),
(250,441,o),
(258,479,o),
(264,517,cs),
(268,540,o),
(271,562,o),
(271,585,cs),
(271,594,o),
(268,606,o),
(260,611,c),
(267,615,o),
(269,624,o),
(262,628,cs),
(257,630,o),
(254,635,o),
(250,637,cs),
(228,648,o),
(204,654,o),
(180,656,cs),
(141,658,o),
(63,642,o),
(41,610,cs),
(34,599,o),
(32,586,o),
(32,573,cs),
(33,556,o),
(37,540,o),
(42,524,cs),
(59,469,o),
(88,417,o),
(123,371,cs),
(133,358,o),
(161,323,o),
(177,321,cs)
);
},
{
closed = 1;
nodes = (
(179,349,o),
(176,354,o),
(174,357,c),
(126,406,o),
(92,469,o),
(70,533,cs),
(65,548,o),
(60,564,o),
(61,579,cs),
(61,586,o),
(64,592,o),
(68,597,cs),
(87,620,o),
(153,630,o),
(183,627,cs),
(203,625,o),
(222,618,o),
(240,611,c),
(235,606,o),
(235,597,o),
(237,590,cs),
(240,581,o),
(235,547,o),
(234,538,cs),
(226,476,o),
(209,413,o),
(183,356,c),
(183,355,o),
(181,353,o),
(181,352,c)
);
},
{
closed = 1;
nodes = (
(420,402,o),
(360,507,o),
(351,540,cs),
(349,548,o),
(348,557,o),
(349,566,cs),
(353,588,o),
(368,610,o),
(386,623,cs),
(404,635,o),
(426,641,o),
(447,642,cs),
(471,644,o),
(495,638,o),
(518,632,cs),
(519,632,o),
(524,627,o),
(524,626,cs),
(523,622,o),
(521,594,o),
(521,589,cs),
(518,562,o),
(512,535,o),
(505,509,cs),
(493,462,o),
(469,418,o),
(443,377,c)
);
}
);
width = 595;
}
);
note = quotedbl;
unicode = (34,171,187,8220,8221,8222);
},
{
glyphname = numbersign;
lastChange = "2023-03-06 21:06:57 +0000";
layers = (
{
layerId = m01;
shapes = (
{
closed = 1;
nodes = (
(597,21,o),
(599,39,o),
(600,56,cs),
(603,82,o),
(601,109,o),
(604,136,cs),
(604,138,o),
(604,141,o),
(607,143,cs),
(611,146,o),
(631,148,o),
(636,149,cs),
(651,152,o),
(668,156,o),
(681,165,cs),
(707,183,o),
(720,212,o),
(717,244,cs),
(716,260,o),
(709,276,o),
(698,287,cs),
(684,302,o),
(664,310,o),
(645,320,c),
(670,338,o),
(699,353,o),
(716,378,cs),
(722,386,o),
(726,398,o),
(724,408,cs),
(720,424,o),
(695,456,o),
(681,464,cs),
(661,476,o),
(638,479,o),
(616,483,c),
(612,489,o),
(613,496,o),
(613,503,cs),
(612,533,o),
(607,565,o),
(596,593,cs),
(589,611,o),
(578,628,o),
(562,638,cs),
(544,650,o),
(505,643,o),
(487,630,cs),
(463,612,o),
(449,583,o),
(436,557,cs),
(434,553,o),
(429,544,o),
(425,543,cs),
(419,541,o),
(412,543,o),
(405,544,cs),
(394,546,o),
(381,548,o),
(372,542,c),
(369,557,o),
(367,571,o),
(363,585,cs),
(355,618,o),
(321,659,o),
(287,661,cs),
(270,661,o),
(253,655,o),
(241,642,cs),
(223,623,o),
(214,596,o),
(205,571,cs),
(202,562,o),
(193,530,o),
(185,524,cs),
(181,520,o),
(159,515,o),
(153,514,cs),
(132,508,o),
(110,503,o),
(90,493,cs),
(72,484,o),
(38,454,o),
(35,434,cs),
(33,425,o),
(34,416,o),
(39,408,cs),
(43,401,o),
(51,396,o),
(58,392,cs),
(111,368,ls),
(121,363,o),
(124,348,o),
(125,336,cs),
(126,330,o),
(128,315,o),
(124,311,cs),
(119,304,o),
(80,281,o),
(74,275,cs),
(60,262,o),
(52,244,o),
(50,225,cs),
(49,213,o),
(52,205,o),
(60,196,cs),
(68,188,o),
(80,183,o),
(90,178,cs),
(100,174,o),
(148,160,o),
(157,153,cs),
(159,152,o),
(160,144,o),
(160,141,cs),
(163,114,o),
(157,87,o),
(163,60,cs),
(171,26,o),
(201,-5,o),
(234,-18,cs),
(248,-24,o),
(263,-22,o),
(274,-14,cs),
(296,3,o),
(313,26,o),
(333,45,cs),
(348,61,o),
(367,74,o),
(386,85,cs),
(392,89,o),
(401,96,o),
(405,90,cs),
(407,88,o),
(416,74,o),
(417,70,c),
(426,49,o),
(473,-7,o),
(492,-20,cs),
(524,-41,o),
(566,-25,o),
(587,7,cs)
);
},
{
closed = 1;
nodes = (
(487,50,o),
(453,86,o),
(448,92,cs),
(440,101,o),
(436,112,o),
(427,119,cs),
(420,125,o),
(411,129,o),
(402,129,cs),
(391,130,o),
(381,124,o),
(371,121,cs),
(347,112,o),
(327,95,o),
(309,77,cs),
(301,70,o),
(260,29,o),
(251,23,c),
(234,31,o),
(218,44,o),
(211,61,cs),
(201,87,o),
(208,117,o),
(206,144,cs),
(205,160,o),
(200,178,o),
(188,189,cs),
(161,214,o),
(118,211,o),
(85,225,c),
(85,233,o),
(88,242,o),
(93,249,cs),
(107,266,o),
(129,276,o),
(146,291,cs),
(159,302,o),
(159,323,o),
(157,340,cs),
(156,356,o),
(155,374,o),
(145,388,cs),
(133,404,o),
(111,410,o),
(91,417,c),
(86,418,o),
(68,423,o),
(64,427,c),
(64,435,o),
(69,443,o),
(75,448,c),
(96,471,o),
(128,482,o),
(158,490,cs),
(172,495,o),
(189,496,o),
(200,506,cs),
(210,515,o),
(215,528,o),
(219,541,cs),
(235,587,o),
(250,653,o),
(296,638,cs),
(311,634,o),
(334,606,o),
(340,592,cs),
(344,582,o),
(353,522,o),
(357,513,cs),
(364,494,o),
(399,486,o),
(420,487,cs),
(445,489,o),
(467,504,o),
(477,527,cs),
(485,548,o),
(490,571,o),
(503,589,cs),
(507,594,o),
(513,599,o),
(519,601,cs),
(524,603,o),
(537,607,o),
(541,604,cs),
(545,602,o),
(551,592,o),
(553,587,cs),
(556,577,o),
(560,528,o),
(560,518,cs),
(561,503,o),
(559,488,o),
(562,473,cs),
(566,460,o),
(574,444,o),
(587,438,cs),
(606,430,o),
(628,432,o),
(648,426,cs),
(657,423,o),
(664,415,o),
(669,408,cs),
(671,406,o),
(671,405,o),
(669,403,cs),
(664,399,o),
(634,372,o),
(628,368,c),
(616,357,o),
(601,348,o),
(591,334,cs),
(583,323,o),
(583,310,o),
(590,299,cs),
(595,292,o),
(602,288,o),
(609,285,cs),
(624,277,o),
(641,273,o),
(654,262,cs),
(662,256,o),
(665,245,o),
(662,235,cs),
(659,226,o),
(653,217,o),
(644,212,cs),
(635,207,o),
(589,185,o),
(580,179,cs),
(574,174,o),
(569,168,o),
(566,161,cs),
(555,138,o),
(551,112,o),
(549,86,cs),
(549,79,o),
(548,43,o),
(545,36,cs),
(542,26,o),
(532,20,o),
(521,19,cs),
(512,18,o),
(499,38,o),
(493,44,cs)
);
},
{
closed = 1;
nodes = (
(484,290,o),
(485,312,o),
(486,331,cs),
(486,344,o),
(481,359,o),
(472,369,cs),
(464,380,o),
(452,391,o),
(439,393,c),
(433,400,o),
(418,402,o),
(409,400,cs),
(390,396,o),
(372,386,o),
(355,375,cs),
(328,357,o),
(322,311,o),
(336,281,cs),
(346,260,o),
(368,241,o),
(390,238,cs),
(416,234,o),
(460,252,o),
(474,274,cs)
);
},
{
closed = 1;
nodes = (
(385,287,o),
(370,293,o),
(368,295,cs),
(358,305,o),
(356,321,o),
(358,334,cs),
(360,342,o),
(363,350,o),
(369,355,cs),
(378,362,o),
(389,367,o),
(399,373,c),
(399,364,o),
(403,357,o),
(410,355,c),
(413,353,o),
(417,354,o),
(419,351,c),
(424,347,o),
(437,335,o),
(438,329,cs),
(438,323,o),
(438,304,o),
(435,299,cs),
(432,294,o),
(416,288,o),
(411,286,c),
(404,285,o),
(396,282,o),
(389,285,cs)
);
}
);
width = 761;
}
);
note = numbersign;
unicode = 35;
},
{
glyphname = dollar;
lastChange = "2023-03-06 21:06:57 +0000";
layers = (
{
layerId = m01;
shapes = (
{
closed = 1;
nodes = (
(327,-75,o),
(371,26,o),
(386,49,c),
(418,20,o),
(428,-29,o),
(461,-57,cs),
(471,-66,o),
(486,-73,o),
(499,-71,cs),
(546,-63,o),
(560,59,o),
(582,100,cs),
(589,111,o),
(598,121,o),
(607,129,cs),
(643,159,o),
(683,183,o),
(718,214,cs),
(729,224,o),
(740,235,o),
(745,249,cs),
(749,258,o),
(749,270,o),
(746,280,cs),
(742,291,o),
(717,327,o),
(709,335,cs),
(682,362,o),
(550,416,o),
(513,429,c),
(530,438,o),
(636,481,o),
(652,490,cs),
(685,507,o),
(725,541,o),
(711,576,cs),
(706,590,o),
(692,599,o),
(680,606,cs),
(658,619,o),
(632,627,o),
(607,625,cs),
(597,625,o),
(587,623,o),
(577,621,c),
(567,656,o),
(570,694,o),
(558,729,cs),
(554,741,o),
(546,754,o),
(534,759,cs),
(504,772,o),
(471,723,o),
(451,698,cs),
(441,687,o),
(433,674,o),
(424,663,cs),
(421,660,o),
(413,651,o),
(409,651,cs),
(402,651,o),
(391,664,o),
(387,668,cs),
(369,688,o),
(355,714,o),
(333,730,cs),
(327,735,o),
(319,737,o),
(311,738,cs),
(295,738,o),
(276,730,o),
(266,716,cs),
(263,711,o),
(260,705,o),
(257,699,c),
(243,660,o),
(238,619,o),
(232,578,cs),
(231,574,o),
(224,575,o),
(219,574,cs),
(209,572,o),
(200,568,o),
(191,563,cs),
(171,552,o),
(152,539,o),
(134,526,cs),
(114,511,o),
(47,463,o),
(39,439,cs),
(33,425,o),
(43,405,o),
(56,396,cs),
(69,385,o),
(83,374,o),
(98,365,cs),
(145,338,o),
(198,321,o),
(243,290,cs),
(246,288,o),
(249,287,o),
(246,286,cs),
(230,278,o),
(213,272,o),
(196,265,cs),
(159,250,o),
(122,231,o),
(91,206,cs),
(72,191,o),
(53,173,o),
(45,150,cs),
(41,139,o),
(39,125,o),
(45,116,cs),
(54,101,o),
(104,88,o),
(121,83,cs),
(134,79,o),
(185,66,o),
(196,58,cs),
(205,51,o),
(206,36,o),
(209,24,cs),
(216,1,o),
(224,-23,o),
(234,-45,cs),
(248,-77,o),
(276,-109,o),
(305,-90,cs)
);
},
{
closed = 1;
nodes = (
(257,-25,o),
(246,3,o),
(238,31,cs),
(234,46,o),
(231,63,o),
(221,76,cs),
(211,88,o),
(195,95,o),
(180,100,cs),
(146,111,o),
(112,119,o),
(79,133,c),
(76,135,o),
(78,138,o),
(79,141,cs),
(96,181,o),
(201,231,o),
(240,248,cs),
(260,256,o),
(291,268,o),
(287,289,cs),
(284,301,o),
(273,311,o),
(262,318,cs),
(218,349,o),
(167,368,o),
(119,392,cs),
(114,395,o),
(93,408,o),
(89,412,c),
(81,424,ls),
(80,426,o),
(80,428,o),
(81,429,cs),
(97,445,o),
(115,459,o),
(134,472,cs),
(145,481,o),
(214,525,o),
(226,532,c),
(228,534,o),
(232,532,o),
(234,533,c),
(238,533,o),
(241,536,o),
(243,539,cs),
(245,541,o),
(245,546,o),
(247,548,c),
(249,549,o),
(256,553,o),
(257,554,cs),
(264,561,o),
(262,573,o),
(253,577,c),
(252,578,o),
(252,580,o),
(253,581,c),
(258,619,o),
(262,657,o),
(275,693,c),
(278,699,o),
(281,707,o),
(287,711,cs),
(294,717,o),
(309,721,o),
(317,717,cs),
(331,710,o),
(359,658,o),
(368,646,cs),
(378,633,o),
(393,619,o),
(409,619,cs),
(442,618,o),
(483,685,o),
(503,711,cs),
(509,718,o),
(515,726,o),
(523,732,c),
(531,724,o),
(534,690,o),
(536,679,cs),
(537,668,o),
(543,617,o),
(547,607,cs),
(550,599,o),
(556,591,o),
(564,588,cs),
(570,585,o),
(597,588,o),
(604,588,cs),
(626,588,o),
(650,584,o),
(669,572,cs),
(675,569,o),
(684,564,o),
(681,558,c),
(681,555,o),
(674,546,o),
(672,544,cs),
(654,524,o),
(629,511,o),
(605,500,cs),
(575,486,o),
(545,475,o),
(515,461,cs),
(483,443,l),
(469,437,o),
(471,420,o),
(481,408,cs),
(502,383,o),
(662,320,o),
(687,298,cs),
(692,293,o),
(708,268,o),
(712,262,c),
(713,259,o),
(711,256,o),
(709,254,c),
(680,214,o),
(638,186,o),
(599,156,cs),
(582,143,o),
(566,128,o),
(556,109,cs),
(534,73,o),
(525,31,o),
(510,-9,cs),
(504,-22,o),
(499,-42,o),
(486,-35,cs),
(468,-26,o),
(429,42,o),
(416,57,cs),
(408,66,o),
(397,77,o),
(385,77,cs),
(367,77,o),
(349,42,o),
(340,27,cs),
(332,13,o),
(298,-50,o),
(286,-62,c),
(282,-61,o),
(276,-52,o),
(274,-49,cs)
);
},
{
closed = 1;
nodes = (
(390,312,o),
(385,393,o),
(384,474,cs),
(384,475,o),
(385,477,o),
(386,478,cs),
(391,482,o),
(391,490,o),
(386,494,cs),
(383,496,o),
(383,500,o),
(381,503,c),
(376,507,o),
(369,507,o),
(365,501,cs),
(361,495,o),
(362,472,o),
(362,465,cs),
(361,409,o),
(361,353,o),
(362,296,cs),
(363,284,o),
(364,232,o),
(368,221,cs),
(375,202,o),
(400,213,o),
(392,232,c)
);
}
);
width = 782;
}
);
note = dollar;
unicode = 36;
},
{
glyphname = percent;
lastChange = "2023-03-06 21:06:57 +0000";
layers = (
{
layerId = m01;
shapes = (
{
closed = 1;
nodes = (
(286,-53,o),
(314,-40,o),
(339,-24,cs),
(376,-1,o),
(407,30,o),
(437,61,cs),
(468,93,o),
(498,126,o),
(527,160,c),
(528,162,o),
(529,159,o),
(529,156,cs),
(528,123,o),
(529,88,o),
(539,55,cs),
(545,36,o),
(555,18,o),
(570,4,cs),
(591,-15,o),
(621,-25,o),
(649,-25,cs),
(678,-25,o),
(708,-13,o),
(733,2,cs),
(751,13,o),
(768,27,o),
(778,44,cs),
(791,66,o),
(797,91,o),
(799,116,cs),
(800,134,o),
(799,154,o),
(792,171,cs),
(786,187,o),
(773,201,o),
(760,212,cs),
(746,222,o),
(731,229,o),
(715,235,cs),
(697,242,o),
(679,248,o),
(660,252,cs),
(644,256,o),
(627,260,o),
(610,258,c),
(628,280,o),
(646,302,o),
(666,323,cs),
(689,348,o),
(713,374,o),
(728,405,cs),
(739,425,o),
(745,449,o),
(744,473,cs),
(742,501,o),
(737,528,o),
(731,556,cs),
(723,590,o),
(716,627,o),
(698,658,cs),
(686,677,o),
(663,689,o),
(641,695,cs),
(608,704,o),
(572,703,o),
(538,697,c),
(541,699,o),
(550,704,o),
(552,706,c),
(557,714,o),
(548,725,o),
(539,724,cs),
(529,722,o),
(506,698,o),
(499,691,cs),
(495,687,o),
(478,685,o),
(472,684,cs),
(460,681,o),
(457,666,o),
(465,657,c),
(408,600,o),
(350,542,o),
(299,479,c),
(297,511,o),
(292,543,o),
(282,573,cs),
(278,584,o),
(272,595,o),
(263,603,cs),
(254,613,o),
(242,620,o),
(231,626,cs),
(205,639,o),
(175,649,o),
(146,650,cs),
(131,650,o),
(115,646,o),
(102,639,cs),
(89,633,ls),
(81,629,o),
(75,622,o),
(70,614,cs),
(64,603,o),
(56,592,o),
(48,582,cs),
(45,577,o),
(45,571,o),
(49,567,cs),
(50,566,o),
(51,564,o),
(51,563,c),
(41,526,o),
(36,484,o),
(49,449,cs),
(56,429,o),
(72,412,o),
(89,400,cs),
(109,386,o),
(132,375,o),
(154,366,cs),
(172,359,o),
(192,354,o),
(210,358,c),
(171,298,o),
(133,237,o),
(103,172,cs),
(96,156,o),
(88,139,o),
(85,122,cs),
(81,94,o),
(84,63,o),
(95,37,cs),
(105,12,o),
(122,-10,o),
(142,-28,cs),
(162,-46,o),
(184,-63,o),
(210,-68,cs),
(225,-71,o),
(242,-67,o),
(257,-62,cs)
);
},
{
closed = 1;
nodes = (
(203,5,o),
(188,21,o),
(174,36,cs),
(158,53,o),
(148,77,o),
(146,100,cs),
(143,126,o),
(149,154,o),
(159,179,cs),
(182,237,o),
(217,289,o),
(252,340,cs),
(297,408,o),
(342,476,o),
(393,539,cs),
(425,580,o),
(461,617,o),
(497,655,c),
(534,656,o),
(624,658,o),
(648,631,cs),
(657,621,o),
(670,576,o),
(673,563,cs),
(676,549,o),
(688,495,o),
(686,481,cs),
(680,451,o),
(663,425,o),
(645,401,cs),
(612,357,o),
(573,317,o),
(537,275,cs),
(492,222,o),
(449,168,o),
(404,116,cs),
(378,86,o),
(352,57,o),
(320,35,cs),
(296,18,o),
(268,6,o),
(240,-3,cs),
(236,-4,o),
(226,-8,o),
(222,-5,c)
);
},
{
closed = 1;
nodes = (
(141,420,o),
(118,428,o),
(99,443,cs),
(86,453,o),
(78,469,o),
(75,485,cs),
(70,511,o),
(72,537,o),
(76,563,cs),
(77,568,o),
(80,584,o),
(83,588,cs),
(89,595,o),
(109,616,o),
(119,617,c),
(122,618,o),
(127,617,o),
(130,619,c),
(132,622,o),
(137,622,o),
(140,622,cs),
(164,623,o),
(188,616,o),
(210,606,cs),
(223,601,o),
(236,595,o),
(246,585,cs),
(254,577,o),
(259,565,o),
(262,554,cs),
(267,531,o),
(271,508,o),
(272,484,cs),
(272,473,o),
(272,461,o),
(267,451,cs),
(256,426,o),
(230,405,o),
(204,401,cs),
(196,400,o),
(171,409,o),
(163,411,c)
);
},
{
closed = 1;
nodes = (
(571,44,o),
(563,64,o),
(558,83,cs),
(553,107,o),
(551,131,o),
(551,154,c),
(558,157,o),
(566,162,o),
(567,169,cs),
(568,174,o),
(579,188,o),
(582,192,cs),
(585,196,o),
(598,211,o),
(602,214,cs),
(608,219,o),
(616,221,o),
(624,221,cs),
(639,221,o),
(653,219,o),
(667,216,cs),
(685,213,o),
(703,208,o),
(719,200,cs),
(734,193,o),
(748,182,o),
(756,167,cs),
(768,145,o),
(764,91,o),
(751,68,cs),
(743,53,o),
(728,41,o),
(713,32,cs),
(694,20,o),
(672,11,o),
(649,11,cs),
(627,10,o),
(603,17,o),
(586,31,cs)
);
}
);
width = 837;
}
);
note = percent;
unicode = 37;
},
{
glyphname = ampersand;
lastChange = "2023-03-06 21:06:57 +0000";
layers = (
{
layerId = m01;
shapes = (
{
closed = 1;
nodes = (
(727,7,o),
(737,11,o),
(744,18,cs),
(777,49,o),
(748,97,o),
(714,127,cs),
(694,145,o),
(671,160,o),
(647,172,cs),
(638,176,o),
(627,179,o),
(620,186,c),
(623,196,o),
(630,203,o),
(637,210,cs),
(651,224,o),
(666,236,o),
(679,250,cs),
(691,263,o),
(701,279,o),
(709,295,cs),
(724,326,o),
(751,386,o),
(727,412,cs),
(718,422,o),
(685,433,o),
(670,432,cs),
(646,431,o),
(623,419,o),
(601,409,cs),
(589,404,o),
(517,367,o),
(505,361,cs),
(499,359,o),
(486,353,o),
(481,357,cs),
(474,362,o),
(472,382,o),
(472,391,cs),
(473,405,o),
(477,420,o),
(485,432,cs),
(489,439,o),
(494,445,o),
(500,451,cs),
(530,483,o),
(566,511,o),
(589,548,cs),
(604,572,o),
(613,603,o),
(606,631,cs),
(602,645,o),
(591,662,o),
(576,665,cs),
(572,666,o),
(568,664,o),
(565,661,c),
(563,660,o),
(563,660,o),
(561,662,cs),
(517,703,o),
(453,723,o),
(393,729,cs),
(364,732,o),
(332,732,o),
(305,720,cs),
(282,710,o),
(261,690,o),
(250,667,cs),
(242,649,o),
(242,628,o),
(245,608,cs),
(250,581,o),
(258,554,o),
(264,526,cs),
(266,520,o),
(268,513,o),
(265,507,c),
(254,491,o),
(189,429,o),
(175,416,cs),
(131,374,o),
(90,327,o),
(61,274,cs),
(46,247,o),
(33,217,o),
(31,186,cs),
(29,141,o),
(47,88,o),
(82,59,cs),
(105,39,o),
(136,25,o),
(166,27,cs),
(188,28,o),
(209,39,o),
(229,49,cs),
(255,62,o),
(282,77,o),
(312,80,cs),
(345,83,o),
(379,75,o),
(411,64,cs),
(444,54,o),
(474,35,o),
(506,22,cs),
(539,10,o),
(573,4,o),
(608,-1,cs),
(644,-5,o),
(682,-6,o),
(717,4,cs)
);
},
{
closed = 1;
nodes = (
(570,43,o),
(540,48,o),
(511,58,cs),
(489,66,o),
(468,76,o),
(446,84,cs),
(421,94,o),
(395,101,o),
(369,106,cs),
(347,111,o),
(324,113,o),
(301,110,cs),
(271,105,o),
(243,90,o),
(216,77,cs),
(200,69,o),
(183,59,o),
(165,59,cs),
(136,59,o),
(106,77,o),
(88,100,cs),
(68,127,o),
(58,164,o),
(62,198,cs),
(64,223,o),
(75,247,o),
(88,269,cs),
(120,325,o),
(165,375,o),
(213,419,cs),
(230,435,o),
(287,484,o),
(292,508,cs),
(295,526,o),
(274,599,o),
(270,617,cs),
(268,628,o),
(267,639,o),
(269,649,cs),
(273,669,o),
(291,686,o),
(309,696,cs),
(326,705,o),
(345,707,o),
(364,707,cs),
(420,707,o),
(478,693,o),
(526,663,cs),
(545,651,o),
(561,634,o),
(576,617,c),
(576,598,o),
(568,580,o),
(557,565,cs),
(531,530,o),
(498,502,o),
(471,468,cs),
(457,450,o),
(446,428,o),
(443,405,cs),
(439,371,o),
(450,329,o),
(485,329,cs),
(502,329,o),
(517,338,o),
(532,346,cs),
(557,359,o),
(643,407,o),
(671,406,cs),
(683,405,o),
(695,398,o),
(705,392,c),
(705,391,o),
(706,390,o),
(706,389,cs),
(707,380,o),
(693,349,o),
(690,341,cs),
(682,322,o),
(673,302,o),
(660,286,cs),
(641,264,o),
(615,246,o),
(598,222,cs),
(588,208,o),
(579,188,o),
(585,172,cs),
(591,159,o),
(606,151,o),
(619,145,cs),
(652,131,o),
(685,112,o),
(708,85,cs),
(715,77,o),
(728,60,o),
(725,50,cs),
(722,42,o),
(703,38,o),
(695,36,cs),
(664,30,o),
(632,34,o),
(601,39,cs)
);
},
{
closed = 1;
nodes = (
(290,216,o),
(298,237,o),
(305,257,cs),
(311,274,o),
(319,294,o),
(312,311,cs),
(307,322,o),
(298,329,o),
(289,336,c),
(294,344,o),
(291,353,o),
(282,353,cs),
(278,353,o),
(274,349,o),
(270,350,cs),
(260,353,o),
(250,348,o),
(252,338,cs),
(253,335,o),
(247,331,o),
(245,328,cs),
(241,323,o),
(238,317,o),
(235,310,cs),
(223,281,o),
(205,224,o),
(228,202,cs),
(241,189,o),
(260,188,o),
(274,201,cs)
);
},
{
closed = 1;
nodes = (
(238,223,o),
(237,242,o),
(239,252,cs),
(241,267,o),
(253,311,o),
(265,322,cs),
(267,324,o),
(267,324,o),
(270,322,cs),
(274,319,o),
(287,307,o),
(289,303,c),
(292,292,o),
(280,264,o),
(276,253,c),
(262,227,l),
(258,222,o),
(252,215,o),
(247,218,cs)
);
}
);
width = 792;
}
);
note = ampersand;
unicode = 38;
},
{
glyphname = quotesingle;
kernLeft = quotesingle;
layers = (
{
layerId = m01;
shapes = (
{
closed = 1;
nodes = (
(250,353,o),
(261,383,o),
(271,412,cs),
(281,444,o),
(291,476,o),
(298,508,cs),
(304,531,o),
(307,557,o),
(301,579,cs),
(290,616,o),
(235,667,o),
(198,675,cs),
(191,677,o),
(185,675,o),
(182,670,cs),
(181,668,o),
(179,667,o),
(178,667,cs),
(159,672,o),
(138,677,o),
(119,672,cs),
(99,667,o),
(82,655,o),
(67,642,cs),
(55,632,o),
(46,619,o),
(40,604,cs),
(26,566,o),
(38,520,o),
(53,482,cs),
(75,431,o),
(102,381,o),
(130,333,cs),
(140,314,o),
(150,294,o),
(168,282,cs),
(195,264,o),
(221,296,o),
(236,325,cs)
);
},
{
closed = 1;
nodes = (
(172,318,o),
(148,367,o),
(141,379,cs),
(121,420,o),
(97,459,o),
(80,501,cs),
(70,525,o),
(61,552,o),
(64,578,cs),
(68,612,o),
(99,650,o),
(133,652,cs),
(154,653,o),
(175,646,o),
(195,639,cs),
(199,638,o),
(213,634,o),
(216,632,cs),
(229,620,o),
(243,608,o),
(255,594,cs),
(263,585,o),
(271,574,o),
(273,562,cs),
(276,546,o),
(271,530,o),
(267,514,cs),
(256,468,o),
(242,422,o),
(226,377,cs),
(219,355,o),
(210,334,o),
(195,316,c),
(192,311,o),
(187,305,o),
(183,309,cs)
);
}
);
width = 339;
}
);
note = quotesingle;
unicode = (39,8216,8217,8218,8249,8250);
},
{
glyphname = parenleft;
layers = (
{
layerId = m01;
shapes = (
{
closed = 1;
nodes = (
(393,29,o),
(405,57,o),
(408,83,cs),
(411,104,o),
(408,127,o),
(400,148,cs),
(383,194,o),
(349,233,o),
(332,279,cs),
(325,297,o),
(322,316,o),
(323,335,cs),
(326,405,o),
(356,471,o),
(371,539,cs),
(377,568,o),
(383,599,o),
(380,628,cs),
(376,655,o),
(361,683,o),
(338,699,cs),
(327,707,o),
(312,693,o),
(320,682,cs),
(330,670,o),
(338,657,o),
(343,643,cs),
(350,621,o),
(345,596,o),
(341,574,cs),
(324,494,o),
(287,417,o),
(282,335,cs),
(281,309,o),
(286,282,o),
(296,258,cs),
(312,221,o),
(337,190,o),
(354,154,cs),
(370,121,o),
(375,76,o),
(342,60,cs),
(319,48,o),
(253,55,o),
(229,64,cs),
(217,69,o),
(206,76,o),
(196,85,cs),
(157,118,o),
(120,160,o),
(101,209,cs),
(81,261,o),
(82,322,o),
(92,377,cs),
(105,450,o),
(136,521,o),
(182,579,cs),
(210,614,o),
(244,644,o),
(280,670,cs),
(285,674,o),
(293,683,o),
(298,680,cs),
(307,675,o),
(318,681,o),
(316,690,cs),
(315,698,o),
(305,702,o),
(298,704,cs),
(287,706,o),
(262,687,o),
(252,680,cs),
(212,650,o),
(173,617,o),
(143,577,cs),
(93,512,o),
(61,433,o),
(47,354,cs),
(39,305,o),
(37,254,o),
(50,207,cs),
(60,169,o),
(78,133,o),
(102,102,cs),
(125,72,o),
(150,43,o),
(181,23,cs),
(228,-8,o),
(326,-21,o),
(372,13,cs)
);
}
);
width = 451;
}
);
note = parenleft;
unicode = 40;
},
{
glyphname = parenright;
kernLeft = parenright;
layers = (
{
layerId = m01;
shapes = (
{
closed = 1;
nodes = (
(264,81,o),
(314,117,o),
(351,162,cs),
(395,216,o),
(431,280,o),
(446,347,cs),
(454,385,o),
(456,427,o),
(446,464,cs),
(432,520,o),
(410,575,o),
(384,627,cs),
(372,651,o),
(362,681,o),
(339,696,cs),
(326,704,o),
(309,708,o),
(293,708,cs),
(285,709,o),
(275,710,o),
(269,704,c),
(254,712,o),
(236,715,o),
(219,716,cs),
(178,720,o),
(136,721,o),
(95,714,cs),
(81,712,o),
(66,707,o),
(56,697,cs),
(44,687,o),
(37,672,o),
(36,656,cs),
(33,636,o),
(39,616,o),
(46,597,cs),
(62,556,o),
(83,517,o),
(104,479,cs),
(117,455,o),
(130,431,o),
(138,405,cs),
(145,380,o),
(143,353,o),
(138,328,cs),
(134,307,o),
(103,186,o),
(99,166,cs),
(93,139,o),
(86,109,o),
(95,83,cs),
(101,67,o),
(114,55,o),
(131,51,cs),
(157,45,o),
(184,53,o),
(209,62,cs)
);
},
{
closed = 1;
nodes = (
(121,103,o),
(127,140,o),
(130,154,cs),
(143,216,o),
(165,276,o),
(175,338,cs),
(181,375,o),
(175,416,o),
(159,449,cs),
(142,483,o),
(65,612,o),
(62,649,cs),
(61,660,o),
(65,672,o),
(73,679,cs),
(93,698,o),
(172,697,o),
(200,696,cs),
(222,696,o),
(246,694,o),
(266,683,cs),
(268,682,o),
(267,673,o),
(268,670,cs),
(272,657,o),
(288,662,o),
(287,675,c),
(294,673,o),
(300,671,o),
(305,667,cs),
(316,659,o),
(333,616,o),
(338,603,cs),
(366,536,o),
(401,466,o),
(401,394,cs),
(400,362,o),
(390,330,o),
(377,301,cs),
(351,240,o),
(314,182,o),
(263,139,cs),
(237,117,o),
(206,100,o),
(174,91,cs),
(161,87,o),
(137,80,o),
(129,91,cs)
);
}
);
width = 491;
}
);
note = parenright;
unicode = 41;
},
{
glyphname = plus;
layers = (
{
layerId = m01;
shapes = (
{
closed = 1;
nodes = (
(453,36,o),
(472,61,o),
(486,87,cs),
(507,124,o),
(521,164,o),
(538,202,cs),
(548,223,o),
(561,244,o),
(581,255,cs),
(603,268,o),
(626,278,o),
(648,290,cs),
(669,301,o),
(691,315,o),
(704,336,cs),
(711,347,o),
(716,362,o),
(715,375,cs),
(714,394,o),
(707,414,o),
(695,429,cs),
(685,440,o),
(672,448,o),
(659,455,cs),
(619,475,o),
(576,489,o),
(532,500,c),
(518,546,o),
(507,594,o),
(483,636,cs),
(472,655,o),
(457,672,o),
(437,682,cs),
(419,691,o),
(395,694,o),
(375,689,cs),
(361,686,o),
(348,677,o),
(338,667,cs),
(323,651,o),
(312,633,o),
(301,615,cs),
(286,591,o),
(273,566,o),
(260,541,cs),
(251,525,o),
(242,508,o),
(227,495,cs),
(217,486,o),
(204,481,o),
(191,476,cs),
(159,465,o),
(125,460,o),
(93,447,cs),
(70,438,o),
(46,425,o),
(33,403,cs),
(24,390,o),
(23,373,o),
(25,357,cs),
(30,329,o),
(48,301,o),
(73,287,cs),
(87,279,o),
(101,274,o),
(116,270,cs),
(133,265,o),
(216,248,o),
(231,239,cs),
(240,235,o),
(246,227,o),
(250,218,cs),
(280,158,o),
(298,89,o),
(342,37,cs),
(352,25,o),
(366,15,o),
(381,11,cs),
(397,8,o),
(414,13,o),
(427,21,cs)
);
},
{
closed = 1;
nodes = (
(340,58,o),
(298,207,o),
(271,248,cs),
(262,262,o),
(247,273,o),
(231,279,cs),
(197,292,o),
(160,297,o),
(125,305,cs),
(111,308,o),
(96,312,o),
(83,318,cs),
(63,328,o),
(47,353,o),
(48,375,cs),
(50,406,o),
(100,425,o),
(130,433,cs),
(165,442,o),
(204,446,o),
(236,465,cs),
(262,482,o),
(277,511,o),
(292,538,cs),
(304,561,o),
(348,643,o),
(369,657,cs),
(400,678,o),
(439,659,o),
(459,628,cs),
(484,592,o),
(497,549,o),
(510,507,c),
(496,507,o),
(486,492,o),
(497,482,cs),
(514,465,o),
(611,434,o),
(633,424,cs),
(645,418,o),
(658,412,o),
(667,402,cs),
(676,392,o),
(682,375,o),
(678,362,cs),
(675,353,o),
(668,346,o),
(662,340,cs),
(628,307,o),
(579,294,o),
(545,261,cs),
(525,241,o),
(513,214,o),
(502,188,cs),
(483,143,o),
(466,94,o),
(431,60,cs),
(421,51,o),
(399,37,o),
(386,42,cs)
);
}
);
width = 739;
}
);
note = plus;
unicode = 43;
},
{
glyphname = comma;
layers = (
{
layerId = m01;
shapes = (
{
closed = 1;
nodes = (
(201,-101,o),
(225,-90,o),
(248,-78,cs),
(268,-67,o),
(289,-54,o),
(306,-38,cs),
(326,-18,o),
(340,7,o),
(352,33,cs),
(368,66,o),
(382,100,o),
(393,135,cs),
(399,159,o),
(402,188,o),
(390,210,cs),
(381,225,o),
(367,237,o),
(353,248,cs),
(323,273,o),
(288,297,o),
(250,304,c),
(247,304,o),
(236,305,o),
(233,306,cs),
(214,314,o),
(192,316,o),
(171,314,cs),
(146,312,o),
(121,308,o),
(98,299,cs),
(70,288,o),
(51,267,o),
(42,239,cs),
(31,205,o),
(30,165,o),
(41,132,cs),
(48,114,o),
(61,97,o),
(77,87,cs),
(100,73,o),
(128,68,o),
(154,62,c),
(152,53,o),
(133,1,o),
(130,-8,cs),
(124,-30,o),
(118,-52,o),
(120,-75,cs),
(122,-101,o),
(150,-112,o),
(175,-106,cs)
);
},
{
closed = 1;
nodes = (
(161,-51,o),
(183,16,o),
(189,32,cs),
(193,45,o),
(197,58,o),
(198,71,cs),
(200,89,o),
(179,105,o),
(162,110,cs),
(144,115,o),
(127,120,o),
(110,126,cs),
(101,130,o),
(92,137,o),
(88,145,cs),
(74,173,o),
(76,226,o),
(97,248,cs),
(115,266,o),
(142,275,o),
(167,281,c),
(170,275,o),
(179,273,o),
(186,275,cs),
(213,280,o),
(244,278,o),
(270,267,cs),
(297,256,o),
(359,217,o),
(369,189,cs),
(378,162,o),
(344,91,o),
(332,65,cs),
(322,45,o),
(311,25,o),
(298,8,cs),
(279,-18,o),
(249,-36,o),
(220,-49,cs),
(209,-54,o),
(172,-69,o),
(161,-68,c)
);
}
);
width = 430;
}
);
note = comma;
unicode = 44;
},
{
glyphname = hyphen;
lastChange = "2023-03-06 21:06:57 +0000";
layers = (
{
layerId = m01;
shapes = (
{
closed = 1;
nodes = (
(471,206,o),
(520,228,o),
(557,262,cs),
(571,275,o),
(586,290,o),
(593,308,cs),
(599,320,o),
(600,334,o),
(598,348,cs),
(596,362,o),
(589,376,o),
(580,387,cs),
(567,405,o),
(549,419,o),
(532,432,cs),
(519,442,o),
(505,451,o),
(490,459,c),
(491,466,o),
(488,473,o),
(481,474,cs),
(449,482,o),
(416,483,o),
(383,484,cs),
(357,486,o),
(221,479,o),
(195,476,cs),
(164,472,o),
(131,467,o),
(104,451,cs),
(75,434,o),
(50,407,o),
(39,375,cs),
(33,357,o),
(30,337,o),
(33,318,cs),
(40,280,o),
(64,242,o),
(97,223,cs),
(122,208,o),
(152,206,o),
(180,203,cs),
(262,196,ls),
(315,192,o),
(369,187,o),
(422,196,cs)
);
},
{
closed = 1;
nodes = (
(199,254,ls),
(175,255,o),
(149,254,o),
(127,265,cs),
(108,274,o),
(85,311,o),
(83,331,cs),
(82,344,o),
(86,357,o),
(92,368,cs),
(103,388,o),
(118,406,o),
(136,420,cs),
(167,445,o),
(211,451,o),
(251,454,cs),
(270,456,o),
(379,461,o),
(398,461,c),
(397,455,o),
(399,448,o),
(405,444,cs),
(409,442,o),
(430,437,o),
(435,435,cs),
(450,429,o),
(465,421,o),
(479,412,cs),
(497,402,o),
(514,391,o),
(530,378,cs),
(541,369,o),
(551,360,o),
(556,348,cs),
(560,337,o),
(558,324,o),
(553,315,cs),
(546,302,o),
(535,292,o),
(523,284,cs),
(482,255,o),
(426,246,o),
(375,247,cs)
);
}
);
width = 628;
}
);
note = hyphen;
unicode = 45;
},
{
glyphname = period;
layers = (
{
layerId = m01;
shapes = (
{
closed = 1;
nodes = (
(264,70,o),
(287,115,o),
(290,158,cs),
(291,183,o),
(282,209,o),
(269,230,cs),
(255,251,o),
(236,267,o),
(215,280,cs),
(213,281,o),
(214,283,o),
(213,285,cs),
(210,292,o),
(190,294,o),
(184,297,cs),
(167,304,o),
(147,309,o),
(129,306,cs),
(115,303,o),
(103,295,o),
(92,287,cs),
(72,271,o),
(55,251,o),
(46,228,cs),
(31,191,o),
(28,145,o),
(42,108,cs),
(51,85,o),
(69,65,o),
(90,53,cs),
(112,40,o),
(137,33,o),
(162,30,cs),
(184,28,o),
(210,32,o),
(229,46,cs)
);
},
{
closed = 1;
nodes = (
(82,98,o),
(70,115,o),
(65,133,cs),
(59,156,o),
(58,180,o),
(64,204,cs),
(71,236,o),
(105,282,o),
(138,286,cs),
(148,287,o),
(158,284,o),
(168,281,c),
(167,274,o),
(173,268,o),
(178,263,cs),
(199,244,o),
(224,228,o),
(242,206,cs),
(253,191,o),
(257,173,o),
(255,155,cs),
(250,122,o),
(230,87,o),
(200,71,cs),
(175,58,o),
(120,71,o),
(97,87,cs)
);
}
);
width = 322;
}
);
note = period;
unicode = 46;
},
{
glyphname = zero;
lastChange = "2023-03-06 21:06:57 +0000";
layers = (
{
layerId = m01;
shapes = (
{
closed = 1;
nodes = (
(413,-4,o),
(445,10,o),
(471,31,cs),
(510,62,o),
(539,108,o),
(557,155,cs),
(569,186,o),
(577,220,o),
(581,253,cs),
(592,334,o),
(589,419,o),
(569,499,cs),
(562,531,o),
(554,564,o),
(537,592,cs),
(527,609,o),
(512,623,o),
(496,634,cs),
(441,673,o),
(373,697,o),
(306,703,cs),
(278,705,o),
(247,704,o),
(223,688,cs),
(218,685,o),
(212,681,o),
(209,675,cs),
(207,670,o),
(208,664,o),
(210,659,c),
(205,657,o),
(178,639,o),
(173,635,cs),
(143,613,o),
(115,589,o),
(93,560,cs),
(73,532,o),
(61,498,o),
(53,464,cs),
(44,425,o),
(40,384,o),
(43,343,cs),
(49,274,o),
(74,206,o),
(109,146,cs),
(132,106,o),
(159,65,o),
(196,39,cs),
(218,23,o),
(244,13,o),
(269,5,cs),
(305,-6,o),
(343,-12,o),
(380,-7,cs)
);
},
{
closed = 1;
nodes = (
(304,44,o),
(265,53,o),
(233,72,cs),
(217,81,o),
(204,94,o),
(192,108,cs),
(155,153,o),
(125,205,o),
(105,260,cs),
(92,295,o),
(82,331,o),
(78,368,cs),
(74,422,o),
(79,479,o),
(103,526,cs),
(118,557,o),
(142,582,o),
(168,605,cs),
(177,613,o),
(213,639,o),
(225,642,cs),
(233,644,o),
(242,644,o),
(250,642,c),
(254,642,o),
(272,639,o),
(276,640,cs),
(283,642,o),
(286,648,o),
(283,654,c),
(342,646,o),
(403,633,o),
(453,602,cs),
(470,591,o),
(487,578,o),
(495,560,cs),
(523,504,o),
(533,439,o),
(535,376,cs),
(537,325,o),
(534,273,o),
(523,223,cs),
(514,184,o),
(498,148,o),
(475,116,cs),
(459,93,o),
(438,71,o),
(413,57,cs),
(392,46,o),
(366,42,o),
(341,43,cs)
);
},
{
closed = 1;
nodes = (
(371,191,o),
(342,264,o),
(333,289,cs),
(318,333,o),
(303,376,o),
(291,421,cs),
(269,509,l),
(266,517,o),
(265,525,o),
(261,531,cs),
(253,543,o),
(234,537,o),
(234,523,cs),
(236,484,o),
(245,445,o),
(252,406,cs),
(257,378,o),
(296,216,o),
(303,188,cs),
(304,182,o),
(304,177,o),
(305,172,cs),
(311,144,o),
(349,140,o),
(360,166,cs)
);
}
);
width = 634;
}
);
note = zero;
unicode = 48;
},
{
glyphname = one;
lastChange = "2023-03-06 21:06:57 +0000";
layers = (
{
layerId = m01;
shapes = (
{
closed = 1;
nodes = (
(523,13,o),
(560,19,o),
(592,33,cs),
(615,44,o),
(637,60,o),
(650,82,cs),
(661,100,o),
(668,124,o),
(664,145,cs),
(661,165,o),
(646,183,o),
(629,194,cs),
(610,207,o),
(586,214,o),
(568,229,cs),
(566,231,o),
(561,243,o),
(560,246,cs),
(534,298,o),
(534,359,o),
(527,416,cs),
(519,492,o),
(502,569,o),
(468,637,cs),
(451,673,o),
(428,711,o),
(394,732,cs),
(365,749,o),
(326,756,o),
(295,746,cs),
(256,734,o),
(224,702,o),
(197,672,cs),
(150,618,o),
(108,556,o),
(88,488,cs),
(85,478,o),
(86,464,o),
(93,457,cs),
(103,447,o),
(148,431,o),
(161,428,c),
(162,427,o),
(164,427,o),
(164,426,cs),
(163,421,o),
(163,415,o),
(162,410,cs),
(161,407,o),
(162,393,o),
(162,389,cs),
(162,386,o),
(159,365,o),
(158,361,cs),
(156,342,o),
(145,284,o),
(133,270,cs),
(119,256,o),
(105,242,o),
(93,226,cs),
(67,192,o),
(41,154,o),
(35,111,cs),
(33,96,o),
(33,80,o),
(39,66,cs),
(45,50,o),
(60,37,o),
(76,31,cs),
(91,25,o),
(108,24,o),
(124,23,cs),
(151,21,o),
(178,22,o),
(204,22,cs),
(299,23,o),
(394,2,o),
(488,10,cs)
);
},
{
closed = 1;
nodes = (
(373,54,o),
(320,68,o),
(265,72,cs),
(245,74,o),
(131,76,o),
(110,80,c),
(106,80,o),
(94,82,o),
(92,86,cs),
(88,93,o),
(94,113,o),
(96,120,cs),
(109,169,o),
(150,206,o),
(173,250,cs),
(183,269,o),
(188,290,o),
(192,311,cs),
(196,331,o),
(198,352,o),
(196,372,cs),
(194,388,o),
(186,403,o),
(187,419,c),
(190,419,o),
(193,423,o),
(196,426,cs),
(202,432,o),
(200,443,o),
(191,447,c),
(165,453,ls),
(157,455,o),
(121,471,o),
(114,474,c),
(110,477,o),
(114,484,o),
(115,489,cs),
(132,545,o),
(166,597,o),
(203,643,cs),
(219,663,o),
(237,684,o),
(258,700,cs),
(277,715,o),
(299,727,o),
(322,729,cs),
(345,730,o),
(368,723,o),
(386,710,cs),
(410,692,o),
(427,665,o),
(439,638,cs),
(461,591,o),
(473,539,o),
(482,488,cs),
(491,439,o),
(497,389,o),
(500,339,cs),
(501,319,o),
(505,239,o),
(514,220,cs),
(526,196,o),
(549,177,o),
(574,167,cs),
(587,162,o),
(616,150,o),
(619,136,cs),
(622,120,o),
(614,103,o),
(604,91,cs),
(592,77,o),
(574,69,o),
(557,64,cs),
(516,50,o),
(471,49,o),
(428,51,cs)
);
}
);
width = 687;
}
);
note = one;
unicode = 49;
},
{
glyphname = two;
layers = (
{
layerId = m01;
shapes = (
{
closed = 1;
nodes = (
(485,-16,o),
(528,-12,o),
(570,-5,cs),
(584,-3,o),
(598,0,o),
(611,5,cs),
(623,10,o),
(635,18,o),
(641,30,cs),
(651,51,o),
(644,78,o),
(637,100,cs),
(627,130,o),
(612,161,o),
(590,183,cs),
(563,209,o),
(526,222,o),
(495,242,cs),
(491,245,o),
(480,252,o),
(479,256,cs),
(479,258,o),
(480,263,o),
(481,265,cs),
(489,285,o),
(552,386,o),
(562,405,cs),
(579,436,o),
(594,472,o),
(593,508,cs),
(591,545,o),
(570,582,o),
(546,611,cs),
(518,644,o),
(485,674,o),
(446,693,cs),
(428,702,o),
(408,709,o),
(388,714,cs),
(387,714,o),
(383,718,o),
(382,719,cs),
(373,725,o),
(361,726,o),
(351,726,cs),
(348,726,o),
(335,724,o),
(333,725,c),
(315,727,o),
(297,728,o),
(279,726,cs),
(274,726,o),
(269,720,o),
(268,715,c),
(210,705,o),
(148,687,o),
(103,649,cs),
(79,628,o),
(60,599,o),
(48,569,cs),
(40,548,o),
(33,525,o),
(37,503,cs),
(40,487,o),
(48,474,o),
(62,466,cs),
(79,456,o),
(100,453,o),
(119,450,cs),
(151,445,o),
(183,442,o),
(214,433,cs),
(237,426,o),
(262,413,o),
(273,392,cs),
(277,384,o),
(279,375,o),
(276,367,cs),
(272,355,o),
(242,317,o),
(235,309,cs),
(195,261,o),
(72,127,o),
(73,65,cs),
(73,53,o),
(77,41,o),
(84,32,cs),
(93,20,o),
(108,12,o),
(122,8,cs),
(157,-3,o),
(194,-9,o),
(230,-15,cs),
(300,-25,o),
(372,-24,o),
(443,-19,cs)
);
},
{
closed = 1;
nodes = (
(165,33,o),
(121,41,o),
(111,53,cs),
(104,62,o),
(108,77,o),
(112,87,cs),
(118,104,o),
(127,119,o),
(136,134,cs),
(172,192,o),
(218,243,o),
(261,295,cs),
(273,309,o),
(286,324,o),
(295,340,cs),
(302,351,o),
(308,365,o),
(307,379,cs),
(307,396,o),
(299,412,o),
(289,425,cs),
(273,445,o),
(249,459,o),
(224,466,cs),
(205,473,o),
(186,476,o),
(166,480,cs),
(150,482,o),
(92,490,o),
(80,500,cs),
(68,509,o),
(75,533,o),
(80,546,cs),
(96,586,o),
(123,624,o),
(159,648,cs),
(199,675,o),
(249,686,o),
(298,694,cs),
(315,697,o),
(333,689,o),
(350,683,cs),
(385,670,o),
(419,655,o),
(449,634,cs),
(476,615,o),
(499,592,o),
(518,566,cs),
(529,550,o),
(540,532,o),
(541,513,cs),
(543,492,o),
(536,471,o),
(528,452,cs),
(518,425,o),
(504,400,o),
(489,375,cs),
(484,366,o),
(456,318,o),
(452,309,cs),
(445,293,o),
(436,277,o),
(435,260,cs),
(435,247,o),
(442,232,o),
(453,223,cs),
(484,196,o),
(528,187,o),
(559,160,cs),
(579,141,o),
(590,115,o),
(599,89,cs),
(602,80,o),
(611,56,o),
(605,48,cs),
(601,41,o),
(580,38,o),
(572,37,cs),
(546,32,o),
(520,30,o),
(495,27,cs),
(438,22,o),
(382,16,o),
(325,16,cs),
(276,16,o),
(228,21,o),
(180,30,cs)
);
}
);
width = 679;
}
);
note = two;
unicode = 50;
},
{
glyphname = three;
layers = (
{
layerId = m01;
shapes = (
{
closed = 1;
nodes = (
(485,-24,o),
(541,-14,o),
(596,-1,cs),
(624,6,o),
(652,15,o),
(676,31,cs),
(695,43,o),
(711,62,o),
(721,83,cs),
(736,116,o),
(740,157,o),
(731,192,cs),
(720,230,o),
(697,264,o),
(671,292,cs),
(641,325,o),
(606,354,o),
(571,382,cs),
(562,389,o),
(554,396,o),
(546,404,c),
(557,418,o),
(633,497,o),
(644,511,cs),
(659,529,o),
(675,551,o),
(674,574,cs),
(674,595,o),
(659,615,o),
(645,630,cs),
(615,660,o),
(583,689,o),
(548,712,cs),
(531,724,o),
(512,734,o),
(491,737,cs),
(471,739,o),
(450,733,o),
(432,722,c),
(386,720,o),
(340,716,o),
(294,711,cs),
(247,707,o),
(199,701,o),
(152,688,cs),
(128,681,o),
(103,672,o),
(81,659,cs),
(72,653,o),
(64,647,o),
(58,639,cs),
(53,632,o),
(50,623,o),
(52,614,cs),
(55,595,o),
(73,580,o),
(89,570,cs),
(137,540,o),
(195,527,o),
(250,516,cs),
(261,514,o),
(272,512,o),
(282,507,c),
(267,487,o),
(172,420,o),
(152,404,cs),
(138,393,o),
(73,342,o),
(63,327,cs),
(56,317,o),
(62,302,o),
(73,297,cs),
(76,295,o),
(90,294,o),
(93,293,c),
(152,288,o),
(212,284,o),
(269,269,cs),
(275,267,o),
(280,266,o),
(285,264,c),
(274,254,o),
(211,216,o),
(199,208,cs),
(149,177,o),
(101,144,o),
(61,102,cs),
(49,90,o),
(39,73,o),
(41,57,cs),
(49,16,o),
(117,-4,o),
(159,-9,cs),
(197,-13,o),
(235,-15,o),
(273,-18,cs),
(325,-22,o),
(377,-28,o),
(428,-26,cs)
);
},
{
closed = 1;
nodes = (
(375,9,o),
(324,15,o),
(274,20,cs),
(230,24,o),
(186,27,o),
(143,36,cs),
(125,39,o),
(106,45,o),
(91,55,cs),
(87,58,o),
(81,62,o),
(83,66,cs),
(89,76,o),
(97,85,o),
(105,94,cs),
(131,120,o),
(159,143,o),
(190,164,cs),
(204,175,o),
(289,228,o),
(303,240,cs),
(314,250,o),
(323,267,o),
(315,279,cs),
(304,295,o),
(282,301,o),
(264,305,cs),
(214,317,o),
(162,323,o),
(111,328,c),
(157,372,o),
(208,411,o),
(260,449,cs),
(288,469,o),
(331,496,o),
(311,525,cs),
(306,533,o),
(298,538,o),
(289,542,cs),
(284,544,o),
(253,553,o),
(247,554,cs),
(206,564,o),
(164,573,o),
(126,592,cs),
(113,598,o),
(100,607,o),
(90,618,c),
(94,624,o),
(100,628,o),
(107,632,cs),
(141,654,o),
(182,668,o),
(222,676,cs),
(289,688,o),
(358,693,o),
(426,698,c),
(429,694,o),
(436,692,o),
(441,694,cs),
(445,695,o),
(449,698,o),
(454,699,cs),
(459,700,o),
(477,701,o),
(482,700,cs),
(503,695,o),
(520,681,o),
(537,668,cs),
(565,648,o),
(591,624,o),
(614,599,cs),
(618,594,o),
(629,580,o),
(629,574,cs),
(629,568,o),
(627,563,o),
(624,559,cs),
(599,520,o),
(564,489,o),
(533,456,cs),
(522,444,o),
(509,433,o),
(504,418,cs),
(500,408,o),
(502,395,o),
(508,387,cs),
(511,382,o),
(531,365,o),
(536,362,cs),
(546,354,o),
(603,309,o),
(612,301,cs),
(639,277,o),
(664,252,o),
(681,221,cs),
(690,204,o),
(698,187,o),
(701,169,cs),
(705,135,o),
(697,95,o),
(674,72,cs),
(634,31,o),
(483,9,o),
(426,9,cs)
);
}
);
width = 771;
}
);
note = three;
unicode = 51;
},
{
glyphname = four;
lastChange = "2023-03-06 21:06:57 +0000";
layers = (
{
layerId = m01;
shapes = (
{
closed = 1;
nodes = (
(456,-22,o),
(507,-19,o),
(556,-8,cs),
(578,-4,o),
(601,2,o),
(618,15,cs),
(628,23,o),
(636,33,o),
(641,44,cs),
(648,59,o),
(649,76,o),
(648,93,cs),
(648,115,o),
(634,240,o),
(632,262,cs),
(625,335,o),
(622,409,o),
(607,481,cs),
(595,532,o),
(576,584,o),
(543,626,cs),
(529,642,o),
(512,661,o),
(491,664,cs),
(475,666,o),
(458,661,o),
(444,655,cs),
(420,643,o),
(397,626,o),
(379,606,cs),
(362,589,o),
(349,569,o),
(334,550,cs),
(333,549,o),
(332,551,o),
(331,552,cs),
(328,555,o),
(309,576,o),
(306,580,cs),
(291,597,o),
(277,615,o),
(262,632,cs),
(242,653,o),
(216,671,o),
(188,678,cs),
(178,681,o),
(166,684,o),
(156,682,cs),
(148,680,o),
(142,676,o),
(136,672,c),
(133,674,o),
(130,676,o),
(127,676,cs),
(122,675,o),
(119,671,o),
(114,670,cs),
(99,667,o),
(88,634,o),
(83,620,cs),
(69,581,o),
(29,430,o),
(33,389,cs),
(34,378,o),
(39,368,o),
(46,360,cs),
(54,351,o),
(65,345,o),
(76,340,cs),
(90,335,o),
(156,320,o),
(171,319,c),
(175,318,o),
(189,316,o),
(192,314,c),
(193,312,o),
(194,307,o),
(194,305,cs),
(196,288,o),
(181,204,o),
(179,187,cs),
(174,148,o),
(168,108,o),
(172,69,cs),
(173,52,o),
(174,34,o),
(182,18,cs),
(187,7,o),
(196,0,o),
(208,-1,cs),
(238,-5,o),
(268,-11,o),
(299,-16,cs),
(334,-22,o),
(370,-24,o),
(405,-23,cs)
);
},
{
closed = 1;
nodes = (
(318,15,o),
(228,29,o),
(212,31,c),
(197,105,o),
(210,183,o),
(221,258,cs),
(224,273,o),
(226,288,o),
(226,303,cs),
(226,313,o),
(225,323,o),
(220,331,cs),
(213,341,o),
(200,347,o),
(189,350,cs),
(156,357,o),
(123,362,o),
(91,373,cs),
(82,377,o),
(72,382,o),
(68,391,cs),
(65,400,o),
(70,435,o),
(71,445,cs),
(76,479,o),
(83,513,o),
(90,547,cs),
(93,567,o),
(110,633,o),
(124,648,cs),
(126,650,l),
(129,640,o),
(138,635,o),
(147,639,cs),
(153,641,o),
(160,635,o),
(165,633,cs),
(178,627,o),
(191,620,o),
(202,613,cs),
(246,583,o),
(302,476,o),
(347,503,cs),
(355,508,o),
(361,514,o),
(366,521,cs),
(383,543,o),
(396,569,o),
(414,590,cs),
(428,607,o),
(464,635,o),
(485,631,cs),
(493,630,o),
(500,623,o),
(506,617,cs),
(542,580,o),
(560,526,o),
(570,475,cs),
(586,395,o),
(590,313,o),
(597,231,cs),
(599,210,o),
(610,95,o),
(610,73,c),
(609,67,o),
(608,60,o),
(606,54,cs),
(601,41,o),
(571,32,o),
(557,29,cs),
(519,20,o),
(480,17,o),
(440,15,cs),
(405,13,o),
(369,11,o),
(333,14,cs)
);
}
);
width = 693;
}
);
note = four;
unicode = 52;
},
{
glyphname = five;
lastChange = "2023-03-06 21:06:57 +0000";
layers = (
{
layerId = m01;
shapes = (
{
closed = 1;
nodes = (
(465,-6,o),
(648,58,o),
(687,109,cs),
(704,130,o),
(706,160,o),
(709,187,cs),
(713,227,o),
(714,269,o),
(699,306,cs),
(687,339,o),
(659,367,o),
(630,386,cs),
(581,417,o),
(523,429,o),
(467,446,c),
(453,452,l),
(452,452,o),
(451,462,o),
(452,462,cs),
(487,462,o),
(522,463,o),
(557,468,cs),
(591,474,o),
(681,490,o),
(700,519,cs),
(714,540,o),
(700,605,o),
(695,629,cs),
(690,655,o),
(680,683,o),
(662,703,cs),
(652,714,o),
(637,721,o),
(623,726,cs),
(598,734,o),
(573,739,o),
(548,744,cs),
(507,751,o),
(466,757,o),
(425,759,cs),
(378,761,o),
(331,758,o),
(285,752,cs),
(250,747,o),
(215,742,o),
(181,732,cs),
(162,726,o),
(143,717,o),
(129,704,cs),
(119,694,o),
(110,680,o),
(111,667,cs),
(111,662,o),
(113,648,o),
(116,644,cs),
(122,635,o),
(135,635,o),
(141,644,cs),
(154,664,o),
(211,687,o),
(234,692,cs),
(288,704,o),
(344,707,o),
(399,707,cs),
(461,707,o),
(523,700,o),
(583,685,cs),
(591,683,o),
(600,680,o),
(608,677,cs),
(615,674,o),
(623,670,o),
(626,663,cs),
(634,647,o),
(637,630,o),
(641,613,cs),
(645,593,o),
(648,573,o),
(649,553,c),
(596,534,o),
(538,525,o),
(481,522,cs),
(475,522,o),
(438,522,o),
(431,521,cs),
(420,520,o),
(408,517,o),
(400,509,cs),
(385,492,o),
(385,451,o),
(394,430,cs),
(399,421,o),
(406,412,o),
(415,406,cs),
(437,394,o),
(462,388,o),
(487,383,cs),
(519,375,o),
(552,367,o),
(582,354,cs),
(606,343,o),
(629,328,o),
(643,307,cs),
(655,289,o),
(660,267,o),
(663,245,cs),
(667,216,o),
(670,186,o),
(664,157,cs),
(662,146,o),
(655,134,o),
(646,127,cs),
(636,119,o),
(625,112,o),
(613,106,cs),
(576,87,o),
(537,71,o),
(498,57,cs),
(443,38,o),
(386,22,o),
(328,12,cs),
(297,6,o),
(265,2,o),
(233,5,cs),
(210,7,o),
(187,14,o),
(165,23,cs),
(160,25,o),
(144,32,o),
(141,37,cs),
(138,42,o),
(143,56,o),
(146,62,cs),
(163,103,o),
(192,139,o),
(223,171,cs),
(246,194,o),
(271,215,o),
(289,243,cs),
(297,257,o),
(304,274,o),
(301,290,cs),
(299,302,o),
(290,313,o),
(279,319,cs),
(263,330,o),
(166,362,o),
(149,370,cs),
(139,375,o),
(129,379,o),
(121,386,cs),
(108,397,o),
(101,415,o),
(96,431,cs),
(91,454,o),
(90,477,o),
(89,501,cs),
(89,552,o),
(93,603,o),
(94,654,cs),
(94,655,o),
(95,656,o),
(96,656,c),
(108,664,o),
(100,680,o),
(88,688,cs),
(81,693,o),
(70,690,o),
(66,681,cs),
(64,676,o),
(61,649,o),
(60,643,cs),
(55,608,o),
(50,572,o),
(47,537,cs),
(44,497,o),
(40,456,o),
(47,417,cs),
(52,392,o),
(64,366,o),
(83,349,cs),
(114,322,o),
(158,313,o),
(199,304,cs),
(218,299,o),
(237,295,o),
(254,287,cs),
(257,285,o),
(262,283,o),
(262,280,cs),
(262,270,o),
(244,248,o),
(237,240,cs),
(203,203,o),
(167,169,o),
(138,128,cs),
(126,110,o),
(115,92,o),
(107,72,cs),
(101,54,o),
(98,31,o),
(108,15,cs),
(120,-3,o),
(143,-11,o),
(163,-19,cs),
(237,-47,o),
(325,-40,o),
(403,-21,cs)
);
}
);
width = 760;
}
);
note = five;
unicode = 53;
},
{
glyphname = six;
layers = (
{
layerId = m01;
shapes = (
{
closed = 1;
nodes = (
(515,-57,o),
(564,-34,o),
(607,-4,cs),
(628,10,o),
(647,28,o),
(665,45,cs),
(699,78,o),
(724,122,o),
(734,168,cs),
(744,209,o),
(742,255,o),
(725,294,cs),
(708,332,o),
(675,365,o),
(637,383,cs),
(601,401,o),
(557,406,o),
(517,405,cs),
(506,405,o),
(459,404,o),
(449,407,cs),
(446,408,o),
(446,408,o),
(446,411,cs),
(448,423,o),
(470,478,o),
(474,490,cs),
(490,528,o),
(503,569,o),
(505,611,cs),
(508,682,o),
(459,747,o),
(388,747,cs),
(361,747,o),
(333,737,o),
(308,724,cs),
(300,719,o),
(298,708,o),
(302,699,c),
(269,674,o),
(241,643,o),
(215,611,cs),
(184,573,o),
(155,532,o),
(132,489,cs),
(102,434,o),
(78,375,o),
(59,316,cs),
(47,278,o),
(37,239,o),
(38,200,cs),
(40,132,o),
(65,64,o),
(102,6,cs),
(120,-22,o),
(144,-47,o),
(172,-64,cs),
(212,-88,o),
(260,-97,o),
(307,-99,cs),
(360,-102,o),
(415,-92,o),
(466,-74,cs)
);
},
{
closed = 1;
nodes = (
(178,-12,o),
(158,12,o),
(142,37,cs),
(127,62,o),
(114,88,o),
(103,114,cs),
(91,143,o),
(79,174,o),
(78,206,cs),
(76,248,o),
(88,290,o),
(102,329,cs),
(121,387,o),
(144,443,o),
(173,496,cs),
(202,547,o),
(237,595,o),
(276,639,cs),
(293,657,o),
(310,676,o),
(331,690,c),
(374,693,o),
(429,681,o),
(436,639,cs),
(440,612,o),
(435,585,o),
(428,559,cs),
(424,543,o),
(395,457,o),
(392,441,cs),
(389,425,o),
(386,409,o),
(390,394,cs),
(394,374,o),
(409,361,o),
(429,357,cs),
(446,354,o),
(537,359,o),
(555,359,cs),
(590,357,o),
(627,345,o),
(654,322,cs),
(720,266,o),
(712,165,o),
(658,97,cs),
(629,61,o),
(587,38,o),
(547,16,cs),
(482,-21,o),
(410,-50,o),
(336,-54,cs),
(291,-57,o),
(243,-50,o),
(204,-27,cs)
);
},
{
closed = 1;
nodes = (
(401,110,o),
(424,164,o),
(395,204,cs),
(385,217,o),
(369,229,o),
(353,230,cs),
(351,230,o),
(346,236,o),
(344,237,cs),
(338,240,o),
(314,242,o),
(307,241,cs),
(301,240,o),
(295,236,o),
(291,232,cs),
(278,218,o),
(276,166,o),
(276,147,cs),
(276,129,o),
(279,111,o),
(290,97,cs),
(297,88,o),
(309,80,o),
(321,78,cs),
(334,76,o),
(347,79,o),
(358,86,cs)
);
},
{
closed = 1;
nodes = (
(313,117,o),
(310,140,o),
(308,154,cs),
(307,165,o),
(308,202,o),
(312,212,cs),
(314,216,o),
(321,213,o),
(326,212,cs),
(328,212,o),
(331,205,o),
(334,203,cs),
(335,202,o),
(347,198,o),
(349,197,cs),
(360,190,o),
(373,173,o),
(370,161,cs),
(369,153,o),
(365,146,o),
(360,140,cs),
(354,131,o),
(338,114,o),
(327,115,cs)
);
}
);
width = 773;
}
);
note = six;
unicode = 54;
},
{
glyphname = seven;
layers = (
{
layerId = m01;
shapes = (
{
closed = 1;
nodes = (
(456,9,o),
(482,28,o),
(506,48,cs),
(573,105,o),
(624,180,o),
(671,255,cs),
(712,318,o),
(750,386,o),
(769,459,cs),
(782,504,o),
(788,553,o),
(779,598,cs),
(775,617,o),
(768,635,o),
(758,652,cs),
(737,685,o),
(704,711,o),
(668,725,cs),
(652,731,o),
(636,735,o),
(620,738,cs),
(606,742,o),
(595,733,o),
(595,719,c),
(557,729,o),
(518,733,o),
(479,733,cs),
(423,734,o),
(366,730,o),
(311,719,cs),
(213,701,o),
(118,650,o),
(46,581,cs),
(35,570,o),
(23,557,o),
(19,542,cs),
(14,526,o),
(31,508,o),
(46,500,cs),
(65,488,o),
(87,482,o),
(109,476,cs),
(132,469,o),
(248,440,o),
(270,428,cs),
(273,426,o),
(277,424,o),
(277,421,cs),
(277,407,o),
(254,363,o),
(248,351,cs),
(223,300,o),
(206,244,o),
(201,187,cs),
(199,164,o),
(202,139,o),
(205,116,cs),
(207,105,o),
(217,58,o),
(221,48,cs),
(229,30,o),
(236,10,o),
(251,-4,cs),
(271,-21,o),
(300,-29,o),
(326,-31,cs),
(361,-32,o),
(397,-21,o),
(428,-5,cs)
);
},
{
closed = 1;
nodes = (
(256,56,o),
(250,140,o),
(250,169,cs),
(251,233,o),
(269,298,o),
(294,358,cs),
(303,378,o),
(314,398,o),
(315,420,cs),
(315,431,o),
(310,443,o),
(302,451,cs),
(276,476,o),
(142,501,o),
(107,512,cs),
(88,518,o),
(69,524,o),
(54,537,cs),
(52,539,o),
(55,543,o),
(57,545,c),
(65,558,o),
(78,569,o),
(89,579,cs),
(140,623,o),
(201,659,o),
(265,681,cs),
(321,700,o),
(381,708,o),
(441,711,cs),
(481,713,o),
(522,713,o),
(562,705,cs),
(595,699,o),
(626,687,o),
(657,675,c),
(662,674,o),
(674,662,o),
(677,658,c),
(697,638,o),
(717,615,o),
(723,587,cs),
(732,549,o),
(725,508,o),
(715,470,cs),
(695,390,o),
(653,317,o),
(608,248,cs),
(575,198,o),
(540,148,o),
(499,106,cs),
(466,72,o),
(428,40,o),
(384,23,cs),
(353,11,o),
(296,7,o),
(274,34,cs)
);
}
);
width = 818;
}
);
note = seven;
unicode = 55;
},
{
glyphname = eight;
layers = (
{
layerId = m01;
shapes = (
{
closed = 1;
nodes = (
(520,-1,o),
(601,13,o),
(670,49,cs),
(695,61,o),
(721,76,o),
(737,99,cs),
(749,116,o),
(753,137,o),
(754,158,cs),
(755,206,o),
(743,255,o),
(720,297,cs),
(703,328,o),
(674,354,o),
(643,372,cs),
(620,385,o),
(594,393,o),
(576,412,c),
(573,414,o),
(574,419,o),
(575,423,cs),
(578,443,o),
(586,462,o),
(588,482,cs),
(593,515,o),
(591,550,o),
(578,580,cs),
(567,606,o),
(546,628,o),
(521,643,cs),
(486,664,o),
(442,671,o),
(401,676,cs),
(397,677,o),
(390,685,o),
(387,687,c),
(378,696,o),
(368,705,o),
(356,708,cs),
(320,716,o),
(209,679,o),
(175,665,cs),
(148,654,o),
(122,637,o),
(104,614,cs),
(82,585,o),
(72,548,o),
(77,511,cs),
(79,496,o),
(84,482,o),
(93,469,cs),
(106,448,o),
(129,431,o),
(151,418,cs),
(154,416,o),
(166,408,o),
(168,405,cs),
(171,399,o),
(162,387,o),
(158,381,cs),
(146,361,o),
(131,343,o),
(117,325,cs),
(90,292,o),
(64,256,o),
(50,216,cs),
(42,193,o),
(38,166,o),
(43,141,cs),
(47,117,o),
(61,94,o),
(78,76,cs),
(106,48,o),
(145,32,o),
(183,21,cs),
(267,-4,o),
(356,-11,o),
(442,-6,cs)
);
},
{
closed = 1;
nodes = (
(276,58,o),
(229,62,o),
(185,76,cs),
(161,84,o),
(136,94,o),
(117,110,cs),
(106,119,o),
(98,131,o),
(93,144,cs),
(87,162,o),
(87,183,o),
(93,201,cs),
(114,265,o),
(173,312,o),
(203,373,cs),
(208,383,o),
(211,394,o),
(211,405,cs),
(210,416,o),
(205,428,o),
(197,436,cs),
(191,443,o),
(150,468,o),
(144,473,cs),
(130,484,o),
(119,500,o),
(115,518,cs),
(111,536,o),
(113,556,o),
(120,572,cs),
(134,606,o),
(166,631,o),
(198,647,cs),
(223,659,o),
(249,667,o),
(275,675,cs),
(293,680,o),
(341,694,o),
(357,686,cs),
(360,685,o),
(363,682,o),
(365,680,c),
(362,680,o),
(346,683,o),
(343,683,cs),
(326,682,o),
(325,657,o),
(342,654,cs),
(395,644,o),
(449,632,o),
(495,603,cs),
(509,594,o),
(523,582,o),
(530,566,cs),
(538,543,o),
(540,517,o),
(536,493,cs),
(532,473,o),
(525,455,o),
(520,435,cs),
(517,420,o),
(516,402,o),
(522,388,cs),
(526,376,o),
(536,366,o),
(546,358,cs),
(576,334,o),
(614,321,o),
(641,294,cs),
(666,270,o),
(678,233,o),
(683,199,cs),
(687,177,o),
(689,151,o),
(675,133,cs),
(666,122,o),
(653,114,o),
(640,108,cs),
(600,88,o),
(557,75,o),
(513,67,cs),
(450,55,o),
(386,52,o),
(323,55,cs)
);
},
{
closed = 1;
nodes = (
(381,164,o),
(384,176,o),
(383,178,c),
(376,257,o),
(375,335,o),
(375,414,cs),
(375,448,o),
(375,482,o),
(376,516,cs),
(376,518,o),
(377,519,o),
(378,521,cs),
(383,529,o),
(375,545,o),
(366,546,cs),
(356,548,o),
(349,539,o),
(348,528,cs),
(346,506,o),
(345,483,o),
(344,461,cs),
(341,379,o),
(340,298,o),
(343,217,cs),
(344,209,o),
(345,178,o),
(347,171,cs),
(348,167,o),
(354,156,o),
(357,154,c),
(365,146,o),
(379,150,o),
(381,161,cs)
);
}
);
width = 786;
}
);
note = eight;
unicode = 56;
},
{
glyphname = nine;
lastChange = "2023-03-06 21:06:57 +0000";
layers = (
{
layerId = m01;
shapes = (
{
closed = 1;
nodes = (
(447,31,o),
(477,46,o),
(504,63,cs),
(566,103,o),
(619,160,o),
(662,221,cs),
(699,272,o),
(731,329,o),
(750,389,cs),
(759,418,o),
(763,450,o),
(758,479,cs),
(747,545,o),
(710,605,o),
(656,644,cs),
(608,680,o),
(550,701,o),
(494,726,cs),
(483,731,o),
(430,754,o),
(418,757,cs),
(411,758,o),
(402,754,o),
(399,747,cs),
(398,744,o),
(399,741,o),
(398,738,c),
(344,735,o),
(289,729,o),
(237,714,cs),
(196,702,o),
(156,681,o),
(126,651,cs),
(98,623,o),
(74,590,o),
(57,554,cs),
(38,512,o),
(30,463,o),
(36,417,cs),
(41,389,o),
(54,361,o),
(71,338,cs),
(90,314,o),
(116,295,o),
(143,281,cs),
(163,272,o),
(184,264,o),
(205,258,c),
(214,254,o),
(265,239,o),
(275,234,c),
(281,229,l),
(284,225,o),
(283,210,o),
(283,205,cs),
(281,167,o),
(275,128,o),
(282,90,cs),
(286,69,o),
(294,48,o),
(309,33,cs),
(318,24,o),
(330,18,o),
(342,15,cs),
(366,9,o),
(393,14,o),
(416,21,cs)
);
},
{
closed = 1;
nodes = (
(340,73,o),
(338,84,o),
(336,94,cs),
(327,135,o),
(335,178,o),
(333,220,cs),
(333,232,o),
(331,246,o),
(324,256,cs),
(315,271,o),
(298,282,o),
(282,288,cs),
(239,304,o),
(194,312,o),
(153,332,cs),
(122,348,o),
(94,377,o),
(83,411,cs),
(74,440,o),
(74,472,o),
(81,501,cs),
(94,555,o),
(125,608,o),
(167,644,cs),
(190,664,o),
(220,677,o),
(249,687,cs),
(291,702,o),
(336,711,o),
(381,716,cs),
(390,717,o),
(414,721,o),
(421,715,cs),
(478,671,o),
(549,647,o),
(609,607,cs),
(632,592,o),
(651,573,o),
(666,551,cs),
(682,526,o),
(692,496,o),
(696,467,cs),
(700,443,o),
(695,419,o),
(687,396,cs),
(669,347,o),
(643,300,o),
(614,256,cs),
(579,203,o),
(536,152,o),
(484,114,cs),
(463,99,o),
(439,85,o),
(414,75,cs),
(397,68,o),
(362,55,o),
(348,67,cs)
);
},
{
closed = 1;
nodes = (
(450,410,o),
(455,429,o),
(456,446,cs),
(459,474,o),
(454,508,o),
(433,527,cs),
(421,537,o),
(410,540,o),
(396,535,cs),
(394,534,o),
(392,536,o),
(391,536,c),
(385,539,o),
(378,541,o),
(372,539,cs),
(344,533,o),
(327,492,o),
(326,463,cs),
(325,447,o),
(330,429,o),
(340,417,cs),
(355,401,o),
(377,391,o),
(399,388,cs),
(412,386,o),
(428,388,o),
(438,398,cs)
);
},
{
closed = 1;
nodes = (
(377,414,o),
(361,422,o),
(353,436,cs),
(340,457,o),
(349,494,o),
(366,512,cs),
(371,517,o),
(378,523,o),
(381,516,cs),
(383,511,o),
(389,509,o),
(394,511,cs),
(399,513,o),
(404,518,o),
(409,517,cs),
(419,516,o),
(429,500,o),
(432,490,cs),
(436,481,o),
(437,470,o),
(437,460,cs),
(437,447,o),
(433,418,o),
(421,411,cs),
(413,406,o),
(402,408,o),
(393,411,c)
);
}
);
width = 795;
}
);
note = nine;
unicode = 57;
},
{
glyphname = colon;
lastChange = "2024-06-01 14:05:47 +0000";
layers = (
{
layerId = m01;
shapes = (
{
closed = 1;
nodes = (
(211,304,o),
(270,367,o),
(266,432,cs),
(266,448,o),
(260,463,o),
(249,476,cs),
(232,496,o),
(206,508,o),
(181,515,cs),
(162,521,o),
(143,525,o),
(124,525,cs),
(107,524,o),
(85,517,o),
(95,503,c),
(88,500,o),
(82,496,o),
(78,491,cs),
(63,476,o),
(43,413,o),
(40,393,cs),
(37,377,o),
(37,361,o),
(42,346,cs),
(49,326,o),
(67,308,o),
(86,300,cs),
(105,291,o),
(127,290,o),
(147,293,cs)
);
},
{
closed = 1;
nodes = (
(220,28,o),
(237,47,o),
(250,67,cs),
(263,86,o),
(272,109,o),
(272,132,cs),
(272,158,o),
(254,185,o),
(233,201,cs),
(226,206,o),
(219,211,o),
(210,213,cs),
(207,214,o),
(204,217,o),
(201,218,cs),
(185,226,o),
(165,226,o),
(149,219,cs),
(125,208,o),
(104,192,o),
(87,172,cs),
(71,154,o),
(61,129,o),
(60,106,cs),
(60,86,o),
(66,65,o),
(78,49,cs),
(104,15,o),
(158,1,o),
(198,18,cs)
);
},
{
closed = 1;
nodes = (
(131,37,o),
(89,60,o),
(87,100,cs),
(86,114,o),
(89,128,o),
(95,141,cs),
(105,163,o),
(143,200,o),
(167,204,cs),
(172,205,o),
(176,204,o),
(181,204,c),
(179,195,o),
(185,187,o),
(193,187,cs),
(195,187,o),
(197,188,o),
(200,188,cs),
(204,187,o),
(215,177,o),
(219,174,cs),
(229,164,o),
(238,150,o),
(239,136,cs),
(240,117,o),
(231,98,o),
(220,82,cs),
(209,65,o),
(191,48,o),
(171,45,cs)
);
},
{
closed = 1;
nodes = (
(147,326,o),
(98,322,o),
(77,351,cs),
(69,362,o),
(67,377,o),
(69,390,cs),
(70,408,o),
(83,463,o),
(94,477,cs),
(98,481,o),
(104,484,o),
(109,486,c),
(117,487,o),
(138,488,o),
(142,494,cs),
(143,496,o),
(143,496,o),
(146,495,cs),
(167,490,o),
(187,484,o),
(206,474,cs),
(218,467,o),
(230,457,o),
(235,444,cs),
(239,431,o),
(235,415,o),
(230,401,cs),
(220,378,o),
(201,356,o),
(179,344,cs)
);
}
);
width = 312;
}
);
note = colon;
unicode = 58;
},
{
glyphname = semicolon;
layers = (
{
layerId = m01;
shapes = (
{
closed = 1;
nodes = (
(255,304,o),
(277,326,o),
(291,352,cs),
(299,367,o),
(305,384,o),
(305,401,cs),
(305,421,o),
(298,440,o),
(288,457,cs),
(268,491,o),
(232,517,o),
(194,531,cs),
(190,532,o),
(170,541,o),
(166,541,c),
(158,543,o),
(151,536,o),
(151,528,c),
(140,526,o),
(101,512,o),
(92,505,cs),
(76,495,o),
(65,479,o),
(56,463,cs),
(42,437,o),
(36,405,o),
(42,377,cs),
(50,340,o),
(74,305,o),
(103,281,cs),
(120,267,o),
(143,256,o),
(165,258,cs),
(189,259,o),
(212,272,o),
(231,286,cs)
);
},
{
closed = 1;
nodes = (
(99,343,o),
(83,364,o),
(76,387,cs),
(62,428,o),
(79,478,o),
(119,493,cs),
(132,498,o),
(144,503,o),
(157,505,cs),
(159,505,o),
(167,507,o),
(169,507,cs),
(173,506,o),
(189,504,o),
(192,502,cs),
(215,489,o),
(238,475,o),
(254,455,cs),
(264,441,o),
(274,424,o),
(274,407,cs),
(275,392,o),
(269,376,o),
(260,363,cs),
(244,340,o),
(195,299,o),
(168,297,cs),
(148,296,o),
(130,311,o),
(116,325,cs)
);
},
{
closed = 1;
nodes = (
(280,-24,o),
(302,4,o),
(320,33,cs),
(335,57,o),
(348,85,o),
(350,113,cs),
(352,163,o),
(309,227,o),
(261,242,cs),
(250,245,o),
(242,233,o),
(246,224,c),
(223,224,o),
(117,212,o),
(95,207,cs),
(85,204,o),
(74,201,o),
(67,193,cs),
(56,182,o),
(51,168,o),
(54,153,cs),
(56,139,o),
(65,127,o),
(73,117,cs),
(90,97,o),
(111,81,o),
(131,63,c),
(136,57,o),
(143,52,o),
(146,45,cs),
(149,35,o),
(135,-7,o),
(135,-18,cs),
(134,-30,o),
(138,-42,o),
(147,-51,cs),
(174,-78,o),
(224,-71,o),
(254,-46,cs)
);
},
{
closed = 1;
nodes = (
(169,-33,o),
(164,-30,o),
(163,-26,cs),
(160,-18,o),
(163,-9,o),
(165,-1,cs),
(168,17,o),
(176,35,o),
(172,52,cs),
(169,62,o),
(162,71,o),
(155,79,cs),
(135,102,o),
(109,120,o),
(90,144,cs),
(81,154,o),
(77,169,o),
(88,177,cs),
(105,189,o),
(177,197,o),
(197,199,cs),
(217,202,o),
(237,205,o),
(257,203,c),
(260,202,o),
(270,203,o),
(272,200,c),
(291,182,o),
(310,160,o),
(317,135,cs),
(322,117,o),
(318,96,o),
(311,78,cs),
(299,51,o),
(281,26,o),
(262,3,cs),
(249,-12,o),
(235,-28,o),
(217,-36,cs),
(203,-42,o),
(186,-41,o),
(173,-35,cs)
);
}
);
width = 387;
}
);
note = semicolon;
unicode = 59;
},
{
glyphname = less;
lastChange = "2023-03-06 21:06:57 +0000";
layers = (
{
layerId = m01;
shapes = (
{
closed = 1;
nodes = (
(560,70,o),
(602,69,o),
(644,74,cs),
(656,75,o),
(668,78,o),
(678,85,cs),
(688,91,o),
(690,107,o),
(686,118,cs),
(676,143,o),
(604,202,o),
(583,219,cs),
(546,247,o),
(509,273,o),
(471,300,cs),
(467,303,o),
(453,311,o),
(451,316,c),
(451,318,o),
(453,324,o),
(454,325,c),
(458,333,o),
(484,368,o),
(489,375,cs),
(514,409,o),
(540,444,o),
(553,484,cs),
(559,503,o),
(563,523,o),
(560,541,cs),
(556,559,o),
(546,576,o),
(534,590,cs),
(530,594,o),
(511,615,o),
(505,619,cs),
(497,624,o),
(485,617,o),
(487,607,cs),
(488,602,o),
(493,599,o),
(496,595,cs),
(502,587,o),
(527,554,o),
(530,546,cs),
(534,535,o),
(534,522,o),
(532,510,cs),
(527,486,o),
(515,464,o),
(502,443,cs),
(490,427,o),
(430,351,o),
(423,333,cs),
(420,323,o),
(419,312,o),
(423,303,cs),
(429,289,o),
(444,281,o),
(456,272,cs),
(513,232,o),
(569,189,o),
(620,142,cs),
(629,133,o),
(638,124,o),
(646,114,c),
(584,111,ls),
(462,110,o),
(339,89,o),
(217,104,cs),
(150,113,o),
(52,141,o),
(50,209,cs),
(49,223,o),
(54,238,o),
(60,251,cs),
(69,271,o),
(82,290,o),
(96,307,cs),
(142,367,o),
(200,417,o),
(258,465,cs),
(307,505,o),
(357,543,o),
(409,580,cs),
(425,592,o),
(479,631,o),
(499,631,cs),
(504,631,o),
(508,628,o),
(512,627,cs),
(521,625,o),
(527,635,o),
(522,642,cs),
(520,645,o),
(510,649,o),
(506,650,cs),
(481,655,o),
(426,616,o),
(405,602,cs),
(351,564,o),
(299,525,o),
(249,484,cs),
(200,444,o),
(153,403,o),
(110,357,cs),
(79,323,o),
(47,287,o),
(33,243,cs),
(26,222,o),
(26,197,o),
(35,177,cs),
(51,141,o),
(89,116,o),
(126,101,cs),
(167,84,o),
(212,77,o),
(257,72,cs),
(344,65,o),
(431,66,o),
(518,69,cs)
);
}
);
width = 702;
}
);
note = less;
unicode = 60;
},
{
glyphname = equal;
layers = (
{
layerId = m01;
shapes = (
{
closed = 1;
nodes = (
(345,330,o),
(411,330,o),
(477,336,cs),
(498,338,o),
(519,340,o),
(540,345,cs),
(558,348,o),
(578,354,o),
(591,367,cs),
(605,382,o),
(608,404,o),
(611,424,cs),
(615,455,o),
(616,491,o),
(598,516,cs),
(595,520,o),
(585,531,o),
(580,532,cs),
(570,534,o),
(562,525,o),
(564,516,c),
(542,522,o),
(426,541,o),
(403,544,cs),
(360,550,o),
(317,555,o),
(274,554,cs),
(235,554,o),
(196,547,o),
(161,532,cs),
(119,513,o),
(80,483,o),
(51,446,cs),
(44,436,o),
(37,424,o),
(37,411,cs),
(37,371,o),
(93,345,o),
(132,336,cs),
(179,325,o),
(230,327,o),
(279,329,cs)
);
},
{
closed = 1;
nodes = (
(140,369,o),
(110,374,o),
(87,389,cs),
(78,394,o),
(68,401,o),
(66,410,cs),
(64,421,o),
(80,440,o),
(88,448,cs),
(118,481,o),
(158,508,o),
(201,520,cs),
(246,533,o),
(293,532,o),
(339,529,cs),
(402,524,o),
(465,518,o),
(526,504,cs),
(538,501,o),
(550,499,o),
(561,494,cs),
(563,493,o),
(573,488,o),
(576,487,c),
(576,469,o),
(575,411,o),
(565,396,cs),
(561,390,o),
(544,389,o),
(537,388,cs),
(503,384,o),
(309,374,o),
(275,372,cs),
(240,370,o),
(204,366,o),
(169,368,cs)
);
},
{
closed = 1;
nodes = (
(437,35,o),
(487,41,o),
(536,54,cs),
(561,60,o),
(587,69,o),
(611,81,cs),
(623,88,o),
(635,97,o),
(641,109,cs),
(646,120,o),
(647,132,o),
(646,144,cs),
(642,175,o),
(620,237,o),
(592,250,cs),
(579,256,o),
(562,254,o),
(549,250,cs),
(539,247,o),
(529,251,o),
(519,251,cs),
(480,252,o),
(440,255,o),
(400,254,cs),
(352,252,o),
(304,247,o),
(256,241,cs),
(204,234,o),
(150,226,o),
(103,202,cs),
(88,194,o),
(71,185,o),
(61,170,cs),
(54,161,o),
(51,149,o),
(51,138,cs),
(53,107,o),
(74,76,o),
(100,59,cs),
(126,42,o),
(159,35,o),
(191,32,cs),
(256,25,o),
(322,26,o),
(387,31,cs)
);
},
{
closed = 1;
nodes = (
(121,82,o),
(107,90,o),
(98,102,cs),
(91,111,o),
(80,135,o),
(83,146,cs),
(86,156,o),
(108,171,o),
(117,176,cs),
(151,194,o),
(188,203,o),
(226,211,cs),
(273,221,o),
(321,229,o),
(370,231,cs),
(421,234,o),
(471,231,o),
(522,229,cs),
(526,229,o),
(533,232,o),
(534,228,cs),
(536,223,o),
(541,220,o),
(547,219,cs),
(554,219,o),
(562,222,o),
(569,220,cs),
(581,217,o),
(593,190,o),
(598,179,cs),
(603,166,o),
(608,152,o),
(609,138,cs),
(610,133,o),
(610,127,o),
(606,123,cs),
(595,112,o),
(546,96,o),
(531,92,cs),
(441,67,o),
(347,61,o),
(254,60,cs),
(214,60,o),
(173,62,o),
(135,77,cs)
);
}
);
width = 683;
}
);
note = equal;
unicode = 61;
},
{
glyphname = greater;
lastChange = "2023-03-06 21:06:57 +0000";
layers = (
{
layerId = m01;
shapes = (
{
closed = 1;
nodes = (
(187,37,ls),
(308,60,o),
(419,125,o),
(521,193,cs),
(571,226,o),
(620,264,o),
(658,311,cs),
(676,332,o),
(692,357,o),
(696,383,cs),
(700,404,o),
(695,427,o),
(687,446,cs),
(673,480,o),
(652,512,o),
(628,541,cs),
(608,565,o),
(583,587,o),
(553,598,cs),
(551,599,o),
(549,602,o),
(547,603,cs),
(543,604,o),
(523,608,o),
(520,609,c),
(516,609,o),
(513,607,o),
(510,608,c),
(489,611,o),
(378,645,o),
(358,651,cs),
(315,664,o),
(272,676,o),
(229,685,cs),
(196,692,o),
(161,699,o),
(127,697,cs),
(104,696,o),
(80,691,o),
(60,679,cs),
(49,672,o),
(38,661,o),
(33,648,cs),
(25,629,o),
(28,606,o),
(34,586,cs),
(48,545,o),
(80,509,o),
(117,486,cs),
(162,456,o),
(212,434,o),
(253,398,cs),
(261,392,o),
(282,370,o),
(284,360,cs),
(286,352,o),
(274,331,o),
(270,324,cs),
(248,293,o),
(223,265,o),
(200,236,cs),
(170,199,o),
(139,162,o),
(114,121,cs),
(106,107,o),
(97,92,o),
(93,76,cs),
(88,57,o),
(95,35,o),
(114,30,cs),
(128,27,o),
(143,30,o),
(157,31,c)
);
},
{
closed = 1;
nodes = (
(118,64,o),
(125,80,o),
(128,86,cs),
(139,113,o),
(156,137,o),
(173,161,cs),
(190,184,o),
(286,303,o),
(299,328,cs),
(305,339,o),
(310,352,o),
(308,365,cs),
(307,374,o),
(302,383,o),
(296,391,cs),
(279,413,o),
(257,430,o),
(234,445,cs),
(195,472,o),
(152,491,o),
(115,519,cs),
(93,535,o),
(72,557,o),
(62,583,cs),
(54,602,o),
(47,626,o),
(58,644,cs),
(63,653,o),
(73,660,o),
(82,664,cs),
(120,683,o),
(166,677,o),
(208,670,cs),
(308,653,o),
(404,615,o),
(504,592,cs),
(507,591,o),
(509,586,o),
(512,585,cs),
(533,576,o),
(555,568,o),
(573,554,cs),
(598,534,o),
(617,506,o),
(633,478,cs),
(646,456,o),
(658,432,o),
(661,407,cs),
(663,394,o),
(660,380,o),
(653,369,cs),
(643,352,o),
(630,336,o),
(616,322,cs),
(553,253,o),
(473,200,o),
(391,154,cs),
(312,111,o),
(228,72,o),
(140,58,cs),
(135,57,o),
(124,54,o),
(121,59,cs)
);
}
);
width = 727;
}
);
note = greater;
unicode = 62;
},
{
glyphname = question;
kernLeft = question;
lastChange = "2024-06-01 14:05:47 +0000";
layers = (
{
layerId = m01;
shapes = (
{
closed = 1;
nodes = (
(167,163,o),
(212,163,o),
(243,182,cs),
(269,198,o),
(284,229,o),
(305,251,cs),
(328,276,o),
(359,293,o),
(389,309,cs),
(419,325,o),
(448,341,o),
(478,359,cs),
(500,372,o),
(520,390,o),
(534,412,cs),
(552,443,o),
(559,481,o),
(561,517,cs),
(564,563,o),
(545,619,o),
(508,646,cs),
(484,663,o),
(455,672,o),
(431,689,c),
(431,692,o),
(431,695,o),
(429,697,cs),
(425,701,o),
(420,703,o),
(417,707,cs),
(413,712,o),
(406,715,o),
(400,714,cs),
(397,714,o),
(397,714,o),
(395,715,cs),
(368,725,o),
(339,731,o),
(310,732,cs),
(250,736,o),
(190,735,o),
(132,722,cs),
(107,717,o),
(82,711,o),
(61,697,cs),
(31,677,o),
(29,635,o),
(49,605,cs),
(64,583,o),
(88,566,o),
(113,555,cs),
(142,542,o),
(174,537,o),
(206,530,c),
(181,507,o),
(155,484,o),
(135,456,cs),
(105,413,o),
(83,361,o),
(77,308,cs),
(75,279,o),
(76,248,o),
(89,222,cs),
(99,201,o),
(113,187,o),
(134,177,cs)
);
},
{
closed = 1;
nodes = (
(223,-70,o),
(277,-36,o),
(293,4,cs),
(296,12,o),
(298,22,o),
(297,31,cs),
(295,59,o),
(265,107,o),
(239,118,cs),
(230,121,o),
(220,116,o),
(218,106,cs),
(217,101,o),
(206,105,o),
(201,105,cs),
(177,105,o),
(155,89,o),
(139,71,cs),
(126,56,o),
(116,34,o),
(115,13,cs),
(114,-23,o),
(145,-58,o),
(181,-63,cs)
);
},
{
closed = 1;
nodes = (
(182,-19,o),
(160,-4,o),
(158,15,cs),
(157,39,o),
(177,70,o),
(200,78,cs),
(203,79,o),
(220,79,o),
(223,79,cs),
(227,79,o),
(227,79,o),
(228,77,cs),
(245,47,ls),
(248,42,o),
(254,29,o),
(251,24,cs),
(244,12,o),
(214,-9,o),
(200,-13,cs)
);
},
{
closed = 1;
nodes = (
(114,237,o),
(122,295,o),
(131,337,cs),
(143,392,o),
(176,443,o),
(215,483,cs),
(223,491,o),
(257,522,o),
(261,532,cs),
(265,541,o),
(264,554,o),
(259,563,c),
(253,570,o),
(245,575,o),
(237,579,cs),
(223,586,o),
(141,604,o),
(127,609,cs),
(96,620,o),
(60,646,o),
(84,668,cs),
(92,675,o),
(129,686,o),
(140,689,cs),
(194,702,o),
(250,710,o),
(306,710,cs),
(332,710,o),
(359,705,o),
(384,696,cs),
(387,695,o),
(387,695,o),
(387,692,cs),
(389,674,o),
(399,657,o),
(413,645,cs),
(423,637,o),
(478,601,o),
(486,591,cs),
(493,584,o),
(495,573,o),
(497,564,cs),
(503,529,o),
(499,491,o),
(485,459,cs),
(470,428,o),
(439,405,o),
(409,389,cs),
(369,368,o),
(328,348,o),
(294,319,cs),
(270,298,o),
(252,271,o),
(233,246,cs),
(227,239,o),
(220,231,o),
(212,227,cs),
(195,219,o),
(174,220,o),
(156,225,cs)
);
}
);
width = 594;
}
);
note = question;
unicode = 63;
},
{
glyphname = at;
layers = (
{
layerId = m01;
shapes = (
{
closed = 1;
nodes = (
(496,-8,o),
(531,0,o),
(560,19,cs),
(594,41,o),
(618,78,o),
(633,116,cs),
(646,147,o),
(674,235,o),
(662,266,cs),
(659,274,o),
(654,282,o),
(646,287,c),
(660,295,o),
(673,306,o),
(685,316,cs),
(699,329,o),
(714,342,o),
(724,358,c),
(733,369,o),
(738,383,o),
(743,396,cs),
(751,422,o),
(756,447,o),
(759,474,cs),
(762,494,o),
(763,515,o),
(760,535,cs),
(757,550,o),
(749,564,o),
(740,577,cs),
(723,598,o),
(705,618,o),
(685,635,cs),
(627,684,o),
(544,701,o),
(468,703,cs),
(431,704,o),
(393,701,o),
(357,692,cs),
(291,675,o),
(229,640,o),
(177,595,cs),
(131,556,o),
(94,506,o),
(65,453,cs),
(52,429,o),
(41,404,o),
(37,377,cs),
(31,334,o),
(40,289,o),
(57,249,cs),
(84,187,o),
(126,132,o),
(172,83,cs),
(203,50,o),
(243,25,o),
(285,8,cs),
(310,-3,o),
(335,-13,o),
(362,-18,cs),
(395,-24,o),
(429,-21,o),
(462,-15,cs)
);
},
{
closed = 1;
nodes = (
(279,81,o),
(265,92,o),
(250,103,cs),
(207,138,o),
(164,175,o),
(130,220,cs),
(102,257,o),
(80,301,o),
(73,347,cs),
(68,372,o),
(70,398,o),
(78,421,cs),
(89,453,o),
(108,482,o),
(128,509,cs),
(182,582,o),
(261,639,o),
(346,668,cs),
(390,683,o),
(437,686,o),
(483,683,cs),
(521,681,o),
(558,673,o),
(594,660,cs),
(621,651,o),
(648,639,o),
(670,620,cs),
(691,601,o),
(709,579,o),
(725,555,cs),
(749,518,o),
(729,426,o),
(711,386,cs),
(700,362,o),
(681,342,o),
(662,323,cs),
(652,313,o),
(620,288,o),
(606,288,c),
(610,302,o),
(612,317,o),
(609,331,cs),
(604,351,o),
(590,370,o),
(573,381,cs),
(553,395,o),
(527,399,o),
(504,409,c),
(502,409,o),
(495,413,o),
(494,415,cs),
(489,422,o),
(484,455,o),
(482,463,cs),
(479,480,o),
(470,497,o),
(456,507,cs),
(443,516,o),
(426,519,o),
(410,522,cs),
(405,523,o),
(399,520,o),
(397,515,cs),
(396,513,o),
(392,514,o),
(391,513,c),
(373,512,o),
(356,510,o),
(338,508,cs),
(310,504,o),
(283,493,o),
(259,479,cs),
(231,462,o),
(209,430,o),
(206,398,cs),
(204,372,o),
(205,346,o),
(209,320,cs),
(214,295,o),
(224,270,o),
(239,249,cs),
(247,239,o),
(256,228,o),
(268,222,cs),
(276,218,o),
(287,216,o),
(295,218,cs),
(312,222,o),
(327,232,o),
(341,241,cs),
(351,248,o),
(383,274,o),
(395,275,cs),
(404,276,o),
(429,261,o),
(437,257,cs),
(470,242,o),
(506,227,o),
(542,232,cs),
(563,235,o),
(584,250,o),
(596,268,cs),
(597,269,o),
(597,271,o),
(598,271,c),
(603,267,o),
(614,273,o),
(611,268,cs),
(605,257,o),
(597,207,o),
(595,194,cs),
(591,162,o),
(582,129,o),
(565,101,cs),
(554,85,o),
(540,69,o),
(522,60,cs),
(497,48,o),
(468,46,o),
(440,44,cs),
(391,42,o),
(339,51,o),
(295,73,cs)
);
},
{
closed = 1;
nodes = (
(264,267,o),
(257,277,o),
(251,288,cs),
(237,310,o),
(233,337,o),
(231,363,cs),
(230,380,o),
(230,397,o),
(235,413,cs),
(238,424,o),
(244,435,o),
(253,443,c),
(267,459,o),
(287,469,o),
(307,478,cs),
(335,490,o),
(366,493,o),
(397,495,cs),
(402,495,o),
(408,493,o),
(412,496,c),
(425,491,o),
(441,487,o),
(449,475,cs),
(460,458,o),
(460,436,o),
(465,417,cs),
(468,407,o),
(474,397,o),
(482,391,cs),
(505,377,o),
(536,376,o),
(557,359,cs),
(565,352,o),
(572,343,o),
(576,334,cs),
(584,314,o),
(572,283,o),
(555,270,cs),
(548,264,o),
(539,261,o),
(530,259,cs),
(516,257,o),
(501,261,o),
(487,264,cs),
(467,268,o),
(447,276,o),
(429,285,cs),
(419,290,o),
(408,297,o),
(397,297,cs),
(390,297,o),
(382,295,o),
(376,292,cs),
(361,285,o),
(307,248,o),
(290,247,cs),
(283,247,o),
(278,253,o),
(273,257,c)
);
},
{
closed = 1;
nodes = (
(379,360,o),
(377,378,o),
(376,383,cs),
(375,394,o),
(376,406,o),
(371,416,cs),
(368,425,o),
(356,428,o),
(349,421,cs),
(341,413,o),
(334,378,o),
(331,367,cs),
(323,334,o),
(372,322,o),
(378,356,cs)
);
}
);
width = 796;
}
);
note = at;
unicode = 64;
},
{
glyphname = A;
layers = (
{
layerId = m01;
shapes = (
{
closed = 1;
nodes = (
(214,-14,o),
(235,2,o),
(254,18,cs),
(284,42,o),
(312,69,o),
(343,92,cs),
(357,103,o),
(371,113,o),
(387,119,cs),
(405,126,o),
(426,125,o),
(444,118,cs),
(491,100,o),
(528,64,o),
(570,38,cs),
(626,4,o),
(706,-2,o),
(742,53,cs),
(759,79,o),
(767,113,o),
(768,144,cs),
(769,194,o),
(757,244,o),
(743,292,cs),
(730,338,o),
(714,383,o),
(696,427,cs),
(672,483,o),
(642,540,o),
(598,582,cs),
(567,612,o),
(528,634,o),
(488,650,cs),
(450,665,o),
(409,676,o),
(368,677,cs),
(345,678,o),
(321,675,o),
(298,670,cs),
(293,669,o),
(273,667,o),
(269,664,cs),
(265,662,o),
(263,656,o),
(262,652,c),
(226,629,o),
(199,595,o),
(173,562,cs),
(139,520,o),
(108,475,o),
(86,426,cs),
(60,370,o),
(43,308,o),
(34,247,cs),
(29,212,o),
(26,177,o),
(28,143,cs),
(29,114,o),
(35,84,o),
(50,60,cs),
(68,30,o),
(98,7,o),
(129,-9,cs),
(147,-18,o),
(170,-22,o),
(190,-19,cs)
);
},
{
closed = 1;
nodes = (
(61,100,o),
(57,123,o),
(55,145,cs),
(51,198,o),
(59,252,o),
(71,304,cs),
(82,354,o),
(99,404,o),
(124,450,cs),
(151,497,o),
(184,541,o),
(220,582,cs),
(237,601,o),
(255,620,o),
(276,633,cs),
(282,637,o),
(302,633,o),
(308,633,cs),
(371,627,o),
(435,614,o),
(494,588,cs),
(533,570,o),
(569,543,o),
(595,509,cs),
(624,470,o),
(647,426,o),
(666,381,cs),
(684,338,o),
(700,293,o),
(711,247,cs),
(718,216,o),
(724,184,o),
(723,152,cs),
(722,133,o),
(718,113,o),
(709,96,cs),
(691,61,o),
(637,70,o),
(600,84,cs),
(577,92,o),
(558,106,o),
(537,119,cs),
(510,136,o),
(482,154,o),
(451,162,cs),
(429,168,o),
(405,165,o),
(384,158,cs),
(352,146,o),
(323,125,o),
(297,103,cs),
(268,79,o),
(241,50,o),
(210,27,cs),
(200,20,o),
(187,14,o),
(175,14,cs),
(142,13,o),
(89,53,o),
(72,81,cs)
);
},
{
closed = 1;
nodes = (
(443,266,o),
(476,305,o),
(469,348,cs),
(467,363,o),
(458,378,o),
(448,390,cs),
(438,402,o),
(427,414,o),
(415,424,cs),
(406,431,o),
(393,436,o),
(381,433,cs),
(376,432,o),
(362,422,o),
(357,424,cs),
(353,425,o),
(348,425,o),
(344,423,c),
(332,420,o),
(322,407,o),
(317,395,cs),
(307,372,o),
(302,346,o),
(305,321,cs),
(310,277,o),
(356,255,o),
(399,261,cs)
);
},
{
closed = 1;
nodes = (
(338,348,o),
(339,362,o),
(341,376,c),
(348,376,o),
(367,385,o),
(373,388,cs),
(376,390,o),
(385,397,o),
(388,396,c),
(393,396,o),
(403,387,o),
(406,384,cs),
(418,372,o),
(438,351,o),
(432,336,cs),
(427,324,o),
(417,311,o),
(404,308,cs),
(377,300,o),
(345,306,o),
(340,334,cs)
);
}
);
width = 792;
}
);
note = A;
unicode = (65,192,193,194,195,196,197);
},
{
glyphname = B;
layers = (
{
layerId = m01;
shapes = (
{
closed = 1;
nodes = (
(405,-25,o),
(454,-5,o),
(498,18,cs),
(539,39,o),
(578,66,o),
(609,100,cs),
(629,123,o),
(645,156,o),
(643,187,cs),
(639,238,o),
(609,289,o),
(571,324,cs),
(564,330,o),
(557,335,o),
(551,342,c),
(573,385,o),
(603,426,o),
(612,473,cs),
(619,510,o),
(612,553,o),
(591,584,cs),
(574,609,o),
(547,628,o),
(519,638,c),
(508,648,o),
(493,654,o),
(479,657,cs),
(467,659,o),
(406,671,o),
(394,671,cs),
(338,675,o),
(281,667,o),
(229,649,cs),
(187,635,o),
(144,619,o),
(106,596,cs),
(71,575,o),
(43,542,o),
(29,504,cs),
(17,471,o),
(13,432,o),
(22,398,cs),
(27,381,o),
(37,365,o),
(48,352,cs),
(57,343,o),
(111,296,o),
(119,286,cs),
(127,276,o),
(130,263,o),
(133,250,cs),
(136,237,o),
(143,163,o),
(145,150,cs),
(147,125,o),
(151,100,o),
(162,78,cs),
(185,35,o),
(223,-6,o),
(269,-21,cs),
(296,-30,o),
(326,-33,o),
(355,-30,cs)
);
},
{
closed = 1;
nodes = (
(265,27,o),
(250,38,o),
(236,50,cs),
(221,63,o),
(206,78,o),
(197,96,cs),
(186,117,o),
(184,142,o),
(182,165,cs),
(178,207,o),
(178,250,o),
(165,289,cs),
(152,324,o),
(118,347,o),
(90,372,cs),
(78,383,o),
(66,397,o),
(61,414,cs),
(50,448,o),
(57,489,o),
(74,520,c),
(77,524,o),
(89,541,o),
(92,544,cs),
(119,576,o),
(160,595,o),
(199,611,cs),
(245,630,o),
(295,644,o),
(344,647,cs),
(371,648,o),
(399,646,o),
(425,641,cs),
(431,640,o),
(456,636,o),
(461,633,cs),
(471,628,o),
(482,626,o),
(493,621,cs),
(501,617,o),
(506,612,o),
(511,604,c),
(530,592,o),
(548,577,o),
(560,558,cs),
(566,548,o),
(570,536,o),
(572,525,cs),
(579,485,o),
(561,443,o),
(541,408,cs),
(535,398,o),
(510,359,o),
(508,348,cs),
(506,338,o),
(508,327,o),
(513,319,cs),
(518,313,o),
(550,279,o),
(555,273,cs),
(569,255,o),
(579,233,o),
(586,211,cs),
(591,198,o),
(593,183,o),
(590,170,cs),
(588,160,o),
(581,151,o),
(575,143,cs),
(558,118,o),
(532,100,o),
(507,83,cs),
(474,61,o),
(437,44,o),
(399,31,cs),
(362,19,o),
(320,11,o),
(283,22,cs)
);
},
{
closed = 1;
nodes = (
(400,348,o),
(409,388,o),
(393,413,cs),
(385,427,o),
(370,435,o),
(355,440,c),
(355,445,o),
(352,449,o),
(348,451,cs),
(340,454,o),
(319,456,o),
(311,453,cs),
(298,448,o),
(289,433,o),
(282,421,cs),
(272,404,o),
(264,383,o),
(268,364,cs),
(271,349,o),
(283,335,o),
(296,326,cs),
(321,308,o),
(354,310,o),
(378,329,cs)
);
},
{
closed = 1;
nodes = (
(304,381,o),
(304,389,o),
(305,397,cs),
(305,409,o),
(309,422,o),
(317,431,c),
(318,427,o),
(319,423,o),
(321,421,cs),
(327,416,o),
(353,399,o),
(357,392,cs),
(360,386,o),
(355,373,o),
(351,368,cs),
(340,355,o),
(319,361,o),
(309,375,cs)
);
},
{
closed = 1;
nodes = (
(431,115,o),
(455,164,o),
(439,197,cs),
(433,210,o),
(417,218,o),
(402,220,c),
(397,232,o),
(381,224,o),
(371,217,cs),
(359,209,o),
(353,195,o),
(347,182,cs),
(342,170,o),
(338,156,o),
(340,142,cs),
(345,118,o),
(372,104,o),
(396,109,cs)
);
},
{
closed = 1;
nodes = (
(377,153,o),
(377,156,o),
(376,158,c),
(374,169,o),
(378,181,o),
(380,192,c),
(391,192,o),
(404,190,o),
(405,180,cs),
(406,162,o),
(393,142,o),
(379,152,cs)
);
}
);
width = 672;
}
);
note = B;
unicode = 66;
},
{
glyphname = C;
layers = (
{
layerId = m01;
shapes = (
{
closed = 1;
nodes = (
(456,39,o),
(511,63,o),
(554,99,cs),
(582,122,o),
(605,152,o),
(620,185,cs),
(631,209,o),
(634,241,o),
(623,265,cs),
(611,294,o),
(586,317,o),
(559,330,cs),
(537,340,o),
(511,343,o),
(486,342,cs),
(472,342,o),
(393,337,o),
(378,337,c),
(375,338,o),
(364,338,o),
(361,340,cs),
(358,342,o),
(361,349,o),
(361,352,c),
(364,366,o),
(375,383,o),
(389,386,cs),
(399,388,o),
(462,393,o),
(473,395,cs),
(512,403,o),
(553,414,o),
(587,436,cs),
(618,455,o),
(636,484,o),
(638,519,cs),
(638,522,o),
(631,522,o),
(631,525,cs),
(631,542,o),
(629,561,o),
(619,574,cs),
(609,587,o),
(597,597,o),
(584,607,cs),
(541,638,o),
(487,653,o),
(435,660,cs),
(356,671,o),
(275,666,o),
(197,653,c),
(198,656,o),
(200,661,o),
(197,660,cs),
(158,651,o),
(120,633,o),
(91,606,cs),
(72,589,o),
(59,564,o),
(53,539,cs),
(36,480,o),
(34,417,o),
(34,356,cs),
(34,304,o),
(41,250,o),
(63,203,cs),
(81,162,o),
(112,126,o),
(147,98,cs),
(190,62,o),
(242,36,o),
(297,25,cs),
(331,19,o),
(367,20,o),
(401,27,cs)
);
},
{
closed = 1;
nodes = (
(219,104,o),
(160,150,o),
(117,201,cs),
(86,239,o),
(75,291,o),
(67,340,cs),
(58,398,o),
(61,458,o),
(71,515,cs),
(75,536,o),
(80,557,o),
(91,575,cs),
(105,595,o),
(127,611,o),
(149,622,cs),
(152,623,o),
(155,621,o),
(158,622,cs),
(162,623,o),
(165,626,o),
(169,626,c),
(235,639,o),
(302,641,o),
(369,637,cs),
(443,633,o),
(520,610,o),
(579,564,cs),
(583,561,o),
(588,557,o),
(592,553,cs),
(598,546,o),
(600,537,o),
(602,528,c),
(599,528,o),
(597,530,o),
(597,528,cs),
(595,517,o),
(590,507,o),
(582,499,cs),
(575,492,o),
(566,487,o),
(557,481,cs),
(520,460,o),
(476,449,o),
(434,437,cs),
(417,432,o),
(399,431,o),
(383,424,cs),
(370,419,o),
(357,411,o),
(348,400,cs),
(322,370,o),
(312,321,o),
(349,307,cs),
(369,299,o),
(454,306,o),
(476,306,cs),
(491,306,o),
(506,306,o),
(521,303,cs),
(549,296,o),
(583,268,o),
(584,239,cs),
(584,220,o),
(574,200,o),
(562,184,cs),
(537,149,o),
(498,123,o),
(458,108,cs),
(431,97,o),
(402,87,o),
(373,83,cs),
(344,80,o),
(313,84,o),
(284,90,cs)
);
}
);
width = 668;
}
);
note = C;
unicode = (67,199);
},
{
glyphname = D;
layers = (
{
layerId = m01;
shapes = (
{
closed = 1;
nodes = (
(397,41,o),
(438,67,o),
(478,97,cs),
(533,137,o),
(583,184,o),
(624,239,cs),
(659,287,o),
(671,351,o),
(672,411,cs),
(672,449,o),
(666,489,o),
(650,524,cs),
(626,577,o),
(575,622,o),
(520,642,cs),
(484,655,o),
(446,660,o),
(408,667,cs),
(395,670,o),
(385,656,o),
(390,643,c),
(382,645,o),
(341,646,o),
(332,646,cs),
(274,647,o),
(215,640,o),
(158,631,cs),
(133,628,o),
(109,624,o),
(85,616,cs),
(75,613,o),
(64,608,o),
(55,602,cs),
(40,591,o),
(32,571,o),
(29,553,cs),
(24,524,o),
(28,493,o),
(35,464,cs),
(49,395,o),
(81,331,o),
(95,262,cs),
(105,213,o),
(103,162,o),
(103,112,cs),
(103,89,o),
(103,65,o),
(111,44,cs),
(116,29,o),
(127,16,o),
(140,8,cs),
(161,-4,o),
(186,-9,o),
(209,-11,cs),
(258,-16,o),
(309,-3,o),
(352,19,cs)
);
},
{
closed = 1;
nodes = (
(202,44,o),
(171,50,o),
(165,62,cs),
(156,78,o),
(158,144,o),
(158,162,cs),
(157,189,o),
(157,217,o),
(152,245,cs),
(146,279,o),
(131,311,o),
(117,343,cs),
(96,388,o),
(82,435,o),
(69,483,cs),
(64,505,o),
(56,557,o),
(71,574,cs),
(86,591,o),
(153,602,o),
(175,605,cs),
(227,613,o),
(280,618,o),
(332,620,cs),
(378,621,o),
(425,620,o),
(470,609,cs),
(481,606,o),
(525,585,o),
(535,579,cs),
(644,513,o),
(643,365,o),
(574,257,cs),
(540,204,o),
(490,162,o),
(439,125,cs),
(394,93,o),
(346,62,o),
(293,48,cs),
(268,41,o),
(241,39,o),
(216,42,cs)
);
},
{
closed = 1;
nodes = (
(405,275,o),
(417,294,o),
(420,314,cs),
(424,344,o),
(398,367,o),
(368,371,cs),
(351,373,o),
(337,369,o),
(325,356,c),
(319,351,o),
(310,347,o),
(308,339,cs),
(299,313,o),
(304,263,o),
(324,244,cs),
(344,226,o),
(373,240,o),
(392,260,cs)
);
},
{
closed = 1;
nodes = (
(334,272,o),
(331,302,o),
(330,314,cs),
(330,317,o),
(329,327,o),
(330,329,cs),
(331,332,o),
(338,335,o),
(340,336,cs),
(344,338,o),
(346,343,o),
(346,347,c),
(356,352,o),
(371,348,o),
(381,342,cs),
(387,339,o),
(392,334,o),
(394,327,cs),
(396,321,o),
(393,313,o),
(390,306,cs),
(383,291,o),
(371,276,o),
(356,268,cs),
(353,266,o),
(346,263,o),
(343,265,cs)
);
}
);
width = 697;
}
);
note = D;
unicode = 68;
},
{
glyphname = E;
kernRight = E;
lastChange = "2023-03-06 21:06:57 +0000";
layers = (
{
layerId = m01;
shapes = (
{
closed = 1;
nodes = (
(509,12,o),
(554,38,o),
(591,72,cs),
(610,89,o),
(630,109,o),
(637,134,cs),
(640,147,o),
(638,162,o),
(630,172,cs),
(622,184,o),
(610,192,o),
(599,199,cs),
(563,219,o),
(524,233,o),
(488,250,cs),
(481,253,o),
(472,258,o),
(474,264,cs),
(482,293,o),
(506,317,o),
(509,346,cs),
(511,358,o),
(501,370,o),
(491,377,cs),
(483,382,o),
(431,398,o),
(423,403,cs),
(417,408,l),
(417,411,o),
(420,416,o),
(421,417,c),
(436,441,o),
(539,531,o),
(558,552,cs),
(567,561,o),
(575,571,o),
(579,583,cs),
(591,612,o),
(569,643,o),
(537,642,cs),
(531,642,o),
(496,639,o),
(490,638,cs),
(488,638,o),
(485,637,o),
(482,638,cs),
(461,646,o),
(370,640,o),
(347,639,cs),
(299,637,o),
(251,635,o),
(204,626,cs),
(166,618,o),
(125,605,o),
(98,577,cs),
(68,546,o),
(54,500,o),
(47,458,cs),
(35,386,o),
(36,311,o),
(44,238,cs),
(50,185,o),
(60,131,o),
(80,81,cs),
(95,44,o),
(116,6,o),
(148,-18,cs),
(170,-35,o),
(199,-43,o),
(226,-48,cs),
(305,-60,o),
(391,-42,o),
(463,-9,cs)
);
},
{
closed = 1;
nodes = (
(205,11,o),
(190,16,o),
(177,25,cs),
(169,31,o),
(162,39,o),
(156,48,cs),
(104,121,o),
(85,215,o),
(79,304,cs),
(76,360,o),
(73,417,o),
(82,473,cs),
(88,503,o),
(98,535,o),
(119,557,cs),
(144,584,o),
(183,596,o),
(220,603,cs),
(282,616,o),
(345,620,o),
(409,623,cs),
(423,624,o),
(438,624,o),
(453,623,cs),
(459,623,o),
(475,622,o),
(480,618,cs),
(489,609,o),
(506,615,o),
(519,615,cs),
(530,614,o),
(546,611,o),
(546,600,cs),
(547,593,o),
(533,579,o),
(529,574,cs),
(503,546,o),
(475,521,o),
(446,495,cs),
(408,461,o),
(358,414,o),
(396,379,cs),
(417,361,o),
(448,359,o),
(472,345,c),
(462,320,o),
(444,298,o),
(436,272,cs),
(432,258,o),
(436,243,o),
(447,233,cs),
(457,224,o),
(470,218,o),
(483,212,cs),
(516,197,o),
(552,184,o),
(583,164,cs),
(587,161,o),
(598,154,o),
(599,148,cs),
(599,144,o),
(592,136,o),
(590,133,cs),
(565,104,o),
(533,81,o),
(499,63,cs),
(455,39,o),
(407,21,o),
(357,10,cs),
(313,1,o),
(265,0,o),
(220,8,cs)
);
}
);
width = 652;
}
);
note = E;
unicode = (69,200,201,202,203);
},
{
glyphname = F;
kernLeft = F;
lastChange = "2023-03-06 21:06:57 +0000";
layers = (
{
layerId = m01;
shapes = (
{
closed = 1;
nodes = (
(273,3,o),
(303,31,o),
(325,63,cs),
(347,95,o),
(365,130,o),
(381,166,cs),
(384,172,o),
(395,194,o),
(400,198,cs),
(406,202,o),
(432,206,o),
(439,207,cs),
(474,212,o),
(509,218,o),
(540,233,cs),
(554,240,o),
(569,249,o),
(578,262,cs),
(586,274,o),
(586,290,o),
(577,303,cs),
(555,334,o),
(522,355,o),
(491,377,cs),
(488,379,o),
(493,382,o),
(496,384,c),
(519,407,o),
(544,426,o),
(566,449,cs),
(584,467,o),
(599,488,o),
(612,510,cs),
(621,527,o),
(630,544,o),
(634,563,cs),
(635,572,o),
(633,590,o),
(626,595,cs),
(624,597,o),
(624,600,o),
(622,602,cs),
(619,604,o),
(615,604,o),
(611,605,cs),
(561,613,ls),
(526,619,o),
(491,622,o),
(456,625,cs),
(381,631,o),
(306,632,o),
(232,620,cs),
(193,613,o),
(154,601,o),
(120,581,cs),
(100,569,o),
(81,552,o),
(68,533,cs),
(51,506,o),
(43,474,o),
(38,443,cs),
(19,311,o),
(53,166,o),
(119,50,cs),
(130,31,o),
(142,12,o),
(158,-2,cs),
(168,-11,o),
(180,-18,o),
(193,-20,cs),
(208,-23,o),
(224,-20,o),
(238,-13,cs)
);
},
{
closed = 1;
nodes = (
(192,34,o),
(173,60,o),
(167,69,cs),
(99,180,o),
(68,321,o),
(80,451,cs),
(82,475,o),
(87,499,o),
(99,519,cs),
(112,540,o),
(133,555,o),
(155,566,cs),
(177,577,o),
(202,584,o),
(226,589,cs),
(328,613,o),
(437,610,o),
(541,597,cs),
(562,594,o),
(583,590,o),
(605,587,c),
(603,576,o),
(598,566,o),
(593,557,cs),
(575,516,o),
(546,480,o),
(513,450,cs),
(481,421,o),
(432,387,o),
(461,355,cs),
(469,347,o),
(479,342,o),
(487,335,cs),
(506,320,o),
(525,305,o),
(538,285,c),
(505,265,o),
(468,255,o),
(431,247,cs),
(424,245,o),
(393,238,o),
(387,235,cs),
(367,227,o),
(355,204,o),
(345,185,cs),
(318,135,o),
(290,80,o),
(243,47,cs),
(234,40,o),
(212,26,o),
(202,30,cs)
);
}
);
width = 648;
}
);
note = F;
unicode = 70;
},
{
glyphname = G;
kernRight = G;
layers = (
{
layerId = m01;
shapes = (
{
closed = 1;
nodes = (
(373,28,o),
(399,41,o),
(425,55,cs),
(453,71,o),
(482,87,o),
(513,91,cs),
(547,95,o),
(581,86,o),
(615,90,cs),
(703,100,o),
(682,218,o),
(627,287,cs),
(602,318,o),
(570,344,o),
(537,369,cs),
(514,387,o),
(487,403,o),
(459,411,cs),
(434,419,o),
(405,418,o),
(381,408,cs),
(363,401,o),
(346,389,o),
(336,372,cs),
(327,359,o),
(324,342,o),
(324,326,cs),
(323,303,o),
(328,280,o),
(332,258,c),
(314,257,o),
(270,268,o),
(258,282,cs),
(234,309,o),
(264,358,o),
(286,387,cs),
(329,442,o),
(392,476,o),
(445,521,cs),
(464,537,o),
(481,561,o),
(483,586,cs),
(483,594,o),
(480,627,o),
(477,634,c),
(490,634,o),
(493,651,o),
(481,653,cs),
(469,656,o),
(458,662,o),
(447,666,cs),
(423,677,o),
(398,686,o),
(372,689,cs),
(323,694,o),
(272,682,o),
(226,667,cs),
(187,654,o),
(148,635,o),
(121,605,cs),
(89,569,o),
(72,521,o),
(58,475,cs),
(35,400,o),
(26,318,o),
(39,240,cs),
(47,186,o),
(68,132,o),
(97,86,cs),
(111,63,o),
(129,41,o),
(152,26,cs),
(173,13,o),
(198,7,o),
(222,5,cs),
(263,3,o),
(306,7,o),
(346,20,cs)
);
},
{
closed = 1;
nodes = (
(153,68,o),
(140,86,o),
(129,104,cs),
(101,151,o),
(82,205,o),
(75,259,cs),
(68,309,o),
(72,360,o),
(81,409,cs),
(89,453,o),
(100,497,o),
(118,538,cs),
(128,560,o),
(142,582,o),
(161,599,cs),
(180,615,o),
(202,627,o),
(225,636,cs),
(253,648,o),
(281,657,o),
(311,663,cs),
(350,670,o),
(392,665,o),
(428,651,c),
(424,643,o),
(427,634,o),
(435,629,c),
(437,612,o),
(441,594,o),
(435,579,cs),
(427,561,o),
(409,549,o),
(393,537,cs),
(346,500,o),
(297,465,o),
(261,417,cs),
(223,368,o),
(190,292,o),
(236,251,cs),
(258,232,o),
(288,225,o),
(317,221,cs),
(331,219,o),
(348,218,o),
(360,226,cs),
(368,232,o),
(371,244,o),
(371,254,cs),
(370,280,o),
(358,306,o),
(360,333,cs),
(362,366,o),
(396,383,o),
(429,380,cs),
(446,379,o),
(463,372,o),
(477,363,c),
(517,342,o),
(553,314,o),
(583,281,cs),
(611,250,o),
(630,212,o),
(635,171,cs),
(637,159,o),
(636,145,o),
(629,136,cs),
(616,120,o),
(563,127,o),
(542,126,cs),
(515,125,o),
(487,120,o),
(462,110,cs),
(435,98,o),
(411,81,o),
(384,69,cs),
(343,50,o),
(297,41,o),
(253,39,cs),
(225,38,o),
(194,41,o),
(171,56,cs)
);
}
);
width = 687;
}
);
note = G;
unicode = 71;
},
{
glyphname = H;
kernRight = H;
layers = (
{
layerId = m01;
shapes = (
{
closed = 1;
nodes = (
(665,8,o),
(684,20,o),
(697,35,cs),
(715,58,o),
(723,88,o),
(731,116,cs),
(767,245,o),
(768,389,o),
(735,519,cs),
(723,566,o),
(709,613,o),
(686,654,cs),
(672,679,o),
(652,704,o),
(625,714,cs),
(599,725,o),
(568,724,o),
(542,715,cs),
(519,708,o),
(498,695,o),
(477,684,cs),
(463,677,o),
(468,658,o),
(483,656,c),
(474,646,o),
(426,599,o),
(416,591,c),
(414,590,o),
(409,586,o),
(407,586,cs),
(402,586,o),
(393,595,o),
(389,598,cs),
(367,616,o),
(346,636,o),
(321,651,cs),
(288,670,o),
(248,685,o),
(210,685,cs),
(173,684,o),
(134,669,o),
(106,645,cs),
(88,629,o),
(76,606,o),
(68,583,cs),
(40,502,o),
(35,412,o),
(41,326,cs),
(46,261,o),
(55,194,o),
(78,132,cs),
(93,93,o),
(115,52,o),
(150,28,cs),
(176,11,o),
(203,5,o),
(233,10,cs),
(253,13,o),
(272,23,o),
(288,35,cs),
(321,61,o),
(345,97,o),
(374,129,cs),
(377,132,o),
(388,142,o),
(393,144,c),
(394,144,o),
(398,141,o),
(400,140,cs),
(425,125,o),
(445,102,o),
(467,84,cs),
(499,57,o),
(534,35,o),
(572,19,cs),
(595,10,o),
(620,2,o),
(645,5,cs)
);
},
{
closed = 1;
nodes = (
(495,123,o),
(472,146,o),
(449,167,cs),
(435,179,o),
(420,190,o),
(403,194,cs),
(391,197,o),
(379,196,o),
(368,191,cs),
(357,187,o),
(347,180,o),
(339,172,cs),
(308,146,o),
(287,109,o),
(254,86,c),
(246,79,o),
(236,74,o),
(225,73,cs),
(210,71,o),
(193,77,o),
(181,87,cs),
(168,98,o),
(158,114,o),
(151,129,cs),
(125,182,o),
(113,240,o),
(105,298,cs),
(99,337,o),
(93,375,o),
(91,413,cs),
(90,457,o),
(93,500,o),
(100,543,cs),
(104,568,o),
(110,594,o),
(126,614,cs),
(143,635,o),
(173,649,o),
(201,651,cs),
(237,654,o),
(275,646,o),
(307,628,cs),
(332,613,o),
(354,592,o),
(377,574,cs),
(383,569,o),
(390,564,o),
(397,561,cs),
(406,558,o),
(418,561,o),
(426,567,cs),
(445,580,o),
(518,662,o),
(539,671,cs),
(550,676,o),
(562,673,o),
(574,674,cs),
(582,675,o),
(592,669,o),
(597,675,c),
(598,675,o),
(598,676,o),
(599,676,cs),
(609,674,o),
(618,669,o),
(625,662,cs),
(639,648,o),
(649,630,o),
(657,612,cs),
(682,557,o),
(695,496,o),
(703,436,cs),
(716,341,o),
(713,243,o),
(692,150,cs),
(684,116,o),
(672,54,o),
(638,50,cs),
(610,47,o),
(543,86,o),
(520,103,cs)
);
}
);
width = 798;
}
);
note = H;
unicode = 72;
},
{
glyphname = I;
kernLeft = I;
kernRight = I;
layers = (
{
layerId = m01;
shapes = (
{
closed = 1;
nodes = (
(526,36,o),
(546,43,o),
(564,55,cs),
(577,63,o),
(588,75,o),
(593,89,cs),
(601,108,o),
(600,131,o),
(596,151,cs),
(587,193,o),
(571,235,o),
(554,275,cs),
(536,316,o),
(515,354,o),
(499,396,cs),
(482,441,o),
(495,492,o),
(499,540,cs),
(502,572,o),
(505,608,o),
(489,636,cs),
(479,653,o),
(460,663,o),
(443,674,c),
(442,678,o),
(440,682,o),
(436,684,cs),
(428,687,o),
(390,694,o),
(381,695,cs),
(341,700,o),
(300,698,o),
(260,695,cs),
(220,691,o),
(104,679,o),
(76,650,cs),
(54,628,o),
(69,576,o),
(82,548,cs),
(93,526,o),
(108,507,o),
(125,491,cs),
(129,487,o),
(133,484,o),
(135,480,cs),
(139,473,o),
(135,447,o),
(134,439,cs),
(124,374,o),
(103,310,o),
(75,250,cs),
(68,237,o),
(62,224,o),
(54,212,cs),
(45,198,o),
(33,185,o),
(28,169,cs),
(19,135,o),
(38,70,o),
(64,46,cs),
(102,12,o),
(250,-4,o),
(302,-4,cs),
(370,-5,o),
(440,9,o),
(506,29,cs)
);
},
{
closed = 1;
nodes = (
(126,63,o),
(106,66,o),
(91,77,cs),
(79,86,o),
(65,124,o),
(62,139,cs),
(60,148,o),
(60,160,o),
(65,168,cs),
(71,181,o),
(81,191,o),
(87,204,cs),
(108,242,o),
(124,282,o),
(138,323,cs),
(150,358,o),
(181,462,o),
(167,496,cs),
(162,509,o),
(151,519,o),
(142,530,cs),
(131,546,o),
(122,563,o),
(116,581,cs),
(114,588,o),
(107,616,o),
(107,623,cs),
(107,626,o),
(112,628,o),
(114,629,cs),
(125,636,o),
(179,650,o),
(192,652,cs),
(257,666,o),
(324,675,o),
(391,671,cs),
(397,670,o),
(404,669,o),
(411,667,c),
(413,663,o),
(429,651,o),
(432,647,cs),
(441,638,o),
(450,628,o),
(456,617,cs),
(462,604,o),
(462,589,o),
(461,575,cs),
(459,526,o),
(448,478,o),
(454,430,cs),
(461,383,o),
(484,340,o),
(503,296,cs),
(524,250,o),
(544,203,o),
(554,153,cs),
(558,136,o),
(562,115,o),
(551,101,cs),
(541,88,o),
(493,74,o),
(477,69,cs),
(434,58,o),
(391,50,o),
(347,46,cs),
(279,40,o),
(211,47,o),
(144,60,cs)
);
}
);
width = 618;
}
);
note = I;
unicode = (73,204,205,206,207);
},
{
glyphname = J;
lastChange = "2023-03-06 21:06:57 +0000";
layers = (
{
layerId = m01;
shapes = (
{
closed = 1;
nodes = (
(468,23,o),
(492,32,o),
(515,44,cs),
(534,54,o),
(553,65,o),
(567,81,cs),
(588,105,o),
(597,139,o),
(603,171,cs),
(615,230,o),
(620,291,o),
(619,352,cs),
(618,377,o),
(613,513,o),
(611,538,cs),
(607,572,o),
(595,608,o),
(573,635,cs),
(561,649,o),
(522,683,o),
(505,686,cs),
(492,688,o),
(485,674,o),
(492,664,c),
(426,672,o),
(357,663,o),
(292,646,cs),
(264,639,o),
(235,627,o),
(216,606,cs),
(198,584,o),
(191,553,o),
(189,525,cs),
(186,482,o),
(191,438,o),
(200,396,cs),
(206,366,o),
(215,336,o),
(222,305,c),
(223,303,o),
(223,302,o),
(220,301,cs),
(180,281,o),
(132,284,o),
(88,280,cs),
(68,279,o),
(47,276,o),
(32,264,cs),
(19,255,o),
(12,237,o),
(12,222,cs),
(12,198,o),
(20,175,o),
(27,152,cs),
(33,131,o),
(44,110,o),
(61,97,cs),
(77,84,o),
(97,77,o),
(116,70,cs),
(192,43,o),
(271,26,o),
(350,17,cs),
(380,13,o),
(412,12,o),
(442,18,cs)
);
},
{
closed = 1;
nodes = (
(302,60,o),
(124,94,o),
(83,127,cs),
(74,133,o),
(69,144,o),
(65,154,cs),
(60,168,o),
(56,182,o),
(52,196,cs),
(50,205,o),
(46,226,o),
(52,233,cs),
(60,243,o),
(95,245,o),
(108,246,cs),
(136,248,o),
(165,248,o),
(193,254,cs),
(214,258,o),
(254,269,o),
(259,290,cs),
(263,306,o),
(255,323,o),
(251,339,cs),
(236,397,o),
(221,457,o),
(222,518,cs),
(222,537,o),
(224,557,o),
(233,574,cs),
(241,590,o),
(257,601,o),
(273,609,cs),
(302,622,o),
(335,630,o),
(367,636,cs),
(408,644,o),
(450,649,o),
(492,644,cs),
(499,643,o),
(518,641,o),
(522,635,cs),
(534,618,o),
(548,602,o),
(557,583,cs),
(565,565,o),
(569,545,o),
(571,526,cs),
(577,432,ls),
(583,341,o),
(584,248,o),
(564,159,cs),
(561,145,o),
(557,130,o),
(550,117,cs),
(540,98,o),
(519,84,o),
(500,74,cs),
(476,62,o),
(450,54,o),
(423,50,cs),
(400,48,o),
(377,50,o),
(355,53,cs)
);
}
);
width = 663;
}
);
note = J;
unicode = 74;
},
{
glyphname = K;
kernRight = K;
layers = (
{
layerId = m01;
shapes = (
{
closed = 1;
nodes = (
(382,100,o),
(393,108,o),
(397,108,cs),
(404,107,o),
(417,92,o),
(422,88,cs),
(470,42,o),
(533,10,o),
(597,-2,cs),
(623,-8,o),
(651,-9,o),
(676,0,cs),
(691,5,o),
(705,17,o),
(712,31,cs),
(721,50,o),
(722,72,o),
(719,93,cs),
(716,121,o),
(701,147,o),
(682,168,cs),
(655,199,o),
(619,224,o),
(603,262,cs),
(595,281,o),
(593,303,o),
(598,323,cs),
(602,344,o),
(615,362,o),
(628,379,cs),
(667,429,o),
(715,473,o),
(741,531,cs),
(750,550,o),
(757,573,o),
(754,595,cs),
(752,609,o),
(746,622,o),
(737,632,cs),
(724,647,o),
(705,657,o),
(686,663,cs),
(654,673,o),
(618,672,o),
(585,664,cs),
(534,652,o),
(486,628,o),
(436,612,cs),
(429,610,o),
(401,603,o),
(394,604,cs),
(382,606,o),
(373,593,o),
(380,583,cs),
(389,569,o),
(422,572,o),
(439,575,cs),
(496,588,o),
(548,620,o),
(606,631,cs),
(640,638,o),
(697,634,o),
(713,602,cs),
(726,576,o),
(694,528,o),
(677,505,cs),
(653,473,o),
(625,444,o),
(601,412,cs),
(582,388,o),
(564,361,o),
(558,332,cs),
(550,294,o),
(561,250,o),
(584,219,cs),
(611,184,o),
(651,160,o),
(674,122,cs),
(687,100,o),
(695,58,o),
(678,39,cs),
(670,31,o),
(658,29,o),
(647,28,cs),
(618,25,o),
(589,31,o),
(561,41,cs),
(522,54,o),
(484,73,o),
(452,100,cs),
(448,104,o),
(423,127,o),
(418,130,cs),
(410,135,o),
(400,139,o),
(391,137,cs),
(383,135,o),
(376,131,o),
(370,127,cs),
(342,112,o),
(241,27,o),
(210,22,cs),
(200,20,o),
(190,25,o),
(181,29,cs),
(153,42,o),
(126,61,o),
(107,86,cs),
(84,118,o),
(75,159,o),
(69,199,cs),
(61,252,o),
(59,308,o),
(62,362,cs),
(65,419,o),
(74,479,o),
(98,531,cs),
(117,569,o),
(145,603,o),
(177,631,cs),
(189,643,o),
(202,654,o),
(216,662,cs),
(225,668,o),
(235,674,o),
(245,674,cs),
(259,675,o),
(272,667,o),
(284,659,cs),
(301,648,o),
(318,636,o),
(335,624,cs),
(345,618,o),
(369,599,o),
(381,601,cs),
(391,604,o),
(393,619,o),
(383,623,c),
(382,623,o),
(376,624,o),
(375,625,c),
(369,627,o),
(343,646,o),
(337,650,cs),
(321,662,o),
(305,674,o),
(288,684,cs),
(272,692,o),
(253,699,o),
(236,695,cs),
(213,690,o),
(193,674,o),
(175,658,cs),
(134,624,o),
(98,582,o),
(76,533,cs),
(51,481,o),
(42,421,o),
(39,363,cs),
(37,308,o),
(38,252,o),
(44,197,cs),
(49,157,o),
(59,115,o),
(80,80,cs),
(101,46,o),
(134,19,o),
(169,1,cs),
(181,-5,o),
(194,-10,o),
(207,-10,cs),
(248,-9,o),
(346,73,o),
(379,97,c)
);
}
);
width = 777;
}
);
note = K;
unicode = 75;
},
{
glyphname = L;
layers = (
{
layerId = m01;
shapes = (
{
closed = 1;
nodes = (
(368,56,o),
(427,78,o),
(483,105,cs),
(507,117,o),
(531,130,o),
(549,150,cs),
(566,170,o),
(575,204,o),
(564,228,cs),
(558,242,o),
(544,252,o),
(530,258,cs),
(507,270,o),
(481,276,o),
(461,293,cs),
(425,323,o),
(444,432,o),
(448,479,cs),
(450,507,o),
(452,535,o),
(452,563,cs),
(451,585,o),
(448,609,o),
(435,628,cs),
(424,644,o),
(406,656,o),
(389,666,cs),
(347,691,o),
(299,709,o),
(250,710,cs),
(229,711,o),
(208,709,o),
(187,705,cs),
(168,702,o),
(95,687,o),
(79,677,cs),
(73,673,o),
(67,666,o),
(67,659,cs),
(67,652,o),
(74,648,o),
(81,650,cs),
(85,652,o),
(87,657,o),
(90,659,cs),
(96,663,o),
(124,669,o),
(131,671,cs),
(173,680,o),
(216,689,o),
(259,684,cs),
(305,679,o),
(350,660,o),
(388,633,cs),
(397,627,o),
(405,620,o),
(411,611,cs),
(417,602,o),
(419,591,o),
(420,581,cs),
(424,504,o),
(402,427,o),
(401,350,cs),
(401,332,o),
(403,312,o),
(410,295,cs),
(415,282,o),
(423,270,o),
(434,261,cs),
(444,252,o),
(457,245,o),
(470,239,cs),
(478,235,o),
(519,220,o),
(526,213,cs),
(533,207,o),
(531,192,o),
(527,183,cs),
(521,171,o),
(510,162,o),
(499,154,cs),
(477,139,o),
(451,129,o),
(426,119,cs),
(389,104,o),
(351,91,o),
(313,79,cs),
(281,69,o),
(195,44,o),
(165,59,cs),
(125,80,o),
(107,179,o),
(101,223,cs),
(95,279,o),
(100,336,o),
(104,393,cs),
(107,434,o),
(104,587,o),
(89,625,cs),
(84,637,o),
(75,650,o),
(63,655,cs),
(48,660,o),
(36,643,o),
(47,632,cs),
(48,631,o),
(50,629,o),
(50,628,cs),
(67,556,o),
(59,480,o),
(53,407,cs),
(46,322,o),
(49,234,o),
(69,150,cs),
(79,106,o),
(98,60,o),
(133,31,cs),
(149,18,o),
(171,14,o),
(192,14,cs),
(231,13,o),
(270,25,o),
(308,37,cs)
);
}
);
width = 578;
}
);
note = L;
unicode = 76;
},
{
glyphname = M;
kernLeft = M;
kernRight = M;
lastChange = "2023-03-06 21:06:57 +0000";
layers = (
{
layerId = m01;
shapes = (
{
closed = 1;
nodes = (
(231,6,o),
(242,25,o),
(251,41,cs),
(260,58,o),
(291,126,o),
(307,137,cs),
(319,146,o),
(332,129,o),
(341,118,cs),
(361,96,o),
(381,74,o),
(405,57,cs),
(421,45,o),
(441,35,o),
(461,35,cs),
(476,35,o),
(492,41,o),
(504,50,cs),
(519,62,o),
(530,77,o),
(541,92,cs),
(558,116,o),
(576,140,o),
(597,161,c),
(614,131,o),
(633,103,o),
(654,77,cs),
(672,56,o),
(690,35,o),
(711,18,cs),
(723,7,o),
(744,6,o),
(755,17,cs),
(768,31,o),
(788,94,o),
(793,113,cs),
(814,187,o),
(829,263,o),
(833,341,cs),
(836,386,o),
(834,432,o),
(826,476,cs),
(820,506,o),
(809,538,o),
(789,561,cs),
(778,574,o),
(763,585,o),
(747,592,cs),
(732,598,o),
(716,600,o),
(700,599,cs),
(662,597,o),
(624,586,o),
(592,568,cs),
(560,550,o),
(533,524,o),
(506,499,cs),
(495,490,l),
(493,489,o),
(489,493,o),
(486,494,c),
(430,526,o),
(373,558,o),
(312,584,cs),
(288,594,o),
(264,604,o),
(238,607,cs),
(216,611,o),
(194,608,o),
(173,603,cs),
(141,595,o),
(109,585,o),
(82,566,cs),
(68,557,o),
(56,543,o),
(47,528,cs),
(46,526,o),
(44,526,o),
(43,526,c),
(38,524,o),
(33,521,o),
(31,517,cs),
(29,511,o),
(29,504,o),
(29,498,c),
(30,495,o),
(28,492,o),
(28,489,cs),
(28,485,o),
(30,482,o),
(31,479,c),
(40,396,o),
(50,312,o),
(68,230,cs),
(78,183,o),
(90,136,o),
(108,92,cs),
(130,40,o),
(164,-29,o),
(214,-3,cs)
);
},
{
closed = 1;
nodes = (
(157,76,o),
(145,102,o),
(135,128,cs),
(91,239,o),
(72,359,o),
(53,478,cs),
(53,480,o),
(53,480,o),
(54,482,cs),
(65,497,o),
(76,512,o),
(90,523,cs),
(123,549,o),
(165,563,o),
(206,568,cs),
(226,570,o),
(246,565,o),
(265,559,cs),
(285,552,o),
(305,543,o),
(324,534,cs),
(373,511,o),
(421,486,o),
(468,461,cs),
(476,457,o),
(484,453,o),
(493,453,cs),
(497,453,o),
(507,456,o),
(510,458,cs),
(516,462,o),
(542,489,o),
(547,494,cs),
(565,511,o),
(584,527,o),
(605,540,cs),
(633,558,o),
(667,567,o),
(699,568,cs),
(710,569,o),
(720,568,o),
(730,565,cs),
(742,561,o),
(753,553,o),
(762,543,cs),
(781,521,o),
(788,490,o),
(792,461,cs),
(804,371,o),
(789,277,o),
(766,188,cs),
(755,145,o),
(743,102,o),
(728,61,c),
(693,93,o),
(664,133,o),
(638,174,cs),
(635,178,o),
(622,198,o),
(618,202,cs),
(613,207,o),
(606,210,o),
(599,210,cs),
(561,210,o),
(514,129,o),
(491,98,cs),
(484,89,o),
(475,79,o),
(464,75,cs),
(459,73,o),
(445,78,o),
(441,80,cs),
(402,99,o),
(376,138,o),
(342,164,cs),
(330,173,o),
(312,177,o),
(299,172,cs),
(279,165,o),
(266,146,o),
(255,129,cs),
(247,116,o),
(212,50,o),
(201,39,cs),
(200,38,o),
(197,34,o),
(195,34,cs),
(188,33,o),
(178,47,o),
(174,53,cs)
);
}
);
width = 870;
}
);
note = M;
unicode = 77;
},
{
glyphname = N;
kernLeft = N;
kernRight = N;
layers = (
{
layerId = m01;
shapes = (
{
closed = 1;
nodes = (
(295,23,o),
(306,37,o),
(317,51,cs),
(325,62,o),
(366,127,o),
(373,138,cs),
(376,143,o),
(386,160,o),
(391,162,cs),
(396,165,o),
(405,155,o),
(410,152,cs),
(461,114,o),
(505,65,o),
(561,34,cs),
(578,25,o),
(597,18,o),
(616,17,cs),
(641,15,o),
(668,28,o),
(686,46,cs),
(708,69,o),
(721,101,o),
(729,133,cs),
(747,201,o),
(755,271,o),
(762,341,cs),
(765,375,o),
(767,410,o),
(764,444,cs),
(760,483,o),
(749,526,o),
(723,556,cs),
(713,567,o),
(700,576,o),
(686,580,cs),
(674,582,o),
(662,581,o),
(650,578,cs),
(620,569,o),
(591,553,o),
(566,533,cs),
(554,524,o),
(517,489,o),
(502,487,cs),
(493,486,o),
(484,485,o),
(476,487,cs),
(460,490,o),
(445,498,o),
(431,505,cs),
(381,531,o),
(336,564,o),
(287,591,cs),
(264,604,o),
(239,615,o),
(212,618,cs),
(179,622,o),
(145,616,o),
(114,606,cs),
(87,597,o),
(33,573,o),
(28,545,cs),
(28,543,o),
(29,534,o),
(28,533,c),
(22,517,o),
(31,461,o),
(34,444,cs),
(46,355,o),
(63,266,o),
(98,183,cs),
(119,131,o),
(147,80,o),
(188,43,cs),
(202,30,o),
(218,19,o),
(235,13,cs),
(249,8,o),
(266,9,o),
(279,15,cs)
);
},
{
closed = 1;
nodes = (
(164,119,o),
(139,169,o),
(120,218,cs),
(94,284,o),
(77,353,o),
(62,422,cs),
(56,453,o),
(50,484,o),
(46,515,c),
(57,513,o),
(65,519,o),
(67,530,c),
(100,562,o),
(154,576,o),
(200,572,cs),
(218,570,o),
(236,563,o),
(252,554,cs),
(267,546,o),
(353,490,o),
(368,481,cs),
(393,466,o),
(419,451,o),
(447,442,cs),
(464,437,o),
(483,434,o),
(500,438,cs),
(533,447,o),
(557,474,o),
(581,498,cs),
(602,519,o),
(629,537,o),
(658,546,cs),
(665,548,o),
(675,550,o),
(682,547,cs),
(693,542,o),
(701,531,o),
(707,521,cs),
(726,489,o),
(729,448,o),
(729,411,cs),
(728,361,o),
(718,311,o),
(709,262,cs),
(703,232,o),
(698,202,o),
(691,172,cs),
(685,145,o),
(677,119,o),
(663,95,cs),
(657,84,o),
(647,73,o),
(635,68,cs),
(609,56,o),
(559,89,o),
(536,106,cs),
(501,132,o),
(467,159,o),
(430,183,cs),
(421,190,o),
(410,195,o),
(399,199,cs),
(369,208,o),
(342,160,o),
(325,133,cs),
(311,110,o),
(296,86,o),
(280,65,cs),
(274,57,o),
(267,49,o),
(257,47,cs),
(241,45,o),
(213,70,o),
(201,82,cs)
);
}
);
width = 800;
}
);
note = N;
unicode = (78,209);
},
{
glyphname = O;
lastChange = "2023-03-06 21:06:57 +0000";
layers = (
{
layerId = m01;
shapes = (
{
closed = 1;
nodes = (
(409,-31,o),
(447,-10,o),
(473,19,cs),
(514,62,o),
(546,113,o),
(574,165,cs),
(605,223,o),
(632,284,o),
(651,347,cs),
(662,385,o),
(670,428,o),
(660,468,cs),
(648,512,o),
(615,550,o),
(579,578,cs),
(540,609,o),
(494,635,o),
(446,644,cs),
(425,648,o),
(401,646,o),
(380,639,cs),
(376,638,o),
(357,628,o),
(353,628,c),
(310,622,o),
(268,610,o),
(227,595,cs),
(181,577,o),
(135,553,o),
(100,518,cs),
(76,494,o),
(55,465,o),
(45,433,cs),
(31,391,o),
(32,346,o),
(32,302,cs),
(33,261,o),
(34,219,o),
(45,179,cs),
(58,130,o),
(87,85,o),
(121,47,cs),
(147,17,o),
(178,-11,o),
(214,-27,cs),
(262,-48,o),
(319,-47,o),
(370,-38,cs)
);
},
{
closed = 1;
nodes = (
(232,18,o),
(208,35,o),
(187,53,cs),
(159,78,o),
(132,104,o),
(112,135,cs),
(93,165,o),
(83,200,o),
(78,235,cs),
(73,272,o),
(70,310,o),
(70,347,cs),
(70,379,o),
(72,413,o),
(85,442,cs),
(99,472,o),
(121,499,o),
(146,519,cs),
(173,541,o),
(205,558,o),
(238,571,cs),
(273,585,o),
(310,597,o),
(347,604,c),
(350,601,o),
(355,599,o),
(360,600,cs),
(389,609,l),
(412,611,o),
(437,604,o),
(458,594,cs),
(467,589,o),
(478,581,o),
(484,590,c),
(484,591,o),
(486,590,o),
(487,589,c),
(529,569,o),
(570,542,o),
(598,505,cs),
(613,485,o),
(622,459,o),
(622,434,cs),
(622,407,o),
(614,380,o),
(605,354,cs),
(578,270,o),
(537,189,o),
(487,115,cs),
(468,86,o),
(447,57,o),
(420,35,cs),
(407,25,o),
(390,18,o),
(373,14,cs),
(336,6,o),
(296,3,o),
(259,12,cs)
);
},
{
closed = 1;
nodes = (
(351,199,o),
(376,219,o),
(387,242,cs),
(397,264,o),
(395,292,o),
(384,314,cs),
(377,330,o),
(361,361,o),
(343,361,cs),
(338,361,o),
(332,356,o),
(331,350,c),
(325,352,o),
(308,346,o),
(303,342,cs),
(280,326,o),
(266,271,o),
(269,243,cs),
(271,213,o),
(296,192,o),
(325,196,cs)
);
},
{
closed = 1;
nodes = (
(290,256,o),
(298,298,o),
(306,313,cs),
(309,319,o),
(314,325,o),
(320,327,cs),
(324,329,o),
(335,332,o),
(337,337,c),
(338,338,o),
(339,337,o),
(340,335,cs),
(352,316,o),
(366,294,o),
(365,271,cs),
(364,261,o),
(361,252,o),
(354,244,cs),
(337,225,o),
(305,215,o),
(296,239,cs)
);
}
);
width = 686;
}
);
note = O;
unicode = (79,210,211,212,213,214,216);
},
{
glyphname = P;
lastChange = "2023-03-06 21:06:57 +0000";
layers = (
{
layerId = m01;
shapes = (
{
closed = 1;
nodes = (
(355,23,o),
(373,49,o),
(386,76,cs),
(404,112,o),
(414,152,o),
(430,189,cs),
(434,200,o),
(440,211,o),
(448,218,cs),
(459,226,o),
(521,252,o),
(533,259,cs),
(554,269,o),
(575,279,o),
(593,293,cs),
(616,310,o),
(636,332,o),
(648,358,cs),
(659,382,o),
(663,410,o),
(661,436,cs),
(659,465,o),
(648,494,o),
(634,519,cs),
(596,586,o),
(532,641,o),
(461,671,cs),
(421,688,o),
(377,697,o),
(333,702,cs),
(286,708,o),
(239,712,o),
(192,707,cs),
(160,704,o),
(127,698,o),
(99,683,cs),
(77,672,o),
(54,656,o),
(43,634,cs),
(37,624,o),
(35,603,o),
(44,594,c),
(35,594,o),
(29,586,o),
(30,577,cs),
(32,551,o),
(53,397,o),
(57,371,cs),
(71,276,o),
(91,179,o),
(135,93,cs),
(152,62,o),
(171,31,o),
(197,8,cs),
(213,-6,o),
(234,-16,o),
(256,-18,cs),
(282,-20,o),
(310,-11,o),
(332,5,cs)
);
},
{
closed = 1;
nodes = (
(228,39,o),
(215,54,o),
(204,69,cs),
(166,122,o),
(142,186,o),
(125,249,cs),
(114,292,o),
(105,335,o),
(96,378,cs),
(92,402,o),
(66,545,o),
(60,569,c),
(64,574,o),
(65,581,o),
(60,586,cs),
(58,588,o),
(52,590,o),
(54,590,cs),
(61,590,o),
(68,595,o),
(69,602,cs),
(69,603,o),
(69,608,o),
(70,609,c),
(72,613,o),
(83,619,o),
(87,621,cs),
(125,640,o),
(169,649,o),
(212,650,cs),
(276,651,o),
(342,646,o),
(404,630,cs),
(429,623,o),
(454,615,o),
(476,602,cs),
(502,587,o),
(525,569,o),
(547,549,cs),
(576,522,o),
(601,487,o),
(610,449,cs),
(615,424,o),
(612,395,o),
(601,372,cs),
(591,351,o),
(573,335,o),
(554,322,cs),
(522,300,o),
(487,283,o),
(453,264,cs),
(442,258,o),
(430,251,o),
(421,241,cs),
(409,229,o),
(401,213,o),
(395,197,cs),
(379,155,o),
(366,112,o),
(342,74,cs),
(321,42,o),
(278,13,o),
(244,30,cs)
);
},
{
closed = 1;
nodes = (
(373,353,o),
(379,363,o),
(383,372,cs),
(392,391,o),
(397,414,o),
(394,434,cs),
(391,449,o),
(383,464,o),
(372,474,cs),
(364,482,o),
(352,487,o),
(342,486,c),
(340,490,o),
(336,494,o),
(332,495,cs),
(323,497,o),
(311,499,o),
(303,493,cs),
(287,483,o),
(279,440,o),
(278,421,cs),
(277,408,o),
(278,394,o),
(282,382,cs),
(296,345,o),
(337,320,o),
(366,346,cs)
);
},
{
closed = 1;
nodes = (
(298,382,o),
(298,431,o),
(310,467,c),
(312,470,o),
(313,475,o),
(317,475,cs),
(321,474,o),
(327,475,o),
(327,471,cs),
(328,466,o),
(333,463,o),
(338,463,cs),
(346,464,ls),
(350,464,o),
(355,457,o),
(357,454,cs),
(363,446,o),
(368,435,o),
(368,425,cs),
(369,411,o),
(365,398,o),
(359,385,cs),
(353,373,o),
(344,360,o),
(332,366,cs)
);
}
);
width = 678;
}
);
note = P;
unicode = 80;
},
{
glyphname = Q;
lastChange = "2023-03-06 21:06:57 +0000";
layers = (
{
layerId = m01;
shapes = (
{
closed = 1;
nodes = (
(378,-12,o),
(410,17,o),
(450,31,cs),
(467,37,o),
(487,37,o),
(505,34,cs),
(534,30,o),
(562,20,o),
(590,12,cs),
(611,6,o),
(634,0,o),
(655,5,cs),
(680,10,o),
(701,29,o),
(709,53,cs),
(716,73,o),
(717,94,o),
(715,115,cs),
(710,155,o),
(698,194,o),
(686,233,cs),
(681,250,o),
(674,267,o),
(672,284,cs),
(671,299,o),
(674,314,o),
(677,328,cs),
(692,385,o),
(721,439,o),
(723,497,cs),
(725,539,o),
(709,583,o),
(685,618,cs),
(672,637,o),
(654,656,o),
(633,666,cs),
(615,674,o),
(591,673,o),
(573,666,cs),
(571,665,o),
(569,665,o),
(567,666,c),
(501,681,o),
(433,691,o),
(365,692,cs),
(318,694,o),
(269,692,o),
(224,678,cs),
(198,670,o),
(172,657,o),
(152,638,cs),
(120,608,o),
(100,566,o),
(86,525,cs),
(64,461,o),
(49,394,o),
(39,326,cs),
(31,264,o),
(28,198,o),
(48,138,cs),
(70,77,o),
(118,21,o),
(175,-11,cs),
(198,-25,o),
(224,-37,o),
(251,-41,cs),
(281,-45,o),
(312,-41,o),
(340,-29,cs)
);
},
{
closed = 1;
nodes = (
(97,137,o),
(84,173,o),
(80,210,cs),
(72,273,o),
(81,339,o),
(94,402,cs),
(104,454,o),
(117,507,o),
(140,554,cs),
(152,581,o),
(171,605,o),
(196,621,cs),
(217,635,o),
(242,642,o),
(267,646,cs),
(292,650,o),
(317,652,o),
(342,653,cs),
(406,655,o),
(469,651,o),
(532,641,c),
(525,627,o),
(535,611,o),
(550,614,cs),
(553,615,o),
(569,622,o),
(572,624,c),
(585,628,o),
(599,632,o),
(611,628,cs),
(628,624,o),
(651,588,o),
(658,573,cs),
(668,553,o),
(677,531,o),
(677,508,cs),
(676,459,o),
(654,413,o),
(638,366,cs),
(631,344,o),
(624,320,o),
(624,296,cs),
(624,258,o),
(643,221,o),
(655,185,cs),
(667,148,o),
(690,77,o),
(660,52,cs),
(650,43,o),
(634,43,o),
(620,46,cs),
(599,49,o),
(578,58,o),
(558,64,cs),
(530,72,o),
(500,77,o),
(471,75,cs),
(449,74,o),
(427,66,o),
(407,56,cs),
(378,41,o),
(351,21,o),
(319,9,cs),
(252,-16,o),
(159,47,o),
(118,107,cs)
);
},
{
closed = 1;
nodes = (
(406,267,o),
(447,323,o),
(438,360,cs),
(435,373,o),
(426,384,o),
(415,393,cs),
(401,404,o),
(365,422,o),
(347,417,c),
(340,414,o),
(332,421,o),
(325,421,cs),
(316,421,o),
(305,419,o),
(298,414,cs),
(290,409,o),
(286,400,o),
(282,391,cs),
(277,376,o),
(274,360,o),
(272,344,cs),
(269,322,o),
(267,297,o),
(276,276,cs),
(293,235,o),
(341,218,o),
(376,244,cs)
);
},
{
closed = 1;
nodes = (
(304,292,o),
(301,304,o),
(300,315,cs),
(297,332,o),
(299,377,o),
(310,390,cs),
(315,397,o),
(327,394,o),
(334,399,c),
(336,391,o),
(342,386,o),
(349,386,cs),
(353,386,l),
(365,382,o),
(396,367,o),
(402,355,cs),
(406,346,o),
(401,334,o),
(396,326,cs),
(388,311,o),
(360,275,o),
(344,270,cs),
(334,267,o),
(318,276,o),
(311,284,cs)
);
}
);
width = 763;
}
);
note = Q;
unicode = 81;
},
{
glyphname = R;
layers = (
{
layerId = m01;
shapes = (
{
closed = 1;
nodes = (
(276,-49,o),
(292,-31,o),
(305,-14,cs),
(323,8,o),
(338,31,o),
(358,51,cs),
(370,61,o),
(383,71,o),
(398,76,cs),
(408,79,o),
(420,80,o),
(430,78,cs),
(511,64,o),
(579,6,o),
(659,-12,cs),
(672,-14,o),
(685,-17,o),
(698,-14,cs),
(741,-5,o),
(755,49,o),
(749,92,cs),
(744,128,o),
(723,160,o),
(704,191,cs),
(693,210,o),
(679,229,o),
(675,251,cs),
(673,267,o),
(675,283,o),
(678,299,cs),
(688,359,o),
(708,418,o),
(712,479,cs),
(713,507,o),
(706,537,o),
(690,560,cs),
(674,584,o),
(651,604,o),
(628,621,cs),
(591,647,o),
(549,664,o),
(506,676,c),
(504,677,o),
(505,676,o),
(504,677,cs),
(494,684,o),
(483,690,o),
(472,694,cs),
(436,706,o),
(287,693,o),
(249,689,cs),
(209,685,o),
(169,680,o),
(132,666,cs),
(108,656,o),
(84,642,o),
(67,623,cs),
(55,609,o),
(46,592,o),
(39,575,cs),
(30,548,o),
(28,518,o),
(29,490,cs),
(33,427,o),
(47,364,o),
(66,304,cs),
(80,260,o),
(98,218,o),
(112,175,cs),
(128,128,o),
(137,80,o),
(152,33,cs),
(158,12,o),
(167,-10,o),
(180,-28,cs),
(188,-40,o),
(198,-50,o),
(210,-57,cs),
(225,-64,o),
(242,-64,o),
(256,-58,cs)
);
},
{
closed = 1;
nodes = (
(209,-18,o),
(193,31,o),
(187,54,cs),
(175,97,o),
(167,141,o),
(154,183,cs),
(139,230,o),
(120,275,o),
(104,322,cs),
(89,368,o),
(78,417,o),
(73,466,cs),
(70,497,o),
(68,530,o),
(78,559,cs),
(84,575,o),
(93,591,o),
(106,602,cs),
(126,620,o),
(153,631,o),
(179,639,cs),
(218,650,o),
(258,658,o),
(298,664,cs),
(306,665,o),
(348,670,o),
(356,670,cs),
(365,670,o),
(399,668,o),
(408,665,c),
(411,663,o),
(413,661,o),
(416,660,cs),
(427,655,o),
(439,655,o),
(451,654,cs),
(460,652,o),
(468,650,o),
(477,647,cs),
(496,640,o),
(585,595,o),
(602,583,cs),
(603,582,o),
(602,581,o),
(604,580,c),
(610,575,o),
(635,553,o),
(640,548,cs),
(651,536,o),
(661,521,o),
(663,505,cs),
(668,475,o),
(661,445,o),
(655,416,cs),
(648,384,o),
(640,352,o),
(634,320,cs),
(627,285,o),
(624,246,o),
(640,214,cs),
(653,186,o),
(672,161,o),
(688,134,cs),
(697,116,o),
(707,98,o),
(710,78,cs),
(711,62,o),
(706,44,o),
(697,31,cs),
(688,17,o),
(660,28,o),
(644,32,cs),
(615,40,o),
(587,52,o),
(560,64,cs),
(527,80,o),
(494,97,o),
(459,107,cs),
(438,113,o),
(414,116,o),
(392,111,cs),
(370,106,o),
(350,92,o),
(333,77,cs),
(309,54,o),
(291,24,o),
(269,-1,cs),
(260,-10,o),
(244,-29,o),
(232,-25,cs)
);
},
{
closed = 1;
nodes = (
(407,250,o),
(418,269,o),
(425,286,cs),
(436,308,o),
(445,333,o),
(443,358,cs),
(442,371,o),
(437,385,o),
(428,394,cs),
(420,401,o),
(410,407,o),
(399,409,cs),
(370,417,o),
(338,408,o),
(309,399,cs),
(303,397,o),
(299,391,o),
(300,385,c),
(301,383,o),
(300,381,o),
(299,380,c),
(290,363,o),
(285,342,o),
(290,323,cs),
(298,293,o),
(320,265,o),
(347,249,cs),
(359,242,o),
(377,237,o),
(390,243,cs)
);
},
{
closed = 1;
nodes = (
(333,308,o),
(318,325,o),
(317,344,cs),
(316,351,o),
(318,367,o),
(323,371,cs),
(327,375,o),
(341,373,o),
(346,372,cs),
(367,370,o),
(394,358,o),
(396,379,c),
(401,376,o),
(407,372,o),
(409,367,cs),
(419,348,o),
(400,306,o),
(389,288,cs),
(386,284,o),
(380,275,o),
(376,275,cs),
(367,274,o),
(352,288,o),
(346,294,cs)
);
}
);
width = 776;
}
);
note = R;
unicode = 82;
},
{
glyphname = S;
layers = (
{
layerId = m01;
shapes = (
{
closed = 1;
nodes = (
(357,7,o),
(447,39,o),
(520,91,cs),
(563,121,o),
(604,160,o),
(630,205,cs),
(652,244,o),
(666,289,o),
(666,333,cs),
(666,352,o),
(663,371,o),
(656,388,cs),
(650,402,o),
(641,415,o),
(629,425,cs),
(602,449,o),
(568,462,o),
(538,482,cs),
(535,484,o),
(526,491,o),
(525,495,cs),
(523,501,o),
(534,522,o),
(536,529,cs),
(544,554,o),
(552,580,o),
(554,606,cs),
(555,626,o),
(554,647,o),
(546,664,cs),
(538,682,o),
(524,699,o),
(507,708,cs),
(483,723,o),
(452,727,o),
(424,730,cs),
(416,731,o),
(410,726,o),
(408,719,c),
(388,717,o),
(368,715,o),
(348,710,cs),
(302,700,o),
(258,680,o),
(217,657,cs),
(156,622,o),
(102,571,o),
(59,515,cs),
(37,486,o),
(21,449,o),
(18,412,cs),
(17,393,o),
(20,373,o),
(28,355,cs),
(42,327,o),
(64,304,o),
(88,285,cs),
(116,263,o),
(148,247,o),
(180,231,c),
(181,230,o),
(183,230,o),
(183,228,c),
(161,184,o),
(131,142,o),
(120,93,cs),
(116,75,o),
(116,55,o),
(123,39,cs),
(131,22,o),
(148,9,o),
(166,4,cs),
(198,-6,o),
(234,-6,o),
(268,-2,cs)
);
},
{
closed = 1;
nodes = (
(157,62,o),
(167,86,o),
(173,99,cs),
(187,134,o),
(208,165,o),
(226,198,cs),
(234,213,o),
(244,230,o),
(240,247,cs),
(237,261,o),
(223,273,o),
(210,280,cs),
(171,302,o),
(128,318,o),
(93,346,cs),
(76,360,o),
(62,381,o),
(58,403,cs),
(55,424,o),
(61,445,o),
(69,464,cs),
(86,502,o),
(114,535,o),
(144,565,cs),
(201,622,o),
(274,668,o),
(352,687,cs),
(372,692,o),
(393,694,o),
(414,696,cs),
(419,696,o),
(438,698,o),
(443,697,cs),
(457,692,o),
(472,687,o),
(485,678,cs),
(496,670,o),
(506,660,o),
(510,647,cs),
(513,633,o),
(512,618,o),
(510,604,cs),
(506,583,o),
(500,562,o),
(492,542,cs),
(486,527,o),
(478,511,o),
(478,495,cs),
(477,483,o),
(482,469,o),
(490,460,cs),
(520,431,o),
(562,418,o),
(595,393,cs),
(602,387,o),
(609,379,o),
(612,370,cs),
(617,358,o),
(618,345,o),
(618,332,cs),
(618,306,o),
(613,279,o),
(602,254,cs),
(582,206,o),
(544,165,o),
(502,135,cs),
(433,84,o),
(346,50,o),
(260,43,cs),
(239,41,o),
(183,38,o),
(168,52,cs)
);
}
);
width = 685;
}
);
note = S;
unicode = 83;
},
{
glyphname = T;
layers = (
{
layerId = m01;
shapes = (
{
closed = 1;
nodes = (
(556,52,o),
(568,88,o),
(578,122,cs),
(590,164,o),
(598,208,o),
(609,251,cs),
(614,273,o),
(626,296,o),
(644,310,cs),
(692,349,o),
(759,361,o),
(808,400,cs),
(823,412,o),
(836,429,o),
(843,447,cs),
(853,472,o),
(853,500,o),
(850,527,cs),
(846,556,o),
(835,586,o),
(814,608,cs),
(794,629,o),
(766,642,o),
(739,651,cs),
(654,678,o),
(564,685,o),
(476,690,cs),
(417,693,o),
(357,692,o),
(298,685,cs),
(246,679,o),
(192,665,o),
(147,638,cs),
(101,612,o),
(64,572,o),
(34,529,cs),
(22,512,o),
(8,493,o),
(8,472,cs),
(8,462,o),
(14,451,o),
(21,444,cs),
(38,429,o),
(115,387,o),
(136,379,cs),
(182,361,o),
(232,352,o),
(281,352,c),
(277,346,o),
(273,339,o),
(274,332,cs),
(275,320,o),
(294,270,o),
(298,258,cs),
(321,201,o),
(345,145,o),
(373,90,cs),
(389,58,o),
(406,24,o),
(434,2,cs),
(465,-21,o),
(509,-5,o),
(533,25,cs)
);
},
{
closed = 1;
nodes = (
(452,54,o),
(425,110,o),
(416,128,cs),
(387,186,o),
(359,246,o),
(335,307,c),
(316,328,o),
(299,351,o),
(283,374,c),
(269,375,o),
(208,389,o),
(195,393,cs),
(144,407,o),
(98,435,o),
(55,465,c),
(51,467,o),
(43,471,o),
(45,476,cs),
(47,485,o),
(52,494,o),
(58,503,cs),
(87,553,o),
(131,598,o),
(183,623,cs),
(249,655,o),
(327,660,o),
(400,660,cs),
(490,659,o),
(580,649,o),
(668,632,cs),
(703,625,o),
(738,618,o),
(769,600,cs),
(785,591,o),
(799,575,o),
(805,557,cs),
(813,536,o),
(816,512,o),
(814,490,cs),
(812,475,o),
(808,459,o),
(798,447,cs),
(783,429,o),
(759,417,o),
(737,407,cs),
(695,387,o),
(650,371,o),
(614,341,cs),
(595,325,o),
(581,304,o),
(571,282,cs),
(543,222,o),
(538,153,o),
(511,92,cs),
(504,75,o),
(487,44,o),
(469,44,c)
);
}
);
width = 866;
}
);
note = T;
unicode = 84;
},
{
glyphname = U;
kernRight = U;
lastChange = "2023-03-06 21:06:57 +0000";
layers = (
{
layerId = m01;
shapes = (
{
closed = 1;
nodes = (
(457,-14,o),
(493,-12,o),
(527,1,cs),
(556,11,o),
(583,29,o),
(604,52,cs),
(630,81,o),
(648,116,o),
(662,153,cs),
(679,196,o),
(691,241,o),
(702,287,cs),
(714,339,o),
(723,392,o),
(724,445,cs),
(725,488,o),
(720,532,o),
(708,573,cs),
(700,602,o),
(690,630,o),
(673,654,cs),
(659,673,o),
(639,692,o),
(616,695,cs),
(593,699,o),
(569,685,o),
(551,669,cs),
(531,652,o),
(515,632,o),
(497,612,cs),
(479,594,o),
(407,501,o),
(385,488,c),
(373,506,o),
(366,526,o),
(357,545,cs),
(345,572,o),
(332,600,o),
(317,626,cs),
(302,653,o),
(281,681,o),
(253,695,cs),
(229,706,o),
(200,707,o),
(174,704,cs),
(155,702,o),
(86,688,o),
(70,677,cs),
(61,671,o),
(59,658,o),
(53,649,cs),
(45,638,o),
(45,623,o),
(43,610,cs),
(39,577,o),
(36,544,o),
(37,511,cs),
(39,419,o),
(53,327,o),
(74,238,cs),
(88,177,o),
(106,115,o),
(138,62,cs),
(159,26,o),
(192,-9,o),
(232,-21,cs),
(257,-28,l),
(312,-33,o),
(367,-26,o),
(421,-19,cs)
);
},
{
closed = 1;
nodes = (
(236,47,o),
(217,71,o),
(204,95,cs),
(177,143,o),
(161,196,o),
(146,249,cs),
(130,304,o),
(119,361,o),
(110,419,cs),
(102,467,o),
(96,516,o),
(94,566,cs),
(94,589,o),
(91,613,o),
(94,636,c),
(104,643,o),
(104,657,o),
(93,662,c),
(92,663,o),
(87,663,o),
(88,663,c),
(100,667,o),
(156,679,o),
(168,680,cs),
(193,683,o),
(219,684,o),
(241,673,cs),
(262,663,o),
(276,642,o),
(287,622,cs),
(310,581,o),
(325,537,o),
(344,494,cs),
(351,481,o),
(357,466,o),
(369,458,cs),
(379,451,o),
(394,453,o),
(405,459,cs),
(430,474,o),
(505,570,o),
(524,593,cs),
(541,614,o),
(581,666,o),
(608,666,cs),
(634,666,o),
(656,623,o),
(665,599,cs),
(681,558,o),
(687,514,o),
(686,470,cs),
(685,402,o),
(673,333,o),
(654,268,cs),
(640,222,o),
(626,175,o),
(604,133,cs),
(588,101,o),
(566,70,o),
(535,53,cs),
(497,32,o),
(451,31,o),
(407,28,cs),
(359,24,o),
(306,17,o),
(261,36,cs)
);
}
);
width = 758;
}
);
note = U;
unicode = (85,217,218,219,220);
},
{
glyphname = V;
kernRight = V;
layers = (
{
layerId = m01;
shapes = (
{
closed = 1;
nodes = (
(537,86,o),
(563,119,o),
(583,153,cs),
(610,201,o),
(630,252,o),
(651,302,cs),
(678,367,o),
(705,432,o),
(724,500,cs),
(731,526,o),
(736,552,o),
(739,578,cs),
(741,600,o),
(742,624,o),
(736,645,cs),
(732,659,o),
(726,674,o),
(715,684,cs),
(705,693,o),
(692,699,o),
(678,701,cs),
(649,705,o),
(619,697,o),
(592,686,cs),
(553,670,o),
(516,648,o),
(481,624,cs),
(439,596,o),
(397,568,o),
(360,534,cs),
(353,528,o),
(347,521,o),
(341,514,c),
(297,557,o),
(250,599,o),
(195,627,cs),
(168,641,o),
(138,652,o),
(108,650,cs),
(90,649,o),
(70,643,o),
(57,630,cs),
(36,612,o),
(29,580,o),
(27,553,cs),
(22,484,o),
(37,414,o),
(57,348,cs),
(79,276,o),
(110,207,o),
(147,141,cs),
(168,102,o),
(190,61,o),
(224,34,cs),
(297,-24,o),
(434,2,o),
(506,61,cs)
);
},
{
closed = 1;
nodes = (
(234,85,o),
(218,116,o),
(201,143,cs),
(137,249,o),
(84,365,o),
(65,487,cs),
(60,524,o),
(55,591,o),
(87,609,cs),
(99,615,o),
(115,615,o),
(128,612,cs),
(153,608,o),
(176,596,o),
(197,582,cs),
(250,547,o),
(295,502,o),
(342,460,c),
(358,477,o),
(376,492,o),
(395,507,cs),
(397,509,o),
(415,516,o),
(418,518,cs),
(453,549,o),
(491,579,o),
(530,605,cs),
(563,628,o),
(599,650,o),
(639,658,cs),
(653,661,o),
(679,663,o),
(688,651,cs),
(704,630,o),
(693,566,o),
(686,540,cs),
(666,463,o),
(632,391,o),
(602,318,cs),
(585,277,o),
(570,236,o),
(550,196,cs),
(536,166,o),
(519,136,o),
(495,113,cs),
(454,71,o),
(396,48,o),
(337,48,cs),
(311,49,o),
(283,53,o),
(262,67,cs)
);
}
);
width = 759;
}
);
note = V;
unicode = 86;
},
{
glyphname = W;
lastChange = "2023-03-06 21:06:57 +0000";
layers = (
{
layerId = m01;
shapes = (
{
closed = 1;
nodes = (
(297,51,o),
(314,75,o),
(330,99,cs),
(352,131,o),
(371,167,o),
(402,192,cs),
(410,198,o),
(420,202,o),
(431,204,cs),
(444,206,o),
(459,203,o),
(472,199,cs),
(510,190,o),
(545,167,o),
(572,139,cs),
(584,128,o),
(644,59,o),
(657,49,cs),
(665,42,o),
(675,35,o),
(686,32,cs),
(704,28,o),
(719,33,o),
(730,48,cs),
(742,62,o),
(782,141,o),
(790,158,cs),
(834,250,o),
(869,349,o),
(882,451,cs),
(890,514,o),
(892,581,o),
(874,643,cs),
(870,657,o),
(863,674,o),
(850,682,cs),
(825,697,o),
(769,672,o),
(744,657,cs),
(726,647,o),
(709,632,o),
(694,618,cs),
(684,609,o),
(651,574,o),
(638,571,cs),
(632,569,o),
(622,578,o),
(618,582,cs),
(572,620,o),
(524,660,o),
(468,678,cs),
(448,684,o),
(424,686,o),
(404,679,cs),
(383,672,o),
(366,656,o),
(353,639,cs),
(333,614,o),
(320,584,o),
(303,557,cs),
(302,555,o),
(300,554,o),
(299,555,cs),
(282,567,o),
(195,653,o),
(178,665,cs),
(161,677,o),
(138,684,o),
(118,681,cs),
(84,676,o),
(56,647,o),
(37,619,c),
(33,621,o),
(26,620,o),
(23,617,cs),
(21,615,o),
(21,612,o),
(19,610,c),
(16,605,o),
(17,598,o),
(18,592,cs),
(19,589,o),
(16,587,o),
(15,584,cs),
(14,578,o),
(16,573,o),
(21,570,cs),
(22,569,o),
(25,569,o),
(25,568,c),
(44,507,ls),
(79,397,o),
(105,285,o),
(139,174,cs),
(148,142,o),
(159,109,o),
(172,78,cs),
(179,61,o),
(187,45,o),
(199,32,cs),
(207,23,o),
(220,18,o),
(232,18,cs),
(246,19,o),
(260,27,o),
(273,35,cs)
);
},
{
closed = 1;
nodes = (
(217,51,o),
(205,73,o),
(201,81,cs),
(187,110,o),
(178,141,o),
(169,171,cs),
(138,269,o),
(113,369,o),
(83,467,cs),
(78,481,o),
(50,566,o),
(46,581,c),
(61,597,o),
(76,613,o),
(92,628,cs),
(102,636,o),
(114,644,o),
(127,644,cs),
(136,644,o),
(145,641,o),
(153,636,cs),
(179,618,o),
(263,521,o),
(295,515,cs),
(303,513,o),
(314,516,o),
(321,521,cs),
(335,531,o),
(367,595,o),
(377,609,cs),
(388,626,o),
(405,644,o),
(425,647,cs),
(446,650,o),
(467,641,o),
(486,632,cs),
(525,614,o),
(558,584,o),
(591,558,cs),
(602,550,o),
(613,542,o),
(626,539,cs),
(636,537,o),
(647,540,o),
(656,546,cs),
(670,554,o),
(680,566,o),
(691,578,cs),
(707,595,o),
(723,611,o),
(742,625,cs),
(766,643,o),
(795,656,o),
(824,660,cs),
(829,661,o),
(836,662,o),
(840,658,cs),
(843,656,o),
(847,643,o),
(848,638,cs),
(867,570,o),
(862,494,o),
(848,424,cs),
(828,323,o),
(789,226,o),
(743,133,cs),
(738,122,o),
(712,73,o),
(704,64,c),
(699,60,o),
(691,63,o),
(685,66,cs),
(671,75,o),
(660,88,o),
(648,100,cs),
(620,131,o),
(593,164,o),
(559,189,cs),
(530,210,o),
(495,224,o),
(460,229,cs),
(442,232,o),
(422,231,o),
(405,223,cs),
(362,202,o),
(335,154,o),
(308,114,cs),
(292,90,o),
(273,64,o),
(247,52,cs),
(242,50,o),
(230,45,o),
(226,47,cs)
);
}
);
width = 917;
}
);
note = W;
unicode = 87;
},
{
glyphname = X;
layers = (
{
layerId = m01;
shapes = (
{
closed = 1;
nodes = (
(246,-24,o),
(273,-13,o),
(297,1,cs),
(346,32,o),
(386,77,o),
(439,101,cs),
(455,108,o),
(475,108,o),
(491,101,cs),
(536,85,o),
(577,61,o),
(618,38,cs),
(641,25,o),
(666,9,o),
(692,11,cs),
(744,13,o),
(775,66,o),
(771,118,cs),
(767,172,o),
(737,222,o),
(714,271,cs),
(701,296,o),
(688,322,o),
(685,350,cs),
(683,368,o),
(688,386,o),
(694,402,cs),
(707,431,o),
(723,458,o),
(733,488,cs),
(744,520,o),
(751,554,o),
(749,588,cs),
(748,602,o),
(745,616,o),
(738,628,cs),
(730,641,o),
(714,650,o),
(699,653,cs),
(665,660,o),
(629,651,o),
(596,642,cs),
(549,629,o),
(504,611,o),
(459,592,cs),
(450,588,o),
(414,573,o),
(407,566,cs),
(406,565,o),
(402,566,o),
(400,567,cs),
(386,572,o),
(315,611,o),
(301,618,cs),
(269,636,o),
(236,651,o),
(200,657,cs),
(159,663,o),
(114,662,o),
(76,646,cs),
(57,637,o),
(40,621,o),
(31,602,cs),
(23,584,o),
(20,562,o),
(21,542,cs),
(22,512,o),
(31,483,o),
(42,455,cs),
(60,404,o),
(89,357,o),
(117,311,cs),
(127,294,o),
(138,276,o),
(139,256,cs),
(141,232,o),
(133,209,o),
(127,186,cs),
(120,163,o),
(114,139,o),
(110,116,cs),
(106,91,o),
(104,65,o),
(109,40,cs),
(114,21,o),
(127,2,o),
(144,-9,cs),
(166,-22,o),
(193,-28,o),
(218,-26,cs)
);
},
{
closed = 1;
nodes = (
(140,102,o),
(149,137,o),
(158,171,cs),
(165,198,o),
(175,224,o),
(175,251,cs),
(174,277,o),
(164,302,o),
(151,325,cs),
(125,371,o),
(93,415,o),
(73,464,cs),
(61,495,o),
(50,529,o),
(52,563,cs),
(53,577,o),
(57,591,o),
(66,602,cs),
(75,613,o),
(88,620,o),
(102,624,cs),
(126,631,o),
(153,632,o),
(179,631,cs),
(207,629,o),
(235,619,o),
(261,608,cs),
(278,600,o),
(374,552,o),
(391,545,c),
(396,544,o),
(402,542,o),
(407,544,c),
(411,541,o),
(421,539,o),
(425,542,c),
(489,573,o),
(555,604,o),
(624,621,cs),
(642,626,o),
(690,632,o),
(706,621,cs),
(715,615,o),
(718,603,o),
(719,593,cs),
(722,555,o),
(711,515,o),
(694,480,cs),
(677,444,o),
(653,409,o),
(648,369,cs),
(644,342,o),
(652,314,o),
(661,289,cs),
(679,241,o),
(707,197,o),
(723,148,cs),
(729,128,o),
(731,104,o),
(723,85,cs),
(719,75,o),
(712,66,o),
(703,60,cs),
(696,56,o),
(685,56,o),
(676,59,cs),
(664,63,o),
(652,69,o),
(640,75,cs),
(608,93,o),
(575,111,o),
(542,127,cs),
(515,140,o),
(483,148,o),
(453,141,cs),
(406,131,o),
(367,97,o),
(330,67,cs),
(305,46,o),
(280,25,o),
(250,13,cs),
(201,-6,o),
(138,13,o),
(140,67,cs)
);
}
);
width = 802;
}
);
note = X;
unicode = 88;
},
{
glyphname = Y;
layers = (
{
layerId = m01;
shapes = (
{
closed = 1;
nodes = (
(547,27,o),
(614,57,o),
(665,103,cs),
(691,126,o),
(713,155,o),
(729,186,cs),
(764,253,o),
(776,332,o),
(774,407,cs),
(772,462,o),
(767,517,o),
(756,570,cs),
(749,603,o),
(732,694,o),
(705,713,cs),
(689,724,o),
(668,726,o),
(649,727,cs),
(622,729,o),
(595,721,o),
(570,710,cs),
(538,696,o),
(509,677,o),
(483,655,cs),
(468,643,o),
(402,587,o),
(384,579,cs),
(376,576,o),
(375,576,o),
(368,581,cs),
(356,588,o),
(298,640,o),
(287,648,cs),
(242,681,o),
(190,707,o),
(135,720,cs),
(116,724,o),
(96,728,o),
(77,725,cs),
(63,723,o),
(50,713,o),
(42,702,c),
(27,702,o),
(29,682,o),
(31,667,cs),
(37,627,o),
(59,415,o),
(70,376,cs),
(76,356,o),
(84,336,o),
(99,322,cs),
(122,301,o),
(153,290,o),
(183,281,cs),
(198,276,o),
(266,259,o),
(279,249,cs),
(284,246,o),
(287,238,o),
(286,232,cs),
(281,214,o),
(244,189,o),
(228,181,cs),
(190,162,o),
(146,153,o),
(111,128,cs),
(91,114,o),
(60,77,o),
(64,52,cs),
(71,10,o),
(139,-11,o),
(181,-16,cs),
(281,-26,o),
(382,-8,o),
(480,13,cs)
);
},
{
closed = 1;
nodes = (
(120,33,o),
(99,46,o),
(96,56,cs),
(95,59,o),
(100,68,o),
(102,71,cs),
(109,83,o),
(118,94,o),
(129,102,cs),
(153,118,o),
(182,126,o),
(208,136,cs),
(238,147,o),
(268,162,o),
(292,183,cs),
(304,194,o),
(317,208,o),
(321,224,cs),
(326,244,o),
(320,265,o),
(304,279,cs),
(292,290,o),
(276,296,o),
(260,301,cs),
(244,307,o),
(227,312,o),
(212,318,cs),
(187,328,o),
(161,337,o),
(139,352,cs),
(130,359,o),
(123,369,o),
(119,379,cs),
(106,409,o),
(99,440,o),
(93,471,cs),
(80,533,o),
(72,595,o),
(60,657,c),
(60,659,o),
(63,662,o),
(65,664,c),
(66,666,o),
(69,670,o),
(71,670,cs),
(75,669,o),
(79,670,o),
(83,670,cs),
(100,670,o),
(117,667,o),
(134,661,cs),
(177,647,o),
(218,627,o),
(255,601,cs),
(276,585,o),
(295,566,o),
(316,549,cs),
(329,539,o),
(343,529,o),
(359,525,cs),
(372,521,o),
(386,523,o),
(398,528,cs),
(428,541,o),
(451,567,o),
(474,589,cs),
(498,612,o),
(523,632,o),
(551,651,cs),
(572,665,o),
(595,679,o),
(620,685,cs),
(640,689,o),
(662,690,o),
(682,684,cs),
(687,682,o),
(692,669,o),
(694,664,cs),
(715,605,o),
(721,541,o),
(725,479,cs),
(728,423,o),
(729,366,o),
(721,311,cs),
(715,272,o),
(704,231,o),
(684,196,cs),
(649,134,o),
(581,91,o),
(514,66,cs),
(481,54,o),
(446,46,o),
(411,39,cs),
(362,29,o),
(313,22,o),
(263,18,cs),
(219,15,o),
(172,14,o),
(130,30,cs)
);
}
);
width = 810;
}
);
note = Y;
unicode = (89,221,376);
},
{
glyphname = Z;
kernLeft = Z;
kernRight = Z;
layers = (
{
layerId = m01;
shapes = (
{
closed = 1;
nodes = (
(553,18,o),
(601,29,o),
(643,51,cs),
(658,59,o),
(673,68,o),
(683,81,cs),
(692,95,o),
(693,109,o),
(686,123,cs),
(683,130,o),
(677,136,o),
(671,141,cs),
(626,180,o),
(564,195,o),
(510,219,cs),
(491,227,o),
(473,235,o),
(456,246,cs),
(451,250,o),
(451,252,o),
(454,258,cs),
(467,279,o),
(560,374,o),
(576,393,cs),
(622,449,o),
(657,520,o),
(663,593,cs),
(665,620,o),
(660,649,o),
(646,673,cs),
(631,700,o),
(589,720,o),
(585,689,c),
(530,691,o),
(474,693,o),
(418,694,cs),
(344,697,o),
(268,709,o),
(195,695,cs),
(168,689,o),
(141,682,o),
(119,666,cs),
(77,635,o),
(71,577,o),
(103,535,cs),
(115,519,o),
(134,506,o),
(153,499,cs),
(175,489,o),
(198,484,o),
(222,478,cs),
(228,477,o),
(257,470,o),
(262,467,c),
(263,467,o),
(265,466,o),
(265,465,cs),
(264,455,o),
(243,429,o),
(237,421,cs),
(166,333,o),
(90,246,o),
(38,144,cs),
(30,128,o),
(22,112,o),
(17,94,cs),
(13,79,o),
(14,58,o),
(25,46,cs),
(47,22,o),
(136,8,o),
(169,6,cs),
(204,3,o),
(239,6,o),
(274,5,cs),
(310,5,o),
(347,3,o),
(384,3,cs),
(425,3,o),
(465,7,o),
(506,12,cs)
);
},
{
closed = 1;
nodes = (
(134,36,o),
(108,41,o),
(82,47,cs),
(70,50,o),
(45,57,o),
(42,69,cs),
(37,85,o),
(58,126,o),
(65,141,cs),
(108,223,o),
(168,297,o),
(229,367,cs),
(243,383,o),
(292,438,o),
(296,459,cs),
(299,474,o),
(293,486,o),
(280,494,cs),
(268,501,o),
(254,505,o),
(240,509,cs),
(208,518,o),
(172,523,o),
(145,542,cs),
(112,566,o),
(104,615,o),
(136,639,cs),
(156,654,o),
(182,660,o),
(207,663,cs),
(287,675,o),
(369,666,o),
(451,665,cs),
(502,665,o),
(553,670,o),
(605,667,c),
(654,616,o),
(612,515,o),
(572,456,cs),
(556,433,o),
(539,411,o),
(520,391,cs),
(495,365,o),
(419,294,o),
(417,258,cs),
(416,247,o),
(421,234,o),
(430,226,cs),
(454,207,o),
(482,196,o),
(510,186,cs),
(557,169,o),
(604,151,o),
(645,122,cs),
(650,118,o),
(662,111,o),
(660,104,cs),
(658,94,o),
(634,81,o),
(625,76,cs),
(584,56,o),
(538,48,o),
(493,44,cs),
(454,40,o),
(415,37,o),
(376,36,cs),
(341,35,o),
(305,36,o),
(270,35,cs),
(233,35,o),
(197,32,o),
(161,34,cs)
);
}
);
width = 712;
}
);
note = Z;
unicode = 90;
},
{
glyphname = underscore;
kernLeft = underscore;
layers = (
{
layerId = m01;
shapes = (
{
closed = 1;
nodes = (
(449,-68,o),
(495,-57,o),
(539,-43,cs),
(563,-35,o),
(587,-27,o),
(610,-15,cs),
(620,-10,o),
(630,-3,o),
(636,6,cs),
(644,20,o),
(640,37,o),
(627,44,c),
(637,77,o),
(600,112,o),
(569,128,cs),
(514,157,o),
(448,170,o),
(385,169,cs),
(321,168,o),
(256,162,o),
(193,147,cs),
(142,135,o),
(90,119,o),
(48,88,cs),
(38,81,o),
(27,71,o),
(24,59,cs),
(20,40,o),
(46,6,o),
(61,-7,cs),
(72,-17,o),
(85,-24,o),
(98,-31,cs),
(129,-46,o),
(162,-58,o),
(196,-63,cs),
(235,-69,o),
(274,-70,o),
(312,-72,cs),
(342,-74,o),
(372,-75,o),
(402,-72,cs)
);
},
{
closed = 1;
nodes = (
(277,14,o),
(235,11,o),
(193,15,cs),
(153,18,o),
(114,31,o),
(76,40,cs),
(67,42,o),
(59,50,o),
(56,58,c),
(62,66,o),
(93,85,o),
(102,89,cs),
(164,119,o),
(235,126,o),
(302,134,cs),
(343,138,o),
(384,142,o),
(424,137,cs),
(474,130,o),
(525,117,o),
(568,90,cs),
(577,84,o),
(601,67,o),
(603,56,c),
(603,52,o),
(601,47,o),
(597,46,cs),
(580,42,o),
(564,34,o),
(548,27,cs),
(506,12,o),
(461,4,o),
(416,3,cs),
(384,3,o),
(351,7,o),
(319,10,cs)
);
}
);
width = 664;
}
);
note = underscore;
unicode = 95;
},
{
glyphname = a;
kernRight = a;
layers = (
{
layerId = m01;
shapes = (
{
closed = 1;
nodes = (
(348,5,o),
(399,13,o),
(447,27,cs),
(487,39,o),
(528,58,o),
(555,89,cs),
(574,111,o),
(586,138,o),
(594,165,cs),
(619,246,o),
(627,336,o),
(606,418,cs),
(598,448,o),
(582,478,o),
(559,501,cs),
(514,547,o),
(452,576,o),
(390,595,cs),
(371,601,o),
(360,577,o),
(375,563,c),
(342,566,o),
(307,561,o),
(274,554,cs),
(209,542,o),
(145,517,o),
(90,480,cs),
(72,468,o),
(55,455,o),
(41,439,cs),
(32,428,o),
(24,416,o),
(22,402,cs),
(20,392,o),
(22,379,o),
(28,370,cs),
(35,361,o),
(47,355,o),
(59,351,cs),
(75,345,o),
(155,328,o),
(169,317,cs),
(179,309,o),
(169,297,o),
(162,287,cs),
(133,249,o),
(91,221,o),
(65,182,cs),
(47,154,o),
(40,117,o),
(46,85,cs),
(50,66,o),
(64,50,o),
(79,38,cs),
(93,26,o),
(108,14,o),
(125,7,cs),
(146,-1,o),
(168,-2,o),
(190,-4,cs),
(226,-6,o),
(262,-4,o),
(298,0,cs)
);
},
{
closed = 1;
nodes = (
(106,75,o),
(94,82,o),
(84,93,cs),
(62,118,o),
(81,161,o),
(103,187,cs),
(126,213,o),
(153,234,o),
(175,260,cs),
(185,272,o),
(195,284,o),
(200,298,cs),
(218,351,o),
(137,359,o),
(83,373,cs),
(74,375,o),
(50,380,o),
(45,388,cs),
(40,397,o),
(49,413,o),
(55,421,cs),
(68,438,o),
(85,451,o),
(103,462,cs),
(176,511,o),
(266,538,o),
(353,541,cs),
(372,541,o),
(391,539,o),
(408,533,cs),
(417,529,o),
(427,530,o),
(435,524,cs),
(466,501,o),
(498,477,o),
(524,448,cs),
(538,434,o),
(547,415,o),
(552,396,cs),
(569,331,o),
(564,258,o),
(543,195,cs),
(534,169,o),
(524,141,o),
(502,126,cs),
(486,115,o),
(468,109,o),
(450,103,cs),
(424,94,o),
(398,88,o),
(371,83,cs),
(323,73,o),
(164,52,o),
(119,69,cs)
);
},
{
closed = 1;
nodes = (
(393,195,o),
(402,204,o),
(408,215,cs),
(416,229,o),
(418,247,o),
(415,263,cs),
(412,279,o),
(400,312,o),
(384,317,cs),
(380,318,o),
(376,319,o),
(373,321,cs),
(366,326,o),
(355,328,o),
(347,325,cs),
(339,322,o),
(332,317,o),
(326,311,cs),
(304,290,o),
(291,260,o),
(290,229,cs),
(289,216,o),
(292,200,o),
(300,189,cs),
(320,163,o),
(357,169,o),
(384,188,cs)
);
},
{
closed = 1;
nodes = (
(322,208,o),
(320,219,o),
(320,227,cs),
(319,247,o),
(326,269,o),
(337,286,cs),
(340,292,o),
(351,302,o),
(357,302,cs),
(359,302,o),
(364,298,o),
(365,298,cs),
(368,297,o),
(371,295,o),
(374,294,c),
(377,292,o),
(381,281,o),
(382,278,cs),
(387,266,o),
(390,252,o),
(387,239,cs),
(385,231,o),
(380,224,o),
(374,219,cs),
(364,210,o),
(342,199,o),
(330,205,cs)
);
}
);
width = 645;
}
);
note = a;
unicode = (97,224,225,226,227,228,229);
},
{
glyphname = b;
kernLeft = F;
lastChange = "2023-03-06 21:06:57 +0000";
layers = (
{
layerId = m01;
shapes = (
{
closed = 1;
nodes = (
(491,37,o),
(531,69,o),
(562,107,cs),
(593,144,o),
(620,188,o),
(631,236,cs),
(648,308,o),
(630,427,o),
(566,464,cs),
(541,479,o),
(509,476,o),
(480,480,cs),
(467,482,o),
(452,484,o),
(444,494,cs),
(437,503,o),
(433,514,o),
(430,525,cs),
(416,590,ls),
(407,637,o),
(397,685,o),
(375,728,cs),
(354,768,o),
(324,806,o),
(287,831,cs),
(274,841,o),
(258,827,o),
(265,811,c),
(247,813,o),
(229,811,o),
(213,806,cs),
(194,800,o),
(178,787,o),
(165,772,cs),
(141,746,o),
(122,716,o),
(108,684,cs),
(83,630,o),
(69,571,o),
(58,513,cs),
(44,438,o),
(34,361,o),
(36,285,cs),
(38,241,o),
(45,198,o),
(57,156,cs),
(70,114,o),
(88,71,o),
(117,38,cs),
(156,-4,o),
(215,-30,o),
(273,-29,cs),
(333,-28,o),
(394,-14,o),
(448,14,cs)
);
},
{
closed = 1;
nodes = (
(179,50,o),
(141,77,o),
(121,114,cs),
(98,154,o),
(86,199,o),
(80,245,cs),
(69,318,o),
(73,393,o),
(83,466,cs),
(90,517,o),
(99,569,o),
(113,619,cs),
(126,670,o),
(148,721,o),
(183,761,cs),
(190,769,o),
(198,778,o),
(208,783,cs),
(223,791,o),
(242,794,o),
(259,793,cs),
(265,792,o),
(280,790,o),
(283,785,cs),
(307,753,o),
(328,719,o),
(339,681,cs),
(356,624,o),
(357,563,o),
(371,505,cs),
(375,487,o),
(381,469,o),
(392,455,cs),
(401,443,o),
(413,434,o),
(427,427,cs),
(447,418,o),
(470,416,o),
(492,415,cs),
(509,414,o),
(528,416,o),
(541,406,cs),
(568,385,o),
(577,308,o),
(574,273,cs),
(571,235,o),
(550,198,o),
(527,167,cs),
(467,82,o),
(360,28,o),
(255,30,cs),
(243,30,o),
(230,33,o),
(218,37,cs)
);
},
{
closed = 1;
nodes = (
(354,304,o),
(344,322,o),
(334,338,cs),
(332,341,o),
(329,345,o),
(326,346,c),
(326,354,o),
(314,358,o),
(306,360,cs),
(303,361,o),
(298,361,o),
(295,359,cs),
(272,347,o),
(254,293,o),
(251,267,cs),
(250,254,o),
(251,241,o),
(257,229,cs),
(265,213,o),
(285,201,o),
(303,200,cs),
(345,197,o),
(367,244,o),
(358,286,cs)
);
},
{
closed = 1;
nodes = (
(266,260,o),
(280,307,o),
(292,327,cs),
(294,331,o),
(299,340,o),
(303,341,cs),
(305,341,o),
(310,339,o),
(311,338,cs),
(313,337,o),
(312,334,o),
(313,332,cs),
(321,318,o),
(330,304,o),
(335,288,cs),
(340,269,o),
(336,237,o),
(319,227,cs),
(307,219,o),
(284,227,o),
(277,240,cs)
);
}
);
width = 660;
}
);
note = b;
unicode = 98;
},
{
glyphname = c;
layers = (
{
layerId = m01;
shapes = (
{
closed = 1;
nodes = (
(389,-17,o),
(452,8,o),
(497,50,cs),
(529,80,o),
(555,116,o),
(573,155,cs),
(580,171,o),
(585,187,o),
(588,203,cs),
(589,213,o),
(589,223,o),
(585,232,cs),
(574,257,o),
(510,265,o),
(483,270,cs),
(459,274,o),
(434,280,o),
(411,287,cs),
(398,291,o),
(384,296,o),
(372,304,cs),
(368,307,o),
(373,312,o),
(376,317,cs),
(401,354,o),
(434,385,o),
(459,422,cs),
(475,446,o),
(490,473,o),
(489,502,cs),
(489,513,o),
(488,530,o),
(476,533,cs),
(475,533,o),
(477,534,o),
(478,536,cs),
(481,545,o),
(471,553,o),
(463,548,cs),
(462,547,o),
(460,547,o),
(458,548,cs),
(435,556,o),
(410,559,o),
(385,561,cs),
(298,569,o),
(207,550,o),
(128,514,cs),
(101,501,o),
(73,485,o),
(55,461,cs),
(37,437,o),
(30,405,o),
(27,376,cs),
(22,312,o),
(32,246,o),
(51,184,cs),
(67,131,o),
(93,79,o),
(132,39,cs),
(180,-10,o),
(260,-32,o),
(329,-24,cs)
);
},
{
closed = 1;
nodes = (
(216,28,o),
(192,38,o),
(173,54,cs),
(148,75,o),
(130,105,o),
(117,135,cs),
(94,184,o),
(84,239,o),
(75,293,cs),
(67,332,o),
(62,375,o),
(72,414,cs),
(76,428,o),
(84,442,o),
(94,452,cs),
(111,468,o),
(134,479,o),
(155,489,cs),
(207,512,o),
(263,527,o),
(319,531,cs),
(359,535,o),
(399,531,o),
(439,525,cs),
(446,524,o),
(454,522,o),
(462,523,c),
(459,508,o),
(459,493,o),
(453,479,cs),
(446,459,o),
(432,442,o),
(419,426,cs),
(407,411,o),
(347,341,o),
(339,323,cs),
(335,315,o),
(333,304,o),
(336,294,cs),
(340,282,o),
(352,273,o),
(364,267,cs),
(410,245,o),
(462,237,o),
(513,230,cs),
(526,228,o),
(539,227,o),
(552,224,cs),
(555,223,o),
(559,221,o),
(560,218,cs),
(562,206,o),
(548,173,o),
(542,162,cs),
(519,122,o),
(486,86,o),
(447,61,cs),
(407,36,o),
(360,22,o),
(314,16,cs),
(289,13,o),
(263,16,o),
(239,22,cs)
);
}
);
width = 602;
}
);
note = c;
unicode = (99,231);
},
{
glyphname = d;
kernLeft = d;
kernRight = N;
layers = (
{
layerId = m01;
shapes = (
{
closed = 1;
nodes = (
(434,5,o),
(452,22,o),
(468,39,cs),
(492,68,o),
(514,100,o),
(529,135,cs),
(542,168,o),
(550,204,o),
(554,239,cs),
(557,264,o),
(562,387,o),
(560,411,cs),
(555,482,o),
(541,555,o),
(509,619,cs),
(499,639,o),
(460,705,o),
(442,717,cs),
(426,728,o),
(404,722,o),
(402,703,c),
(385,707,o),
(367,713,o),
(351,706,cs),
(340,702,o),
(331,692,o),
(323,683,cs),
(306,661,o),
(295,635,o),
(285,610,cs),
(274,583,o),
(265,556,o),
(257,528,cs),
(249,500,o),
(242,471,o),
(230,445,cs),
(225,434,o),
(219,423,o),
(210,415,cs),
(196,405,o),
(179,400,o),
(163,392,cs),
(124,373,o),
(91,344,o),
(63,311,cs),
(48,294,o),
(33,275,o),
(25,253,cs),
(18,234,o),
(17,211,o),
(20,190,cs),
(24,161,o),
(34,130,o),
(52,107,cs),
(82,68,o),
(129,43,o),
(175,23,cs),
(202,12,o),
(230,0,o),
(260,-6,cs),
(285,-12,o),
(311,-14,o),
(337,-13,cs),
(362,-13,o),
(388,-12,o),
(412,-3,cs)
);
},
{
closed = 1;
nodes = (
(232,45,o),
(199,65,o),
(165,80,cs),
(135,94,o),
(99,105,o),
(79,132,cs),
(65,149,o),
(56,170,o),
(51,191,cs),
(47,208,o),
(46,226,o),
(51,243,cs),
(59,264,o),
(73,282,o),
(89,298,cs),
(110,321,o),
(135,341,o),
(162,356,cs),
(186,369,o),
(216,374,o),
(236,392,cs),
(251,405,o),
(260,424,o),
(267,443,cs),
(282,484,o),
(290,529,o),
(304,571,cs),
(311,596,o),
(337,666,o),
(359,680,cs),
(370,687,o),
(398,683,o),
(410,677,c),
(415,665,o),
(456,595,o),
(462,582,cs),
(470,568,o),
(473,551,o),
(478,535,cs),
(484,518,o),
(492,502,o),
(496,484,cs),
(502,456,o),
(501,427,o),
(503,399,cs),
(505,370,o),
(508,341,o),
(508,313,cs),
(508,277,o),
(507,241,o),
(503,206,cs),
(497,147,o),
(465,89,o),
(421,49,cs),
(411,40,o),
(398,33,o),
(384,31,cs),
(346,25,o),
(306,29,o),
(268,37,cs)
);
},
{
closed = 1;
nodes = (
(355,193,o),
(356,205,o),
(354,217,cs),
(349,247,o),
(330,278,o),
(299,275,c),
(297,281,o),
(288,286,o),
(281,284,c),
(278,284,o),
(274,281,o),
(271,278,cs),
(262,271,o),
(248,239,o),
(246,227,cs),
(242,208,o),
(247,185,o),
(260,170,cs),
(287,141,o),
(335,145,o),
(350,182,cs)
);
},
{
closed = 1;
nodes = (
(270,195,o),
(267,208,o),
(268,219,cs),
(269,229,o),
(274,239,o),
(279,249,c),
(282,246,o),
(287,244,o),
(291,245,cs),
(296,246,o),
(302,249,o),
(307,248,cs),
(313,248,o),
(319,244,o),
(323,239,cs),
(338,218,o),
(339,186,o),
(315,175,cs),
(304,171,o),
(285,178,o),
(277,187,cs)
);
}
);
width = 596;
}
);
note = d;
unicode = 100;
},
{
glyphname = e;
lastChange = "2023-03-06 21:06:57 +0000";
layers = (
{
layerId = m01;
shapes = (
{
closed = 1;
nodes = (
(503,23,o),
(536,40,o),
(568,59,cs),
(598,76,o),
(624,104,o),
(639,135,cs),
(644,147,o),
(648,160,o),
(649,174,cs),
(650,185,o),
(647,197,o),
(640,207,cs),
(634,214,o),
(626,220,o),
(617,224,cs),
(589,238,o),
(557,243,o),
(526,251,cs),
(522,252,o),
(507,256,o),
(504,259,cs),
(502,261,o),
(503,269,o),
(504,272,c),
(505,281,o),
(508,290,o),
(512,299,cs),
(527,340,o),
(545,382,o),
(548,425,cs),
(550,453,o),
(545,482,o),
(530,505,cs),
(524,515,o),
(514,523,o),
(504,528,c),
(502,536,o),
(487,537,o),
(478,538,cs),
(458,542,o),
(437,543,o),
(417,543,cs),
(351,544,o),
(284,540,o),
(222,519,cs),
(178,504,o),
(135,481,o),
(102,448,cs),
(81,426,o),
(66,398,o),
(54,370,cs),
(41,338,o),
(31,304,o),
(27,270,cs),
(19,210,o),
(29,145,o),
(58,92,cs),
(72,66,o),
(93,41,o),
(118,24,cs),
(157,-2,o),
(205,-16,o),
(252,-22,cs),
(325,-32,o),
(402,-18,o),
(470,9,cs)
);
},
{
closed = 1;
nodes = (
(182,29,o),
(156,40,o),
(135,57,cs),
(115,74,o),
(101,99,o),
(92,123,cs),
(80,153,o),
(73,185,o),
(71,217,cs),
(69,251,o),
(74,285,o),
(82,318,cs),
(90,352,o),
(101,387,o),
(121,415,cs),
(140,442,o),
(169,463,o),
(198,478,cs),
(244,502,o),
(298,512,o),
(350,517,cs),
(390,520,o),
(430,523,o),
(470,518,c),
(473,517,o),
(473,511,o),
(475,508,cs),
(477,505,o),
(481,503,o),
(484,500,c),
(494,486,o),
(501,469,o),
(504,451,cs),
(506,436,o),
(504,419,o),
(501,403,cs),
(492,364,o),
(474,327,o),
(464,287,cs),
(461,272,o),
(460,253,o),
(469,240,cs),
(478,228,o),
(493,222,o),
(508,218,cs),
(533,212,o),
(559,208,o),
(584,201,cs),
(594,198,o),
(612,193,o),
(613,183,cs),
(618,158,o),
(586,119,o),
(565,104,cs),
(529,76,o),
(487,55,o),
(444,39,cs),
(401,22,o),
(355,9,o),
(309,7,cs),
(275,6,o),
(240,11,o),
(208,21,cs)
);
},
{
closed = 1;
nodes = (
(303,198,o),
(318,206,o),
(328,219,cs),
(346,242,o),
(354,291,o),
(338,316,cs),
(331,326,o),
(321,333,o),
(310,339,c),
(311,346,o),
(307,351,o),
(300,352,cs),
(297,352,o),
(294,353,o),
(292,353,cs),
(287,353,o),
(269,349,o),
(265,347,cs),
(255,341,o),
(249,330,o),
(245,320,cs),
(236,301,o),
(214,239,o),
(218,218,cs),
(224,189,o),
(259,186,o),
(288,193,cs)
);
},
{
closed = 1;
nodes = (
(245,221,o),
(246,230,o),
(246,237,cs),
(248,258,o),
(255,278,o),
(262,298,cs),
(264,304,o),
(271,322,o),
(275,325,cs),
(276,326,o),
(279,328,o),
(280,327,cs),
(286,321,l),
(296,314,o),
(309,311,o),
(316,301,cs),
(322,293,o),
(320,281,o),
(319,271,cs),
(317,255,o),
(311,238,o),
(298,229,cs),
(285,220,o),
(267,218,o),
(252,220,cs)
);
}
);
width = 662;
}
);
note = e;
unicode = (101,232,233,234,235);
},
{
glyphname = f;
kernLeft = f;
layers = (
{
layerId = m01;
shapes = (
{
closed = 1;
nodes = (
(319,-77,o),
(334,-70,o),
(344,-59,cs),
(353,-49,o),
(360,-37,o),
(364,-25,cs),
(383,27,o),
(384,83,o),
(396,136,c),
(442,150,o),
(489,169,o),
(527,199,cs),
(540,209,o),
(551,222,o),
(558,237,cs),
(569,262,o),
(572,296,o),
(560,321,cs),
(553,335,o),
(540,346,o),
(526,354,cs),
(500,368,o),
(471,377,o),
(442,385,cs),
(437,386,o),
(405,393,o),
(399,395,c),
(407,408,o),
(461,463,o),
(471,475,cs),
(491,499,o),
(506,528,o),
(515,557,cs),
(530,604,o),
(537,658,o),
(522,705,cs),
(518,721,o),
(508,738,o),
(493,744,cs),
(491,745,o),
(490,745,o),
(490,746,c),
(482,767,o),
(455,756,o),
(436,748,cs),
(413,737,o),
(391,725,o),
(370,711,cs),
(342,691,o),
(317,668,o),
(289,647,cs),
(270,633,o),
(249,620,o),
(226,613,cs),
(204,606,o),
(181,602,o),
(159,595,cs),
(130,586,o),
(102,571,o),
(82,549,cs),
(63,527,o),
(52,497,o),
(46,468,cs),
(35,419,o),
(34,368,o),
(35,318,cs),
(36,262,o),
(38,205,o),
(49,150,cs),
(59,104,o),
(76,60,o),
(97,19,cs),
(107,-1,o),
(119,-22,o),
(136,-37,cs),
(161,-61,o),
(193,-79,o),
(227,-85,cs),
(252,-90,o),
(280,-89,o),
(305,-81,cs)
);
},
{
closed = 1;
nodes = (
(203,-33,o),
(185,-20,o),
(168,-8,cs),
(154,2,o),
(145,18,o),
(136,33,cs),
(116,67,o),
(102,104,o),
(90,141,cs),
(84,160,o),
(79,179,o),
(75,199,cs),
(69,235,o),
(67,272,o),
(66,308,cs),
(64,366,o),
(64,425,o),
(78,480,cs),
(84,502,o),
(95,523,o),
(112,537,cs),
(138,561,o),
(175,567,o),
(209,576,cs),
(236,582,o),
(263,593,o),
(287,607,cs),
(335,638,o),
(374,682,o),
(424,710,cs),
(431,714,o),
(462,730,o),
(470,732,c),
(472,733,o),
(472,728,o),
(473,727,cs),
(475,724,o),
(477,722,o),
(478,719,cs),
(488,693,o),
(493,664,o),
(489,636,cs),
(486,619,o),
(482,602,o),
(477,586,cs),
(472,569,o),
(466,553,o),
(457,538,cs),
(432,494,o),
(386,464,o),
(364,418,cs),
(359,408,o),
(354,396,o),
(356,385,cs),
(358,375,o),
(367,366,o),
(376,362,cs),
(386,358,o),
(396,357,o),
(407,355,cs),
(439,350,o),
(472,339,o),
(501,324,cs),
(510,319,o),
(519,314,o),
(523,305,cs),
(529,293,o),
(523,264,o),
(516,252,cs),
(502,228,o),
(428,195,o),
(402,186,cs),
(388,181,o),
(373,178,o),
(362,168,cs),
(354,160,o),
(353,147,o),
(351,136,cs),
(345,100,o),
(340,65,o),
(333,29,cs),
(330,15,o),
(327,-1,o),
(321,-14,cs),
(317,-23,o),
(310,-32,o),
(301,-36,cs),
(276,-45,o),
(248,-45,o),
(223,-38,cs)
);
}
);
width = 589;
}
);
note = f;
unicode = 102;
},
{
glyphname = g;
layers = (
{
layerId = m01;
shapes = (
{
closed = 1;
nodes = (
(357,-148,o),
(426,-122,o),
(490,-89,cs),
(529,-69,o),
(567,-46,o),
(600,-17,cs),
(633,13,o),
(663,48,o),
(684,87,cs),
(713,139,o),
(726,204,o),
(717,262,cs),
(713,283,o),
(707,303,o),
(698,321,cs),
(692,333,o),
(670,376,o),
(671,390,cs),
(671,393,o),
(667,404,o),
(667,407,c),
(678,444,o),
(688,483,o),
(686,521,cs),
(684,549,o),
(675,582,o),
(652,599,cs),
(630,616,o),
(580,597,o),
(555,583,c),
(552,582,o),
(552,581,o),
(550,582,cs),
(507,598,o),
(459,600,o),
(413,595,cs),
(340,588,o),
(268,562,o),
(204,527,cs),
(184,516,o),
(89,459,o),
(72,445,cs),
(55,432,o),
(40,416,o),
(30,397,cs),
(13,363,o),
(11,315,o),
(32,283,cs),
(50,256,o),
(73,231,o),
(99,210,cs),
(146,172,o),
(206,155,o),
(260,128,c),
(242,113,o),
(223,98,o),
(203,85,cs),
(187,74,o),
(171,64,o),
(154,54,c),
(152,52,o),
(153,48,o),
(151,47,cs),
(132,37,o),
(114,25,o),
(100,9,cs),
(84,-8,o),
(74,-29,o),
(69,-51,cs),
(66,-64,o),
(62,-77,o),
(65,-90,cs),
(67,-102,o),
(73,-114,o),
(80,-124,cs),
(107,-159,o),
(154,-181,o),
(198,-183,cs),
(228,-185,o),
(259,-178,o),
(288,-169,cs)
);
},
{
closed = 1;
nodes = (
(115,-124,o),
(96,-105,o),
(93,-83,cs),
(91,-66,o),
(108,-30,o),
(120,-17,cs),
(128,-7,o),
(139,1,o),
(149,9,cs),
(154,12,o),
(178,15,o),
(184,17,cs),
(192,19,o),
(200,22,o),
(209,25,c),
(210,25,o),
(218,28,o),
(220,29,cs),
(256,52,o),
(293,78,o),
(319,114,cs),
(332,131,o),
(321,154,o),
(303,168,cs),
(293,175,o),
(281,182,o),
(269,188,cs),
(223,212,o),
(175,233,o),
(131,261,cs),
(110,274,o),
(90,290,o),
(71,307,cs),
(68,309,o),
(59,320,o),
(58,322,cs),
(46,341,o),
(58,380,o),
(71,398,cs),
(79,408,o),
(120,444,o),
(131,451,cs),
(153,466,o),
(175,479,o),
(198,491,c),
(195,491,o),
(190,490,o),
(192,492,c),
(257,528,o),
(331,551,o),
(405,555,cs),
(444,558,o),
(483,556,o),
(520,545,c),
(523,531,o),
(535,523,o),
(550,526,cs),
(561,528,o),
(571,534,o),
(581,539,cs),
(597,547,o),
(614,554,o),
(631,558,cs),
(634,559,o),
(637,553,o),
(639,550,cs),
(644,542,o),
(648,533,o),
(650,524,cs),
(658,488,o),
(649,448,o),
(638,412,c),
(630,404,o),
(625,388,o),
(632,378,c),
(636,360,o),
(644,342,o),
(654,325,cs),
(657,319,o),
(676,288,o),
(679,281,cs),
(687,261,o),
(690,239,o),
(689,217,cs),
(689,194,o),
(685,170,o),
(678,148,cs),
(668,119,o),
(650,93,o),
(631,70,cs),
(606,40,o),
(578,13,o),
(546,-9,cs),
(509,-35,o),
(467,-54,o),
(426,-71,cs),
(369,-96,o),
(312,-118,o),
(254,-136,cs),
(216,-148,o),
(170,-151,o),
(135,-134,cs)
);
},
{
closed = 1;
nodes = (
(413,228,o),
(419,250,o),
(418,267,cs),
(416,291,o),
(405,314,o),
(391,334,cs),
(390,335,o),
(388,341,o),
(388,342,cs),
(386,353,o),
(368,361,o),
(358,363,cs),
(351,364,o),
(343,361,o),
(340,355,c),
(320,348,o),
(302,338,o),
(284,327,cs),
(275,321,o),
(265,312,o),
(265,302,cs),
(265,278,o),
(299,243,o),
(319,231,cs),
(338,220,o),
(380,206,o),
(398,218,cs)
);
},
{
closed = 1;
nodes = (
(339,247,o),
(313,265,o),
(298,288,c),
(294,292,o),
(288,299,o),
(293,303,cs),
(301,311,o),
(343,329,o),
(353,333,cs),
(356,334,o),
(356,334,o),
(358,332,cs),
(372,317,o),
(384,299,o),
(390,279,cs),
(394,268,o),
(394,255,o),
(389,244,cs),
(386,236,o),
(374,239,o),
(365,241,cs)
);
}
);
width = 748;
}
);
note = g;
unicode = 103;
},
{
glyphname = h;
kernLeft = f;
layers = (
{
layerId = m01;
shapes = (
{
closed = 1;
nodes = (
(607,-46,o),
(627,-38,o),
(640,-25,cs),
(654,-11,o),
(663,8,o),
(669,27,cs),
(695,112,o),
(691,209,o),
(665,294,cs),
(651,341,o),
(630,389,o),
(596,425,cs),
(578,444,o),
(555,458,o),
(530,467,cs),
(508,475,o),
(484,479,o),
(460,482,cs),
(443,484,o),
(376,486,o),
(361,494,c),
(357,497,o),
(353,511,o),
(351,516,c),
(342,551,o),
(335,587,o),
(323,622,cs),
(315,648,o),
(303,674,o),
(284,693,cs),
(266,710,o),
(238,719,o),
(213,718,c),
(210,717,o),
(205,716,o),
(203,713,cs),
(201,711,o),
(197,711,o),
(194,710,cs),
(180,704,o),
(167,695,o),
(156,684,cs),
(135,662,o),
(120,634,o),
(108,607,cs),
(71,521,o),
(50,428,o),
(41,336,cs),
(35,267,o),
(34,197,o),
(42,128,cs),
(49,64,o),
(76,-28,o),
(140,-32,cs),
(160,-33,o),
(180,-25,o),
(198,-16,cs),
(226,-2,o),
(251,17,o),
(275,36,cs),
(297,54,o),
(318,73,o),
(343,85,cs),
(354,90,o),
(367,92,o),
(378,90,cs),
(394,88,o),
(408,79,o),
(421,69,cs),
(461,39,o),
(491,-3,o),
(533,-30,cs),
(549,-41,o),
(569,-50,o),
(589,-48,cs)
);
},
{
closed = 1;
nodes = (
(511,26,o),
(479,67,o),
(438,97,cs),
(418,111,o),
(394,122,o),
(370,122,cs),
(344,123,o),
(318,110,o),
(296,95,cs),
(262,71,o),
(178,-5,o),
(137,5,cs),
(124,8,o),
(115,21,o),
(107,33,cs),
(94,55,o),
(86,81,o),
(81,106,cs),
(73,144,o),
(71,184,o),
(70,223,cs),
(69,347,o),
(84,475,o),
(129,591,cs),
(142,625,o),
(160,661,o),
(188,684,c),
(193,687,o),
(198,690,o),
(203,692,c),
(208,688,o),
(215,687,o),
(220,684,cs),
(235,675,o),
(250,665,o),
(260,651,cs),
(273,633,o),
(279,610,o),
(285,588,cs),
(290,573,o),
(307,494,o),
(315,480,cs),
(320,469,o),
(329,459,o),
(340,454,cs),
(361,444,o),
(386,446,o),
(410,445,cs),
(449,444,o),
(491,444,o),
(528,428,cs),
(562,414,o),
(588,381,o),
(605,348,cs),
(649,260,o),
(664,150,o),
(640,54,cs),
(636,37,o),
(630,19,o),
(618,5,cs),
(611,-4,o),
(600,-11,o),
(588,-11,cs),
(576,-12,o),
(564,-7,o),
(554,-1,cs)
);
}
);
width = 711;
}
);
note = h;
unicode = 104;
},
{
glyphname = i;
layers = (
{
layerId = m01;
shapes = (
{
closed = 1;
nodes = (
(409,45,o),
(425,78,o),
(440,108,cs),
(457,141,o),
(470,176,o),
(481,212,cs),
(491,249,o),
(500,288,o),
(500,326,cs),
(500,351,o),
(496,377,o),
(486,401,cs),
(472,433,o),
(448,460,o),
(422,484,cs),
(402,502,o),
(379,518,o),
(352,526,cs),
(339,529,o),
(325,529,o),
(312,528,c),
(308,527,o),
(295,524,o),
(292,525,cs),
(273,530,o),
(252,528,o),
(233,523,c),
(258,536,o),
(283,553,o),
(295,578,cs),
(303,595,o),
(302,615,o),
(296,632,cs),
(289,654,o),
(275,675,o),
(255,687,cs),
(233,699,o),
(204,703,o),
(180,696,c),
(167,705,o),
(144,696,o),
(132,687,cs),
(123,679,o),
(112,645,o),
(109,635,cs),
(103,612,o),
(97,588,o),
(100,565,cs),
(102,550,o),
(109,536,o),
(119,526,cs),
(138,509,o),
(167,504,o),
(192,507,c),
(156,491,o),
(120,472,o),
(86,451,cs),
(63,436,o),
(41,420,o),
(24,398,cs),
(8,376,o),
(9,352,o),
(28,332,cs),
(41,318,o),
(59,309,o),
(76,300,cs),
(88,294,o),
(136,274,o),
(144,262,cs),
(155,248,o),
(159,185,o),
(161,167,cs),
(163,144,o),
(166,122,o),
(170,100,cs),
(173,80,o),
(179,60,o),
(189,43,cs),
(196,33,o),
(205,23,o),
(216,17,cs),
(256,-6,o),
(343,0,o),
(381,26,cs)
);
},
{
closed = 1;
nodes = (
(120,565,o),
(126,613,o),
(133,635,c),
(139,632,o),
(146,633,o),
(148,640,cs),
(159,676,o),
(203,686,o),
(238,671,cs),
(262,661,o),
(282,626,o),
(279,600,cs),
(278,591,o),
(272,581,o),
(265,574,cs),
(243,551,o),
(211,532,o),
(178,531,cs),
(163,531,o),
(145,536,o),
(135,548,cs)
);
},
{
closed = 1;
nodes = (
(227,49,o),
(218,59,o),
(213,69,cs),
(203,90,o),
(199,113,o),
(196,136,cs),
(195,149,o),
(187,223,o),
(185,236,cs),
(183,251,o),
(180,268,o),
(171,281,cs),
(163,292,o),
(152,300,o),
(140,307,cs),
(124,316,o),
(59,344,o),
(49,360,cs),
(43,369,o),
(53,383,o),
(60,391,cs),
(75,408,o),
(94,420,o),
(112,431,cs),
(162,461,o),
(216,485,o),
(272,499,c),
(274,500,o),
(286,502,o),
(289,502,cs),
(291,502,o),
(300,496,o),
(302,496,c),
(305,494,o),
(310,495,o),
(313,496,c),
(326,503,o),
(349,487,o),
(361,479,cs),
(397,453,o),
(431,420,o),
(448,379,cs),
(459,353,o),
(460,322,o),
(458,294,cs),
(452,233,o),
(431,174,o),
(405,119,cs),
(396,98,o),
(385,77,o),
(368,62,cs),
(355,50,o),
(336,44,o),
(317,41,cs),
(291,36,o),
(262,34,o),
(237,44,cs)
);
}
);
width = 523;
}
);
note = i;
unicode = (105,236,237,238,239);
},
{
glyphname = j;
kernLeft = j;
lastChange = "2023-03-06 21:06:57 +0000";
layers = (
{
layerId = m01;
shapes = (
{
closed = 1;
nodes = (
(384,-158,o),
(404,-147,o),
(419,-132,cs),
(444,-107,o),
(459,-72,o),
(470,-38,cs),
(488,12,o),
(500,65,o),
(504,118,cs),
(510,185,o),
(504,252,o),
(497,319,cs),
(493,354,o),
(490,390,o),
(482,424,cs),
(480,433,o),
(480,443,o),
(475,451,cs),
(474,453,o),
(465,463,o),
(464,465,cs),
(461,469,o),
(460,474,o),
(456,477,c),
(453,478,o),
(450,479,o),
(447,479,c),
(451,489,o),
(441,500,o),
(431,496,cs),
(429,495,o),
(427,494,o),
(425,493,c),
(413,494,ls),
(394,495,o),
(306,480,o),
(287,477,c),
(322,490,o),
(347,526,o),
(347,562,cs),
(347,585,o),
(336,608,o),
(322,626,cs),
(313,637,o),
(301,648,o),
(286,651,cs),
(272,653,o),
(256,647,o),
(243,639,c),
(239,646,o),
(228,649,o),
(221,646,cs),
(200,638,o),
(185,616,o),
(179,595,cs),
(171,564,o),
(170,525,o),
(189,499,cs),
(205,477,o),
(239,468,o),
(266,471,c),
(230,462,o),
(194,450,o),
(160,436,cs),
(144,430,o),
(129,422,o),
(116,411,cs),
(105,401,o),
(100,383,o),
(102,367,cs),
(105,342,o),
(118,319,o),
(129,297,cs),
(145,264,o),
(163,232,o),
(180,199,cs),
(186,186,o),
(205,151,o),
(199,137,cs),
(186,103,o),
(83,77,o),
(50,61,cs),
(35,54,o),
(18,44,o),
(11,28,cs),
(6,17,o),
(5,1,o),
(12,-10,c),
(22,-31,o),
(42,-46,o),
(61,-58,cs),
(84,-73,o),
(109,-86,o),
(133,-98,cs),
(171,-117,o),
(210,-134,o),
(251,-148,cs),
(287,-160,o),
(326,-169,o),
(363,-162,cs)
);
},
{
closed = 1;
nodes = (
(201,533,o),
(201,577,o),
(208,597,cs),
(210,604,o),
(214,611,o),
(220,615,c),
(222,606,o),
(232,602,o),
(240,607,cs),
(250,614,o),
(261,621,o),
(272,623,cs),
(279,624,o),
(286,621,o),
(291,617,cs),
(301,608,o),
(309,594,o),
(313,581,cs),
(323,550,o),
(302,513,o),
(271,505,cs),
(252,501,o),
(228,503,o),
(215,518,cs)
);
},
{
closed = 1;
nodes = (
(235,-92,o),
(206,-81,o),
(178,-69,cs),
(149,-56,o),
(119,-43,o),
(92,-27,cs),
(80,-21,o),
(50,-2,o),
(46,10,c),
(46,12,o),
(48,14,o),
(49,15,cs),
(55,21,o),
(62,25,o),
(69,28,cs),
(108,47,o),
(151,57,o),
(189,80,cs),
(206,89,o),
(223,103,o),
(231,121,cs),
(236,132,o),
(237,145,o),
(235,157,cs),
(233,175,o),
(226,191,o),
(218,207,cs),
(195,253,o),
(167,298,o),
(146,345,cs),
(143,353,o),
(134,374,o),
(137,382,cs),
(142,394,o),
(176,409,o),
(188,414,cs),
(243,437,o),
(301,453,o),
(359,463,cs),
(373,465,o),
(386,467,o),
(400,468,cs),
(412,469,o),
(424,467,o),
(436,470,c),
(434,463,o),
(437,436,o),
(439,428,cs),
(443,411,o),
(452,319,o),
(453,301,cs),
(458,242,o),
(462,183,o),
(457,124,cs),
(452,58,o),
(434,-8,o),
(405,-66,cs),
(399,-77,o),
(392,-87,o),
(384,-95,cs),
(376,-103,o),
(366,-107,o),
(356,-109,cs),
(326,-115,o),
(294,-108,o),
(264,-100,cs)
);
}
);
width = 539;
}
);
note = j;
unicode = 106;
},
{
glyphname = k;
lastChange = "2023-03-06 21:06:57 +0000";
layers = (
{
layerId = m01;
shapes = (
{
closed = 1;
nodes = (
(323,38,o),
(341,72,o),
(373,90,c),
(383,97,o),
(398,97,o),
(409,93,cs),
(446,81,o),
(475,53,o),
(508,33,cs),
(536,15,o),
(568,-1,o),
(601,-5,cs),
(618,-7,o),
(637,-7,o),
(651,2,cs),
(695,28,o),
(674,91,o),
(649,136,cs),
(631,168,o),
(609,198,o),
(588,228,cs),
(577,242,o),
(544,283,o),
(546,301,cs),
(548,319,o),
(589,371,o),
(599,386,cs),
(615,409,o),
(630,433,o),
(636,460,cs),
(640,479,o),
(636,502,o),
(623,517,cs),
(611,531,o),
(593,539,o),
(576,543,cs),
(517,558,o),
(448,545,o),
(399,510,c),
(394,505,o),
(367,482,o),
(360,479,cs),
(358,478,o),
(358,479,o),
(356,479,c),
(350,487,o),
(344,495,o),
(339,504,cs),
(319,540,o),
(303,580,o),
(283,616,cs),
(269,642,o),
(250,668,o),
(226,685,cs),
(209,697,o),
(188,705,o),
(167,707,cs),
(138,711,o),
(92,710,o),
(82,683,cs),
(77,671,o),
(90,660,o),
(101,666,c),
(107,672,l),
(120,677,o),
(163,673,o),
(177,669,cs),
(200,663,o),
(220,645,o),
(234,626,cs),
(265,583,o),
(284,531,o),
(311,485,cs),
(319,472,o),
(329,458,o),
(343,451,cs),
(355,445,o),
(369,447,o),
(381,456,cs),
(401,473,o),
(420,492,o),
(443,504,cs),
(479,523,o),
(559,530,o),
(593,507,cs),
(600,503,o),
(606,496,o),
(608,488,cs),
(618,454,o),
(563,387,o),
(543,358,cs),
(534,347,o),
(526,334,o),
(520,321,cs),
(513,306,o),
(514,287,o),
(522,273,cs),
(531,254,o),
(599,160,o),
(610,142,cs),
(625,119,o),
(639,95,o),
(644,68,cs),
(646,59,o),
(647,40,o),
(640,33,cs),
(630,22,o),
(599,27,o),
(584,31,cs),
(532,46,o),
(490,85,o),
(441,110,cs),
(427,117,o),
(412,122,o),
(396,123,cs),
(376,123,o),
(356,113,o),
(341,101,cs),
(311,75,o),
(289,40,o),
(255,20,cs),
(236,8,o),
(206,4,o),
(186,15,cs),
(135,42,o),
(102,182,o),
(90,238,cs),
(71,332,o),
(64,429,o),
(67,525,cs),
(68,570,o),
(72,615,o),
(76,660,cs),
(76,663,o),
(79,666,o),
(80,669,cs),
(83,685,o),
(73,703,o),
(60,693,cs),
(56,690,o),
(55,684,o),
(55,680,cs),
(43,586,o),
(36,492,o),
(40,397,cs),
(45,301,o),
(60,205,o),
(91,114,cs),
(99,88,o),
(110,62,o),
(123,39,cs),
(133,22,o),
(145,6,o),
(160,-5,cs),
(171,-14,o),
(185,-19,o),
(199,-21,cs),
(233,-25,o),
(271,-9,o),
(296,14,cs)
);
}
);
width = 695;
}
);
note = k;
unicode = 107;
},
{
glyphname = l;
kernLeft = f;
lastChange = "2023-03-06 21:06:57 +0000";
layers = (
{
layerId = m01;
shapes = (
{
closed = 1;
nodes = (
(311,17,o),
(352,35,o),
(390,58,cs),
(436,85,o),
(481,123,o),
(505,171,cs),
(513,187,o),
(518,205,o),
(518,223,cs),
(517,238,o),
(511,251,o),
(500,261,cs),
(486,274,o),
(466,280,o),
(447,285,cs),
(423,292,o),
(354,307,o),
(341,328,cs),
(331,343,o),
(328,363,o),
(328,381,cs),
(328,403,o),
(329,424,o),
(329,445,cs),
(331,488,o),
(329,532,o),
(325,575,cs),
(324,589,o),
(320,633,o),
(311,643,cs),
(306,649,o),
(309,661,o),
(303,665,c),
(303,665,o),
(302,667,o),
(301,667,c),
(307,673,o),
(304,683,o),
(296,684,cs),
(280,686,o),
(263,689,o),
(247,693,cs),
(228,698,o),
(209,705,o),
(189,704,cs),
(135,702,o),
(108,613,o),
(93,562,cs),
(77,502,o),
(64,441,o),
(54,380,cs),
(43,319,o),
(35,257,o),
(33,195,cs),
(32,145,o),
(36,91,o),
(62,48,cs),
(83,14,o),
(115,-7,o),
(155,-11,cs),
(193,-16,o),
(233,-8,o),
(270,4,cs)
);
},
{
closed = 1;
nodes = (
(104,51,o),
(94,66,o),
(87,81,cs),
(75,107,o),
(71,136,o),
(68,164,cs),
(62,233,o),
(70,303,o),
(81,371,cs),
(88,414,o),
(96,457,o),
(105,499,cs),
(115,543,o),
(137,656,o),
(176,677,cs),
(183,681,o),
(191,682,o),
(199,681,cs),
(218,679,o),
(237,671,o),
(256,668,c),
(259,667,o),
(263,669,o),
(266,668,c),
(288,665,ls),
(292,665,o),
(287,661,o),
(287,657,cs),
(287,649,o),
(283,642,o),
(282,634,cs),
(281,630,o),
(282,626,o),
(283,622,cs),
(288,598,o),
(292,481,o),
(292,457,cs),
(291,427,o),
(287,397,o),
(290,367,cs),
(292,347,o),
(296,326,o),
(308,311,cs),
(318,298,o),
(333,288,o),
(348,281,cs),
(370,271,o),
(394,265,o),
(418,260,cs),
(437,256,o),
(479,247,o),
(485,229,cs),
(494,205,o),
(463,164,o),
(446,145,cs),
(407,103,o),
(353,75,o),
(300,54,cs),
(265,40,o),
(228,27,o),
(190,24,cs),
(165,23,o),
(137,27,o),
(117,41,cs)
);
}
);
width = 532;
}
);
note = l;
unicode = 108;
},
{
glyphname = m;
kernLeft = F;
kernRight = H;
layers = (
{
layerId = m01;
shapes = (
{
closed = 1;
nodes = (
(238,70,o),
(247,99,o),
(259,126,cs),
(267,146,o),
(275,166,o),
(287,183,cs),
(291,189,o),
(299,199,o),
(305,197,cs),
(312,194,o),
(321,177,o),
(324,171,cs),
(349,125,o),
(407,9,o),
(458,0,cs),
(466,-1,o),
(475,0,o),
(482,3,cs),
(492,8,o),
(500,17,o),
(506,26,cs),
(520,45,o),
(569,152,o),
(586,169,c),
(589,171,o),
(591,172,o),
(592,170,c),
(603,156,o),
(652,67,o),
(661,53,cs),
(675,34,o),
(689,15,o),
(707,0,cs),
(718,-8,o),
(732,-8,o),
(741,2,cs),
(749,10,o),
(768,50,o),
(772,60,cs),
(808,144,o),
(835,234,o),
(837,325,cs),
(838,367,o),
(836,411,o),
(823,451,cs),
(817,472,o),
(803,493,o),
(783,501,cs),
(759,511,o),
(729,507,o),
(705,497,cs),
(658,479,o),
(620,441,o),
(573,422,c),
(570,420,o),
(560,417,o),
(557,417,cs),
(538,418,o),
(489,461,o),
(473,471,cs),
(451,487,o),
(427,501,o),
(403,514,cs),
(383,526,o),
(359,536,o),
(335,536,cs),
(324,536,o),
(313,534,o),
(302,530,cs),
(281,522,o),
(264,505,o),
(248,490,cs),
(244,487,o),
(232,475,o),
(228,474,cs),
(216,471,o),
(172,481,o),
(160,484,cs),
(143,489,o),
(79,509,o),
(62,506,cs),
(55,505,o),
(48,499,o),
(44,493,c),
(37,499,o),
(26,496,o),
(25,487,cs),
(22,472,o),
(29,404,o),
(30,389,cs),
(41,289,o),
(66,191,o),
(100,98,cs),
(111,69,o),
(138,-7,o),
(166,-18,cs),
(198,-31,o),
(214,10,o),
(227,42,cs)
);
},
{
closed = 1;
nodes = (
(111,182,o),
(87,272,o),
(69,362,cs),
(62,395,o),
(55,428,o),
(50,461,c),
(99,456,o),
(146,441,o),
(194,432,cs),
(207,430,o),
(220,428,o),
(233,431,cs),
(269,439,o),
(287,484,o),
(322,494,cs),
(332,497,o),
(343,495,o),
(353,491,cs),
(393,476,o),
(430,455,o),
(465,431,cs),
(487,416,o),
(506,398,o),
(530,387,cs),
(543,380,o),
(560,383,o),
(574,388,cs),
(593,395,o),
(678,452,o),
(696,462,cs),
(718,474,o),
(760,487,o),
(779,470,cs),
(804,448,o),
(806,364,o),
(805,330,cs),
(802,263,o),
(787,196,o),
(764,133,cs),
(759,118,o),
(730,46,o),
(722,33,c),
(680,73,o),
(654,128,o),
(624,178,cs),
(620,186,o),
(614,194,o),
(607,201,cs),
(594,214,o),
(572,207,o),
(560,192,cs),
(527,154,o),
(509,106,o),
(484,63,cs),
(479,54,o),
(474,43,o),
(465,37,c),
(459,40,o),
(454,43,o),
(448,47,cs),
(410,77,o),
(386,123,o),
(361,166,cs),
(352,182,o),
(343,199,o),
(329,212,cs),
(311,229,o),
(283,221,o),
(267,202,cs),
(256,189,o),
(248,174,o),
(240,160,cs),
(231,142,o),
(191,41,o),
(180,25,c),
(165,47,o),
(155,72,o),
(146,97,cs)
);
}
);
width = 865;
}
);
note = m;
unicode = 109;
},
{
glyphname = n;
kernLeft = F;
layers = (
{
layerId = m01;
shapes = (
{
closed = 1;
nodes = (
(588,46,o),
(606,182,o),
(610,232,cs),
(613,271,o),
(614,311,o),
(609,350,cs),
(606,381,o),
(595,414,o),
(576,439,cs),
(547,475,o),
(501,501,o),
(455,509,cs),
(423,515,o),
(388,511,o),
(357,501,cs),
(326,491,o),
(296,475,o),
(267,458,cs),
(262,455,o),
(243,443,o),
(237,442,cs),
(234,442,o),
(230,443,o),
(226,444,cs),
(179,461,o),
(136,487,o),
(87,496,cs),
(70,500,o),
(49,495,o),
(45,477,cs),
(44,474,o),
(39,475,o),
(36,474,cs),
(30,471,o),
(26,464,o),
(25,457,cs),
(24,447,o),
(29,397,o),
(30,386,cs),
(38,296,o),
(46,203,o),
(76,117,cs),
(85,87,o),
(99,57,o),
(122,36,cs),
(139,20,o),
(163,8,o),
(186,7,cs),
(198,6,o),
(212,10,o),
(222,17,cs),
(235,26,o),
(244,40,o),
(251,55,cs),
(264,79,o),
(273,105,o),
(287,129,cs),
(294,140,o),
(302,153,o),
(315,159,cs),
(322,163,o),
(330,154,o),
(335,147,cs),
(367,108,o),
(395,64,o),
(436,34,cs),
(467,11,o),
(521,-13,o),
(550,13,cs)
);
},
{
closed = 1;
nodes = (
(444,62,o),
(422,85,o),
(400,107,cs),
(383,124,o),
(346,181,o),
(322,182,cs),
(305,183,o),
(288,168,o),
(278,154,cs),
(256,126,o),
(246,90,o),
(226,59,cs),
(221,51,o),
(214,41,o),
(204,37,cs),
(187,30,o),
(156,45,o),
(142,58,cs),
(124,75,o),
(114,100,o),
(105,123,cs),
(67,220,o),
(60,327,o),
(48,431,c),
(52,430,o),
(57,430,o),
(61,433,cs),
(65,436,o),
(74,452,o),
(76,456,c),
(100,459,o),
(177,422,o),
(199,413,cs),
(211,408,o),
(223,403,o),
(235,405,cs),
(259,409,o),
(278,425,o),
(298,437,cs),
(335,459,o),
(374,481,o),
(417,484,cs),
(464,487,o),
(518,466,o),
(550,431,cs),
(577,402,o),
(584,357,o),
(586,317,cs),
(588,248,o),
(579,179,o),
(562,112,cs),
(557,93,o),
(545,42,o),
(528,33,cs),
(514,26,o),
(484,39,o),
(471,47,cs)
);
}
);
width = 641;
}
);
note = n;
unicode = (110,241);
},
{
glyphname = o;
kernRight = a;
layers = (
{
layerId = m01;
shapes = (
{
closed = 1;
nodes = (
(518,148,o),
(532,189,o),
(543,230,cs),
(551,265,o),
(558,301,o),
(560,337,cs),
(563,368,o),
(562,400,o),
(549,429,cs),
(537,457,o),
(514,481,o),
(491,502,cs),
(468,524,o),
(443,544,o),
(416,561,cs),
(404,569,o),
(391,576,o),
(377,576,cs),
(363,577,o),
(349,571,o),
(338,564,c),
(290,565,o),
(243,556,o),
(197,546,cs),
(164,538,o),
(131,528,o),
(102,511,cs),
(83,499,o),
(66,482,o),
(54,463,cs),
(33,430,o),
(27,389,o),
(25,350,cs),
(23,294,o),
(32,237,o),
(53,186,cs),
(75,132,o),
(110,81,o),
(157,46,cs),
(195,18,o),
(243,0,o),
(290,-1,cs),
(370,-2,o),
(453,43,o),
(495,112,cs)
);
},
{
closed = 1;
nodes = (
(177,79,o),
(139,111,o),
(114,150,cs),
(61,230,o),
(31,389,o),
(90,464,cs),
(110,490,o),
(142,506,o),
(174,516,cs),
(224,531,o),
(276,540,o),
(329,543,c),
(332,538,o),
(337,535,o),
(343,536,cs),
(347,537,o),
(351,542,o),
(355,541,cs),
(364,540,o),
(374,537,o),
(383,535,c),
(383,535,o),
(388,535,o),
(388,534,c),
(391,533,o),
(398,525,o),
(400,524,c),
(411,515,o),
(469,463,o),
(479,453,cs),
(495,437,o),
(510,419,o),
(517,397,cs),
(528,360,o),
(521,319,o),
(514,281,cs),
(504,225,o),
(490,166,o),
(456,121,cs),
(423,78,o),
(367,47,o),
(312,41,cs),
(281,38,o),
(248,45,o),
(219,59,cs)
);
},
{
closed = 1;
nodes = (
(297,195,o),
(315,224,o),
(319,250,cs),
(323,275,o),
(308,320,o),
(287,333,cs),
(276,340,o),
(264,328,o),
(270,317,cs),
(271,315,o),
(268,316,o),
(266,318,c),
(263,323,o),
(257,326,o),
(251,328,cs),
(241,332,o),
(227,334,o),
(216,329,cs),
(192,320,o),
(172,289,o),
(173,262,cs),
(175,227,o),
(209,188,o),
(243,181,cs),
(252,179,o),
(263,180,o),
(272,184,cs)
);
},
{
closed = 1;
nodes = (
(239,217,o),
(229,228,o),
(221,237,cs),
(213,246,o),
(205,260,o),
(206,273,cs),
(207,283,o),
(217,302,o),
(226,306,cs),
(234,310,o),
(243,305,o),
(251,302,c),
(252,301,o),
(258,301,o),
(259,300,c),
(265,297,o),
(273,292,o),
(279,296,c),
(280,296,o),
(280,294,o),
(281,293,c),
(284,285,o),
(287,276,o),
(287,267,cs),
(288,250,o),
(279,232,o),
(265,221,cs),
(261,218,o),
(256,215,o),
(250,215,c)
);
}
);
width = 585;
}
);
note = o;
unicode = (111,242,243,244,245,246,248);
},
{
glyphname = p;
kernLeft = p;
layers = (
{
layerId = m01;
shapes = (
{
closed = 1;
nodes = (
(289,-121,o),
(301,-107,o),
(309,-93,cs),
(327,-60,o),
(335,-23,o),
(345,13,cs),
(350,30,o),
(355,47,o),
(364,61,cs),
(370,69,o),
(377,75,o),
(386,79,cs),
(398,84,o),
(469,101,o),
(482,106,cs),
(505,113,o),
(528,124,o),
(543,142,cs),
(564,166,o),
(572,200,o),
(577,232,cs),
(586,295,o),
(577,355,o),
(551,412,cs),
(540,434,o),
(528,456,o),
(511,474,cs),
(481,507,o),
(435,523,o),
(391,534,cs),
(372,539,o),
(280,558,o),
(262,567,cs),
(242,577,o),
(233,601,o),
(215,613,cs),
(203,621,o),
(187,624,o),
(173,621,cs),
(154,617,o),
(138,604,o),
(123,592,c),
(113,590,o),
(103,585,o),
(97,577,cs),
(90,568,o),
(86,557,o),
(83,547,cs),
(57,478,o),
(46,405,o),
(39,332,cs),
(30,233,o),
(33,127,o),
(70,34,cs),
(91,-20,o),
(126,-71,o),
(172,-106,cs),
(189,-119,o),
(208,-130,o),
(229,-134,cs),
(244,-137,o),
(260,-135,o),
(273,-129,cs)
);
},
{
closed = 1;
nodes = (
(207,-89,o),
(190,-74,o),
(174,-59,cs),
(131,-19,o),
(103,38,o),
(88,94,cs),
(63,184,o),
(64,281,o),
(72,374,cs),
(76,428,o),
(84,482,o),
(101,533,cs),
(103,539,o),
(104,547,o),
(110,550,c),
(125,561,o),
(166,588,o),
(185,585,cs),
(195,583,o),
(200,571,o),
(205,563,cs),
(214,548,o),
(228,536,o),
(243,529,cs),
(267,517,o),
(295,513,o),
(321,509,cs),
(369,500,o),
(419,495,o),
(461,470,cs),
(483,457,o),
(500,437,o),
(513,415,cs),
(543,366,o),
(556,302,o),
(549,244,cs),
(547,227,o),
(543,209,o),
(538,192,cs),
(534,177,o),
(527,162,o),
(516,152,cs),
(503,141,o),
(485,135,o),
(469,131,cs),
(447,124,o),
(425,119,o),
(403,113,cs),
(387,109,o),
(370,104,o),
(357,94,cs),
(345,85,o),
(337,72,o),
(330,59,cs),
(300,-6,o),
(294,-122,o),
(228,-97,cs)
);
},
{
closed = 1;
nodes = (
(346,172,o),
(360,223,o),
(346,265,cs),
(342,278,o),
(332,291,o),
(320,298,c),
(319,302,o),
(315,305,o),
(312,306,c),
(308,309,o),
(293,320,o),
(289,321,cs),
(284,322,o),
(276,319,o),
(273,316,cs),
(258,298,o),
(246,277,o),
(236,255,cs),
(230,243,o),
(225,229,o),
(225,215,cs),
(227,179,o),
(267,161,o),
(302,166,cs)
);
},
{
closed = 1;
nodes = (
(255,205,o),
(252,210,o),
(252,217,cs),
(251,232,o),
(273,277,o),
(281,290,c),
(284,284,o),
(305,275,o),
(310,271,cs),
(325,259,o),
(328,228,o),
(320,210,cs),
(310,188,o),
(281,189,o),
(261,201,cs)
);
}
);
width = 603;
}
);
note = p;
unicode = 112;
},
{
glyphname = q;
kernRight = U;
layers = (
{
layerId = m01;
shapes = (
{
closed = 1;
nodes = (
(499,-75,o),
(555,57,o),
(569,92,cs),
(595,155,o),
(618,220,o),
(639,285,cs),
(653,334,o),
(667,383,o),
(672,433,cs),
(675,462,o),
(676,492,o),
(666,519,cs),
(659,538,o),
(644,556,o),
(626,567,cs),
(597,584,o),
(563,591,o),
(530,595,cs),
(510,597,o),
(442,601,o),
(424,593,cs),
(420,591,o),
(420,596,o),
(418,599,c),
(415,607,o),
(393,615,o),
(384,618,cs),
(364,625,o),
(345,633,o),
(324,636,cs),
(267,643,o),
(154,561,o),
(112,521,cs),
(30,442,o),
(-14,293,o),
(55,201,cs),
(79,169,o),
(117,145,o),
(156,136,cs),
(195,127,o),
(236,135,o),
(275,126,cs),
(286,124,o),
(296,118,o),
(304,110,cs),
(311,103,o),
(316,93,o),
(321,83,cs),
(335,51,o),
(342,16,o),
(355,-18,cs),
(377,-76,o),
(427,-143,o),
(472,-100,cs)
);
},
{
closed = 1;
nodes = (
(412,-58,o),
(401,-40,o),
(392,-22,cs),
(368,29,o),
(363,90,o),
(327,132,cs),
(316,145,o),
(300,155,o),
(283,159,cs),
(246,169,o),
(206,162,o),
(169,169,cs),
(139,175,o),
(110,191,o),
(90,213,cs),
(71,235,o),
(57,264,o),
(55,293,cs),
(49,366,o),
(76,442,o),
(129,496,cs),
(168,536,o),
(216,567,o),
(265,592,cs),
(284,602,o),
(305,613,o),
(326,609,cs),
(339,607,o),
(386,596,o),
(396,588,cs),
(402,584,o),
(411,580,o),
(411,573,cs),
(410,563,o),
(418,553,o),
(428,551,cs),
(440,548,o),
(501,552,o),
(514,552,cs),
(536,551,o),
(559,549,o),
(581,544,cs),
(597,540,o),
(614,533,o),
(624,520,cs),
(634,509,o),
(638,492,o),
(639,477,cs),
(641,434,o),
(630,392,o),
(619,351,cs),
(599,277,o),
(573,205,o),
(547,133,cs),
(529,85,o),
(510,37,o),
(488,-9,cs),
(480,-27,o),
(472,-44,o),
(461,-61,cs),
(458,-66,o),
(449,-80,o),
(443,-81,cs),
(439,-82,o),
(431,-75,o),
(427,-72,cs)
);
},
{
closed = 1;
nodes = (
(405,292,o),
(424,333,o),
(409,364,cs),
(402,378,o),
(388,389,o),
(373,396,c),
(378,401,o),
(377,409,o),
(370,412,cs),
(366,414,o),
(347,415,o),
(343,415,cs),
(325,415,o),
(305,405,o),
(295,391,cs),
(287,380,o),
(284,366,o),
(283,353,cs),
(280,335,o),
(281,316,o),
(286,298,cs),
(298,260,o),
(344,251,o),
(377,273,cs)
);
},
{
closed = 1;
nodes = (
(306,319,o),
(304,360,o),
(311,375,cs),
(314,382,o),
(321,387,o),
(327,391,c),
(328,388,o),
(329,385,o),
(331,383,cs),
(335,378,o),
(362,367,o),
(367,364,cs),
(373,359,o),
(380,354,o),
(383,346,cs),
(388,332,o),
(375,310,o),
(363,301,cs),
(348,288,o),
(323,286,o),
(314,304,cs)
);
}
);
width = 698;
}
);
note = q;
unicode = 113;
},
{
glyphname = r;
kernLeft = N;
layers = (
{
layerId = m01;
shapes = (
{
closed = 1;
nodes = (
(306,-3,o),
(319,2,o),
(329,11,cs),
(348,28,o),
(358,54,o),
(367,78,cs),
(387,132,o),
(398,189,o),
(425,240,cs),
(435,259,o),
(451,279,o),
(471,288,cs),
(493,297,o),
(518,297,o),
(540,305,cs),
(562,313,o),
(583,329,o),
(593,349,cs),
(605,374,o),
(604,404,o),
(600,431,cs),
(595,465,o),
(581,503,o),
(552,522,cs),
(531,536,o),
(505,541,o),
(481,545,cs),
(432,553,o),
(382,557,o),
(332,558,cs),
(326,558,o),
(323,557,o),
(320,552,c),
(290,557,o),
(261,565,o),
(231,572,cs),
(185,583,o),
(131,583,o),
(88,562,cs),
(70,553,o),
(52,538,o),
(41,520,cs),
(29,498,o),
(24,472,o),
(23,447,cs),
(22,412,o),
(27,378,o),
(34,344,cs),
(58,238,o),
(111,135,o),
(185,57,cs),
(202,38,o),
(222,21,o),
(244,9,cs),
(259,1,o),
(276,-6,o),
(293,-5,cs)
);
},
{
closed = 1;
nodes = (
(249,44,o),
(235,56,o),
(222,68,cs),
(134,154,o),
(72,276,o),
(57,398,cs),
(54,423,o),
(54,449,o),
(59,474,cs),
(62,492,o),
(72,510,o),
(86,522,cs),
(101,536,o),
(122,543,o),
(142,547,cs),
(167,552,o),
(194,552,o),
(218,547,cs),
(232,545,o),
(311,529,o),
(324,526,cs),
(327,525,o),
(331,524,o),
(335,524,cs),
(339,525,o),
(350,520,o),
(353,518,c),
(362,515,o),
(369,520,o),
(368,529,c),
(414,525,o),
(460,523,o),
(505,512,cs),
(518,509,o),
(531,504,o),
(541,496,cs),
(554,486,o),
(561,469,o),
(566,453,cs),
(571,437,o),
(574,419,o),
(575,402,cs),
(576,390,o),
(576,377,o),
(571,365,cs),
(565,351,o),
(551,339,o),
(536,333,cs),
(511,322,o),
(481,322,o),
(456,309,cs),
(430,297,o),
(411,271,o),
(397,246,cs),
(369,191,o),
(357,130,o),
(333,74,cs),
(326,58,o),
(318,41,o),
(304,32,cs),
(293,25,o),
(276,29,o),
(265,36,cs)
);
}
);
width = 619;
}
);
note = r;
unicode = 114;
},
{
glyphname = s;
layers = (
{
layerId = m01;
shapes = (
{
closed = 1;
nodes = (
(277,-51,o),
(328,-34,o),
(374,-10,cs),
(426,16,o),
(477,50,o),
(516,95,cs),
(543,126,o),
(565,164,o),
(578,204,cs),
(585,226,o),
(591,249,o),
(590,272,cs),
(590,285,o),
(586,299,o),
(579,310,cs),
(568,327,o),
(548,338,o),
(529,344,cs),
(500,353,o),
(470,356,o),
(441,364,c),
(443,371,o),
(447,378,o),
(450,384,cs),
(463,410,o),
(478,437,o),
(479,466,cs),
(480,494,o),
(466,524,o),
(445,542,cs),
(421,562,o),
(390,573,o),
(359,579,cs),
(356,580,o),
(352,578,o),
(348,577,c),
(326,575,o),
(303,571,o),
(282,564,cs),
(230,548,o),
(183,517,o),
(141,482,cs),
(92,440,o),
(2,345,o),
(17,282,cs),
(20,267,o),
(31,253,o),
(45,245,cs),
(82,222,o),
(129,221,o),
(171,207,c),
(176,206,o),
(186,203,o),
(188,198,c),
(189,191,o),
(178,175,o),
(174,169,cs),
(159,147,o),
(141,127,o),
(127,105,cs),
(113,83,o),
(101,60,o),
(95,35,cs),
(92,20,o),
(91,4,o),
(96,-10,cs),
(111,-50,o),
(183,-57,o),
(225,-55,cs)
);
},
{
closed = 1;
nodes = (
(172,-21,o),
(136,-14,o),
(127,-4,cs),
(119,4,o),
(121,19,o),
(124,30,cs),
(134,73,o),
(166,108,o),
(192,144,cs),
(200,156,o),
(209,168,o),
(214,182,cs),
(218,191,o),
(219,202,o),
(215,212,cs),
(210,225,o),
(195,233,o),
(182,237,cs),
(153,246,o),
(63,256,o),
(47,281,cs),
(41,291,o),
(43,304,o),
(46,314,cs),
(52,337,o),
(64,359,o),
(78,378,cs),
(108,421,o),
(146,457,o),
(188,488,cs),
(233,522,o),
(286,549,o),
(342,557,cs),
(351,558,o),
(379,545,o),
(387,542,cs),
(403,535,o),
(421,527,o),
(431,513,cs),
(442,499,o),
(447,479,o),
(444,462,cs),
(439,435,o),
(422,412,o),
(411,387,cs),
(406,378,o),
(401,366,o),
(405,357,cs),
(408,350,o),
(412,343,o),
(418,340,cs),
(428,333,o),
(441,331,o),
(453,330,cs),
(481,326,o),
(542,315,o),
(554,289,cs),
(560,275,o),
(558,258,o),
(555,242,cs),
(550,217,o),
(539,193,o),
(526,171,cs),
(495,116,o),
(443,72,o),
(389,39,cs),
(328,2,o),
(256,-28,o),
(185,-22,cs)
);
}
);
width = 607;
}
);
note = s;
unicode = 115;
},
{
glyphname = t;
lastChange = "2023-03-06 21:06:57 +0000";
layers = (
{
layerId = m01;
shapes = (
{
closed = 1;
nodes = (
(392,-26,o),
(474,-11,o),
(545,26,cs),
(601,54,o),
(683,132,o),
(679,194,cs),
(678,209,o),
(672,223,o),
(664,235,cs),
(649,257,o),
(624,271,o),
(599,279,cs),
(559,291,o),
(514,290,o),
(472,286,cs),
(455,284,o),
(437,281,o),
(419,281,c),
(421,293,o),
(435,350,o),
(440,361,cs),
(441,364,o),
(444,365,o),
(447,366,cs),
(474,372,o),
(503,376,o),
(527,388,cs),
(539,394,o),
(551,403,o),
(557,415,cs),
(574,450,o),
(550,493,o),
(516,513,cs),
(484,532,o),
(448,542,o),
(413,555,cs),
(401,560,o),
(389,565,o),
(381,574,cs),
(376,580,o),
(351,615,o),
(346,621,cs),
(332,638,o),
(316,656,o),
(295,661,c),
(286,662,o),
(277,661,o),
(269,658,cs),
(261,655,o),
(225,634,o),
(217,629,cs),
(185,608,o),
(154,585,o),
(127,558,cs),
(91,523,o),
(60,482,o),
(36,438,cs),
(28,424,o),
(20,408,o),
(17,392,cs),
(14,379,o),
(16,362,o),
(26,352,cs),
(34,343,o),
(47,338,o),
(59,336,cs),
(82,332,o),
(107,335,o),
(131,334,cs),
(134,334,o),
(144,334,o),
(146,331,cs),
(148,327,o),
(147,316,o),
(146,312,cs),
(136,264,o),
(116,218,o),
(103,171,cs),
(94,141,o),
(87,107,o),
(96,77,cs),
(110,29,o),
(150,-12,o),
(197,-26,cs),
(234,-37,o),
(274,-37,o),
(312,-34,cs)
);
},
{
closed = 1;
nodes = (
(160,28,o),
(138,53,o),
(127,81,cs),
(119,104,o),
(124,129,o),
(130,152,cs),
(135,175,o),
(175,294,o),
(178,318,cs),
(180,331,o),
(176,348,o),
(166,357,cs),
(156,367,o),
(139,369,o),
(125,370,cs),
(117,371,o),
(75,372,o),
(67,373,cs),
(64,373,o),
(55,375,o),
(54,377,c),
(51,380,o),
(53,387,o),
(54,391,cs),
(64,422,o),
(82,451,o),
(101,478,cs),
(128,518,o),
(160,554,o),
(197,585,cs),
(215,599,o),
(232,613,o),
(251,623,cs),
(253,624,o),
(256,623,o),
(259,624,cs),
(266,625,o),
(273,621,o),
(280,622,cs),
(283,623,o),
(286,626,o),
(288,630,c),
(300,623,o),
(328,584,o),
(336,572,cs),
(345,558,o),
(356,543,o),
(371,534,cs),
(384,527,o),
(456,502,o),
(469,497,cs),
(494,486,o),
(529,466,o),
(522,440,cs),
(520,433,o),
(506,428,o),
(499,426,cs),
(483,421,o),
(467,419,o),
(450,416,cs),
(433,413,o),
(414,409,o),
(402,396,cs),
(389,381,o),
(373,317,o),
(370,297,cs),
(368,279,o),
(368,255,o),
(381,242,cs),
(389,235,o),
(402,232,o),
(413,232,c),
(462,241,ls),
(500,250,o),
(541,250,o),
(579,243,cs),
(594,240,o),
(610,235,o),
(622,226,cs),
(630,220,o),
(637,210,o),
(640,200,cs),
(646,182,o),
(635,162,o),
(625,146,cs),
(606,118,o),
(580,94,o),
(552,75,cs),
(496,37,o),
(427,21,o),
(361,9,cs),
(328,3,o),
(294,-1,o),
(260,-1,cs),
(235,-1,o),
(208,2,o),
(186,14,cs)
);
}
);
width = 694;
}
);
note = t;
unicode = 116;
},
{
glyphname = u;
kernLeft = p;
lastChange = "2023-03-06 21:06:57 +0000";
layers = (
{
layerId = m01;
shapes = (
{
closed = 1;
nodes = (
(260,-31,o),
(300,-17,o),
(333,4,cs),
(362,23,o),
(386,48,o),
(412,70,c),
(418,74,o),
(430,84,o),
(437,82,cs),
(447,79,o),
(475,52,o),
(483,45,cs),
(510,21,o),
(545,-4,o),
(582,-2,cs),
(597,-1,o),
(613,4,o),
(626,14,cs),
(647,30,o),
(660,56,o),
(668,82,cs),
(680,115,o),
(688,151,o),
(693,187,cs),
(704,260,o),
(710,341,o),
(681,409,cs),
(672,432,o),
(657,453,o),
(637,466,cs),
(621,475,o),
(601,480,o),
(584,476,cs),
(562,471,o),
(543,457,o),
(526,442,cs),
(486,408,o),
(454,365,o),
(414,330,cs),
(402,319,o),
(388,309,o),
(373,303,cs),
(365,300,o),
(358,302,o),
(353,308,c),
(344,316,l),
(329,334,o),
(321,357,o),
(313,379,cs),
(299,415,o),
(288,455,o),
(262,484,cs),
(244,504,o),
(216,519,o),
(190,517,cs),
(163,515,o),
(140,499,o),
(117,486,cs),
(103,477,o),
(113,454,o),
(129,459,cs),
(144,463,o),
(158,470,o),
(173,473,cs),
(183,476,o),
(196,478,o),
(206,474,cs),
(221,468,o),
(234,454,o),
(241,440,cs),
(259,405,o),
(267,365,o),
(284,330,cs),
(295,308,o),
(309,286,o),
(329,271,cs),
(341,263,o),
(357,259,o),
(372,262,cs),
(391,265,o),
(407,278,o),
(422,290,cs),
(473,334,o),
(507,396,o),
(561,436,cs),
(572,444,o),
(585,452,o),
(599,452,cs),
(646,452,o),
(668,387,o),
(673,341,cs),
(680,290,o),
(675,239,o),
(667,189,cs),
(661,150,o),
(653,112,o),
(638,76,cs),
(630,57,o),
(617,36,o),
(598,28,cs),
(581,21,o),
(560,26,o),
(544,34,cs),
(514,48,o),
(492,74,o),
(468,95,cs),
(458,103,o),
(447,111,o),
(435,111,cs),
(424,112,o),
(414,107,o),
(405,102,cs),
(389,92,o),
(375,80,o),
(361,69,cs),
(336,49,o),
(309,30,o),
(279,19,cs),
(252,9,o),
(223,4,o),
(195,4,cs),
(181,5,o),
(167,7,o),
(155,15,cs),
(135,27,o),
(122,48,o),
(111,68,cs),
(91,102,o),
(76,140,o),
(68,179,cs),
(58,226,o),
(58,275,o),
(61,323,cs),
(65,372,o),
(72,422,o),
(90,468,cs),
(93,475,o),
(101,492,o),
(108,495,cs),
(117,499,o),
(128,495,o),
(136,500,cs),
(142,505,o),
(139,515,o),
(131,517,cs),
(127,518,o),
(111,516,o),
(107,515,cs),
(96,513,o),
(87,503,o),
(82,493,cs),
(66,466,o),
(58,434,o),
(51,403,cs),
(33,330,o),
(23,253,o),
(33,179,cs),
(38,137,o),
(50,96,o),
(68,59,cs),
(83,28,o),
(103,-4,o),
(133,-21,cs),
(159,-35,o),
(191,-38,o),
(221,-35,cs)
);
}
);
width = 730;
}
);
note = u;
unicode = (117,249,250,251,252);
},
{
glyphname = v;
layers = (
{
layerId = m01;
shapes = (
{
closed = 1;
nodes = (
(375,18,o),
(386,26,o),
(397,35,cs),
(461,90,o),
(516,158,o),
(557,232,cs),
(593,294,o),
(616,365,o),
(624,437,cs),
(626,455,o),
(628,473,o),
(623,491,cs),
(618,510,o),
(607,530,o),
(591,542,cs),
(575,553,o),
(553,556,o),
(533,553,cs),
(485,544,o),
(442,517,o),
(402,490,cs),
(378,475,o),
(354,459,o),
(333,440,cs),
(325,432,o),
(316,422,o),
(316,411,cs),
(316,407,o),
(311,408,o),
(307,410,cs),
(303,413,o),
(292,429,o),
(289,434,cs),
(262,472,o),
(224,506,o),
(182,527,cs),
(164,537,o),
(143,544,o),
(123,543,cs),
(74,542,o),
(27,491,o),
(20,443,cs),
(14,408,o),
(25,371,o),
(38,338,cs),
(58,291,o),
(87,247,o),
(117,205,cs),
(145,166,o),
(173,126,o),
(205,90,cs),
(229,62,o),
(257,36,o),
(290,20,cs),
(312,10,o),
(340,3,o),
(363,12,cs)
);
},
{
closed = 1;
nodes = (
(317,60,o),
(297,75,o),
(280,89,cs),
(232,131,o),
(195,185,o),
(155,234,cs),
(120,276,o),
(84,318,o),
(63,367,cs),
(53,391,o),
(43,418,o),
(48,444,cs),
(54,482,o),
(90,520,o),
(129,519,cs),
(161,518,o),
(191,499,o),
(216,480,cs),
(234,467,o),
(250,453,o),
(263,436,cs),
(277,418,o),
(296,382,o),
(317,391,cs),
(319,392,o),
(321,394,o),
(322,396,cs),
(323,397,o),
(324,395,o),
(325,394,cs),
(334,383,o),
(349,392,o),
(359,402,cs),
(382,425,o),
(408,445,o),
(435,463,cs),
(457,478,o),
(480,492,o),
(504,504,cs),
(528,515,o),
(564,524,o),
(578,502,cs),
(583,493,o),
(587,484,o),
(587,474,cs),
(588,464,o),
(587,454,o),
(586,444,cs),
(579,378,o),
(557,312,o),
(522,256,cs),
(484,191,o),
(433,134,o),
(378,82,cs),
(370,75,o),
(350,56,o),
(339,58,cs)
);
}
);
width = 645;
}
);
note = v;
unicode = 118;
},
{
glyphname = w;
kernLeft = M;
layers = (
{
layerId = m01;
shapes = (
{
closed = 1;
nodes = (
(270,-19,o),
(288,-5,o),
(304,9,cs),
(330,33,o),
(354,61,o),
(380,85,cs),
(391,94,o),
(402,103,o),
(415,109,cs),
(427,114,o),
(437,112,o),
(448,103,cs),
(466,89,o),
(478,70,o),
(494,55,cs),
(516,34,o),
(541,16,o),
(570,8,cs),
(602,-1,o),
(640,1,o),
(672,13,cs),
(722,32,o),
(764,71,o),
(798,113,cs),
(818,137,o),
(836,163,o),
(849,191,cs),
(877,247,o),
(891,312,o),
(888,375,cs),
(886,403,o),
(882,433,o),
(868,458,cs),
(860,471,o),
(848,483,o),
(833,489,cs),
(815,495,o),
(794,493,o),
(776,488,cs),
(742,478,o),
(711,462,o),
(678,449,cs),
(676,448,o),
(669,445,o),
(667,445,cs),
(657,446,o),
(639,467,o),
(632,473,cs),
(614,491,o),
(596,510,o),
(576,528,cs),
(557,545,o),
(532,560,o),
(506,563,cs),
(475,566,o),
(440,561,o),
(413,545,cs),
(386,528,o),
(368,500,o),
(350,474,cs),
(343,465,o),
(307,408,o),
(301,399,c),
(289,408,o),
(221,466,o),
(209,475,cs),
(193,487,o),
(176,498,o),
(158,505,cs),
(136,513,o),
(111,514,o),
(89,510,cs),
(75,507,o),
(62,501,o),
(52,491,c),
(50,490,o),
(49,487,o),
(48,488,cs),
(38,495,o),
(29,482,o),
(27,471,cs),
(25,461,o),
(25,450,o),
(25,440,cs),
(26,354,o),
(40,266,o),
(69,184,cs),
(87,134,o),
(110,86,o),
(141,44,cs),
(155,25,o),
(171,8,o),
(189,-6,cs),
(206,-19,o),
(229,-27,o),
(249,-23,cs)
);
},
{
closed = 1;
nodes = (
(134,95,o),
(100,172,o),
(77,248,cs),
(60,299,o),
(52,353,o),
(48,407,cs),
(47,418,o),
(45,429,o),
(46,440,c),
(45,441,o),
(47,440,o),
(48,440,cs),
(59,440,o),
(67,452,o),
(78,455,cs),
(96,460,o),
(117,461,o),
(135,455,cs),
(151,451,o),
(166,440,o),
(179,429,cs),
(229,387,o),
(289,305,o),
(335,352,cs),
(348,366,o),
(405,469,o),
(418,483,cs),
(425,491,o),
(432,499,o),
(442,504,cs),
(460,514,o),
(482,516,o),
(502,513,cs),
(513,512,o),
(524,505,o),
(532,498,cs),
(545,487,o),
(618,419,o),
(632,408,cs),
(641,401,o),
(655,398,o),
(667,400,cs),
(679,402,o),
(726,430,o),
(737,436,cs),
(750,443,o),
(764,450,o),
(778,455,cs),
(789,459,o),
(801,463,o),
(814,463,c),
(819,462,o),
(826,460,o),
(830,456,cs),
(837,450,o),
(841,442,o),
(845,433,cs),
(856,407,o),
(856,377,o),
(855,348,cs),
(853,298,o),
(838,247,o),
(813,204,cs),
(790,164,o),
(760,126,o),
(725,95,cs),
(698,71,o),
(665,50,o),
(629,45,cs),
(606,41,o),
(580,44,o),
(559,55,cs),
(531,68,o),
(510,91,o),
(488,112,cs),
(473,126,o),
(456,140,o),
(436,143,cs),
(416,146,o),
(395,138,o),
(379,127,cs),
(341,101,o),
(312,63,o),
(279,32,cs),
(268,22,o),
(255,10,o),
(240,9,cs),
(220,8,o),
(201,23,o),
(188,37,cs)
);
}
);
width = 911;
}
);
note = w;
unicode = 119;
},
{
glyphname = x;
layers = (
{
layerId = m01;
shapes = (
{
closed = 1;
nodes = (
(640,-3,o),
(660,10,o),
(677,26,cs),
(693,41,o),
(710,63,o),
(709,85,cs),
(708,100,o),
(701,115,o),
(694,128,cs),
(683,146,o),
(669,163,o),
(655,179,cs),
(640,196,o),
(622,210,o),
(606,226,cs),
(597,236,o),
(589,249,o),
(587,263,cs),
(585,281,o),
(591,300,o),
(596,318,cs),
(605,346,o),
(616,373,o),
(624,401,cs),
(628,417,o),
(630,433,o),
(627,449,cs),
(625,459,o),
(620,469,o),
(614,478,cs),
(597,500,o),
(573,515,o),
(549,527,cs),
(528,539,o),
(504,548,o),
(480,549,cs),
(458,550,o),
(435,544,o),
(414,537,cs),
(379,525,o),
(344,511,o),
(313,491,c),
(310,490,o),
(308,492,o),
(306,493,cs),
(299,498,o),
(258,522,o),
(251,526,cs),
(224,540,o),
(196,550,o),
(168,560,cs),
(145,567,o),
(121,577,o),
(96,576,cs),
(60,575,o),
(29,535,o),
(23,499,cs),
(19,468,o),
(26,435,o),
(37,405,cs),
(48,373,o),
(63,342,o),
(78,312,cs),
(91,287,o),
(108,261,o),
(104,233,cs),
(98,192,o),
(78,153,o),
(75,111,cs),
(74,86,o),
(78,60,o),
(92,39,cs),
(102,24,o),
(118,11,o),
(136,6,cs),
(154,1,o),
(173,2,o),
(190,7,cs),
(215,13,o),
(238,25,o),
(260,38,cs),
(280,50,o),
(334,94,o),
(357,91,cs),
(375,88,o),
(390,79,o),
(406,71,cs),
(456,45,o),
(505,12,o),
(560,-4,cs),
(578,-9,o),
(599,-12,o),
(618,-8,cs)
);
},
{
closed = 1;
nodes = (
(370,122,o),
(355,125,o),
(340,123,cs),
(313,118,o),
(290,98,o),
(267,83,cs),
(246,69,o),
(223,57,o),
(200,49,cs),
(186,44,o),
(171,40,o),
(156,41,cs),
(124,45,o),
(110,81,o),
(115,113,cs),
(121,151,o),
(140,187,o),
(145,225,cs),
(148,248,o),
(145,272,o),
(136,294,cs),
(118,335,o),
(91,371,o),
(73,412,cs),
(62,438,o),
(52,469,o),
(57,497,cs),
(60,517,o),
(77,544,o),
(97,547,cs),
(127,550,o),
(221,515,o),
(248,503,cs),
(264,496,o),
(279,487,o),
(294,478,c),
(282,465,o),
(291,446,o),
(308,449,cs),
(319,452,o),
(369,476,o),
(379,481,cs),
(399,489,o),
(419,497,o),
(439,503,cs),
(453,508,o),
(468,511,o),
(482,510,cs),
(503,508,o),
(522,498,o),
(540,487,cs),
(550,481,o),
(560,475,o),
(569,467,cs),
(576,461,o),
(583,453,o),
(586,445,cs),
(593,423,o),
(562,354,o),
(555,332,cs),
(549,312,o),
(543,292,o),
(544,271,cs),
(544,254,o),
(549,235,o),
(559,220,cs),
(573,199,o),
(594,182,o),
(613,165,cs),
(629,150,o),
(643,134,o),
(655,117,cs),
(660,109,o),
(673,89,o),
(670,80,cs),
(669,77,o),
(664,70,o),
(663,69,cs),
(647,52,o),
(627,36,o),
(605,31,cs),
(560,21,o),
(427,102,o),
(384,117,cs)
);
}
);
width = 723;
}
);
note = x;
unicode = 120;
},
{
glyphname = y;
kernRight = M;
layers = (
{
layerId = m01;
shapes = (
{
closed = 1;
nodes = (
(357,-122,o),
(411,-115,o),
(462,-101,cs),
(502,-91,o),
(541,-70,o),
(568,-39,cs),
(607,6,o),
(631,66,o),
(643,124,cs),
(653,173,o),
(659,223,o),
(664,273,cs),
(671,341,o),
(670,414,o),
(647,479,cs),
(641,497,o),
(632,516,o),
(617,529,cs),
(609,537,o),
(599,542,o),
(589,543,cs),
(573,546,o),
(555,543,o),
(540,537,cs),
(493,520,o),
(451,491,o),
(410,464,cs),
(404,460,o),
(380,448,o),
(374,446,c),
(356,443,o),
(336,447,o),
(319,456,cs),
(302,465,o),
(286,478,o),
(270,490,cs),
(237,516,o),
(202,542,o),
(162,552,cs),
(117,563,o),
(73,551,o),
(40,519,c),
(36,516,o),
(22,506,o),
(21,502,c),
(15,488,o),
(25,438,o),
(28,423,cs),
(43,335,o),
(62,245,o),
(107,168,cs),
(119,149,o),
(133,128,o),
(154,120,cs),
(174,113,o),
(196,116,o),
(217,120,cs),
(240,125,o),
(263,132,o),
(287,136,cs),
(301,138,o),
(318,136,o),
(331,128,c),
(318,114,o),
(240,53,o),
(226,41,cs),
(205,24,o),
(183,6,o),
(174,-19,cs),
(160,-57,o),
(187,-96,o),
(225,-111,cs),
(249,-120,o),
(277,-123,o),
(304,-122,cs)
);
},
{
closed = 1;
nodes = (
(225,-68,o),
(206,-53,o),
(209,-36,cs),
(215,-2,o),
(349,87,o),
(364,118,cs),
(369,129,o),
(367,139,o),
(359,148,cs),
(343,164,o),
(318,173,o),
(295,173,cs),
(262,173,o),
(230,161,o),
(197,156,cs),
(185,154,o),
(172,153,o),
(162,160,cs),
(154,166,o),
(135,195,o),
(130,203,cs),
(88,280,o),
(66,366,o),
(50,452,cs),
(49,456,o),
(46,465,o),
(48,469,cs),
(50,472,o),
(50,476,o),
(52,480,cs),
(62,497,o),
(100,510,o),
(120,510,cs),
(134,511,o),
(149,505,o),
(161,498,cs),
(197,477,o),
(229,448,o),
(264,425,cs),
(289,408,o),
(320,395,o),
(350,397,cs),
(361,398,o),
(373,399,o),
(383,403,cs),
(396,410,o),
(410,416,o),
(421,426,cs),
(434,436,o),
(504,484,o),
(519,492,cs),
(532,500,o),
(545,507,o),
(560,511,cs),
(570,515,o),
(582,517,o),
(591,513,cs),
(619,503,o),
(629,444,o),
(632,415,cs),
(638,362,o),
(630,308,o),
(622,256,cs),
(616,220,o),
(610,185,o),
(602,150,cs),
(590,98,o),
(570,46,o),
(536,4,cs),
(522,-14,o),
(503,-29,o),
(482,-38,cs),
(433,-57,o),
(381,-66,o),
(329,-72,cs),
(300,-75,o),
(270,-80,o),
(242,-73,cs)
);
}
);
width = 699;
}
);
note = y;
unicode = (121,253,255);
},
{
glyphname = z;
lastChange = "2023-03-06 21:06:57 +0000";
layers = (
{
layerId = m01;
shapes = (
{
closed = 1;
nodes = (
(505,8,o),
(554,16,o),
(600,30,cs),
(636,40,o),
(671,55,o),
(701,77,cs),
(725,94,o),
(765,135,o),
(759,165,cs),
(757,172,o),
(753,179,o),
(748,184,cs),
(719,215,o),
(582,248,o),
(541,258,cs),
(527,262,o),
(512,264,o),
(498,268,c),
(538,327,o),
(598,373,o),
(630,438,cs),
(640,456,o),
(645,479,o),
(640,500,cs),
(638,511,o),
(632,523,o),
(624,531,cs),
(582,570,o),
(428,572,o),
(370,569,cs),
(290,565,o),
(209,552,o),
(132,528,cs),
(118,524,o),
(75,512,o),
(66,499,cs),
(65,497,l),
(48,496,o),
(35,474,o),
(42,458,cs),
(48,442,o),
(63,432,o),
(77,423,cs),
(111,400,o),
(148,381,o),
(180,356,cs),
(187,350,o),
(194,345,o),
(200,338,c),
(184,323,o),
(167,309,o),
(151,293,cs),
(121,263,o),
(92,229,o),
(68,194,cs),
(44,159,o),
(23,118,o),
(22,76,cs),
(22,60,o),
(25,42,o),
(33,28,cs),
(39,18,o),
(49,9,o),
(60,5,cs),
(84,-5,o),
(111,-6,o),
(137,-8,cs),
(243,-15,o),
(351,-13,o),
(457,2,cs)
);
},
{
closed = 1;
nodes = (
(154,35,o),
(94,42,o),
(81,48,cs),
(77,50,o),
(75,55,o),
(74,60,cs),
(72,71,o),
(75,83,o),
(78,93,cs),
(93,140,o),
(120,183,o),
(152,220,cs),
(175,247,o),
(200,271,o),
(224,296,cs),
(236,308,o),
(249,322,o),
(251,339,cs),
(252,357,o),
(220,385,o),
(206,397,cs),
(171,427,o),
(130,449,o),
(94,478,c),
(97,482,o),
(97,487,o),
(94,491,c),
(118,499,o),
(144,505,o),
(169,510,cs),
(230,521,o),
(293,529,o),
(355,533,cs),
(412,537,o),
(470,538,o),
(527,531,cs),
(548,528,o),
(597,522,o),
(607,503,cs),
(617,487,o),
(609,463,o),
(599,447,cs),
(565,388,o),
(505,348,o),
(465,293,cs),
(457,283,o),
(451,272,o),
(449,261,cs),
(446,248,o),
(454,233,o),
(464,226,cs),
(477,217,o),
(492,213,o),
(506,207,cs),
(514,203,o),
(557,191,o),
(565,188,cs),
(583,183,o),
(680,152,o),
(697,146,cs),
(699,145,o),
(698,144,o),
(697,142,cs),
(680,117,o),
(654,100,o),
(627,87,cs),
(557,55,o),
(478,44,o),
(401,38,cs),
(324,31,o),
(245,27,o),
(168,34,cs)
);
}
);
width = 771;
}
);
note = z;
unicode = 122;
},
{
glyphname = asciitilde;
layers = (
{
layerId = m01;
shapes = (
{
closed = 1;
nodes = (
(575,218,o),
(607,227,o),
(637,238,cs),
(673,252,o),
(709,269,o),
(738,294,cs),
(781,330,o),
(809,384,o),
(824,438,cs),
(834,472,o),
(851,545,o),
(825,569,cs),
(819,575,o),
(811,578,o),
(803,579,cs),
(789,580,o),
(775,576,o),
(762,572,cs),
(687,551,o),
(619,510,o),
(546,480,cs),
(536,476,o),
(524,470,o),
(512,472,cs),
(500,475,o),
(490,483,o),
(479,491,cs),
(461,505,o),
(441,519,o),
(420,529,cs),
(394,542,o),
(364,548,o),
(335,548,cs),
(276,548,o),
(215,525,o),
(165,492,cs),
(129,468,o),
(96,438,o),
(67,406,cs),
(51,389,o),
(34,370,o),
(28,347,cs),
(25,335,o),
(27,314,o),
(37,306,cs),
(45,301,o),
(55,309,o),
(52,318,cs),
(50,322,o),
(47,325,o),
(46,329,cs),
(45,333,o),
(46,336,o),
(46,340,c),
(47,342,o),
(50,336,o),
(52,335,c),
(57,330,o),
(57,321,o),
(58,314,cs),
(61,296,o),
(73,278,o),
(89,269,cs),
(113,255,o),
(146,250,o),
(173,259,cs),
(193,266,o),
(266,303,o),
(287,301,cs),
(299,301,o),
(332,272,o),
(342,265,cs),
(399,226,o),
(474,205,o),
(543,214,cs)
);
},
{
closed = 1;
nodes = (
(444,256,o),
(394,274,o),
(354,303,cs),
(338,315,o),
(323,331,o),
(304,336,cs),
(285,342,o),
(263,335,o),
(244,328,cs),
(230,323,o),
(164,296,o),
(150,294,cs),
(136,291,o),
(107,300,o),
(97,311,cs),
(86,322,o),
(84,340,o),
(73,351,cs),
(68,357,o),
(58,360,o),
(51,356,c),
(57,365,o),
(64,374,o),
(71,382,cs),
(115,433,o),
(168,478,o),
(230,504,cs),
(265,519,o),
(304,531,o),
(342,529,cs),
(369,528,o),
(396,521,o),
(419,507,cs),
(443,493,o),
(464,474,o),
(487,458,cs),
(496,452,o),
(506,448,o),
(516,448,cs),
(533,447,o),
(548,454,o),
(564,460,cs),
(625,485,o),
(685,513,o),
(748,535,cs),
(759,539,o),
(792,552,o),
(803,547,cs),
(806,546,o),
(806,540,o),
(806,537,cs),
(807,517,o),
(802,497,o),
(797,478,cs),
(790,451,o),
(781,424,o),
(769,399,cs),
(756,368,o),
(737,338,o),
(711,317,cs),
(689,299,o),
(663,286,o),
(636,275,cs),
(591,258,o),
(541,248,o),
(493,252,cs)
);
}
);
width = 870;
}
);
note = asciitilde;
unicode = 126;
},
{
glyphname = multiply;
layers = (
{
layerId = m01;
shapes = (
{
closed = 1;
nodes = (
(299,59,o),
(351,106,o),
(413,137,cs),
(431,146,o),
(451,154,o),
(472,153,cs),
(498,153,o),
(523,144,o),
(546,133,cs),
(592,113,o),
(636,90,o),
(682,70,cs),
(711,57,o),
(741,46,o),
(772,43,cs),
(832,39,o),
(877,93,o),
(875,153,cs),
(875,183,o),
(862,212,o),
(845,237,cs),
(822,273,o),
(787,302,o),
(769,342,cs),
(763,356,o),
(760,371,o),
(760,387,cs),
(760,444,o),
(777,501,o),
(769,558,cs),
(767,578,o),
(759,599,o),
(747,615,cs),
(734,631,o),
(717,644,o),
(698,650,cs),
(677,658,o),
(653,658,o),
(631,654,cs),
(604,649,o),
(579,639,o),
(555,627,cs),
(497,599,o),
(441,565,o),
(385,532,c),
(384,531,o),
(383,532,o),
(381,533,c),
(375,539,o),
(348,577,o),
(343,584,cs),
(318,621,o),
(290,661,o),
(250,681,cs),
(225,694,o),
(194,695,o),
(166,691,cs),
(138,687,o),
(110,678,o),
(85,664,cs),
(69,655,o),
(54,639,o),
(47,621,cs),
(37,593,o),
(41,561,o),
(49,533,cs),
(60,494,o),
(78,456,o),
(97,420,cs),
(107,400,o),
(121,381,o),
(127,360,cs),
(132,341,o),
(131,320,o),
(127,300,cs),
(115,232,o),
(88,167,o),
(79,98,cs),
(76,77,o),
(74,53,o),
(84,33,cs),
(91,18,o),
(108,7,o),
(125,5,cs),
(163,1,o),
(202,14,o),
(237,30,cs)
);
},
{
closed = 1;
nodes = (
(99,47,o),
(103,83,o),
(106,102,cs),
(114,157,o),
(133,208,o),
(148,261,cs),
(157,293,o),
(168,328,o),
(163,361,cs),
(157,394,o),
(137,422,o),
(120,451,cs),
(101,485,o),
(84,521,o),
(72,559,cs),
(68,571,o),
(66,585,o),
(67,599,cs),
(68,612,o),
(74,625,o),
(83,634,cs),
(109,661,o),
(185,679,o),
(222,671,cs),
(248,665,o),
(269,646,o),
(287,627,cs),
(317,594,o),
(337,554,o),
(367,520,c),
(362,517,o),
(357,511,o),
(357,504,cs),
(357,494,o),
(368,487,o),
(378,490,cs),
(389,492,o),
(399,496,o),
(410,501,cs),
(452,520,o),
(490,546,o),
(530,569,cs),
(560,587,o),
(590,606,o),
(624,617,cs),
(639,622,o),
(655,625,o),
(671,623,cs),
(697,619,o),
(714,607,o),
(724,583,cs),
(736,555,o),
(734,522,o),
(730,492,cs),
(724,446,o),
(713,399,o),
(720,353,cs),
(723,338,o),
(729,323,o),
(736,309,cs),
(756,269,o),
(790,239,o),
(813,201,cs),
(821,189,o),
(827,175,o),
(828,160,cs),
(831,126,o),
(811,91,o),
(777,92,cs),
(761,92,o),
(745,97,o),
(730,102,cs),
(686,117,o),
(645,139,o),
(602,156,cs),
(562,172,o),
(521,188,o),
(478,187,cs),
(446,186,o),
(413,176,o),
(384,161,cs),
(335,136,o),
(292,101,o),
(246,73,cs),
(216,56,o),
(184,39,o),
(150,33,cs),
(139,32,o),
(125,30,o),
(115,36,cs)
);
}
);
width = 906;
}
);
note = multiply;
unicode = 215;
},
{
glyphname = divide;
lastChange = "2024-06-01 14:05:47 +0000";
layers = (
{
layerId = m01;
shapes = (
{
closed = 1;
nodes = (
(395,234,o),
(528,250,o),
(651,294,cs),
(673,302,o),
(696,313,o),
(712,331,cs),
(724,343,o),
(732,360,o),
(735,376,cs),
(742,414,o),
(722,484,o),
(690,506,cs),
(685,509,o),
(680,512,o),
(674,512,cs),
(663,512,o),
(657,502,o),
(659,491,c),
(637,497,o),
(511,528,o),
(489,532,cs),
(477,534,o),
(464,535,o),
(451,535,cs),
(387,535,o),
(323,523,o),
(259,515,cs),
(149,503,ls),
(120,499,o),
(90,495,o),
(65,481,cs),
(55,475,o),
(46,466,o),
(41,456,cs),
(33,441,o),
(31,423,o),
(31,406,cs),
(31,389,o),
(34,311,o),
(39,295,cs),
(43,280,o),
(52,266,o),
(64,257,cs),
(83,245,o),
(106,241,o),
(129,239,cs),
(174,233,o),
(219,233,o),
(265,233,cs)
);
},
{
closed = 1;
nodes = (
(366,-57,o),
(383,-56,o),
(398,-51,cs),
(428,-39,o),
(457,26,o),
(465,58,cs),
(469,72,o),
(469,89,o),
(464,103,cs),
(459,117,o),
(447,129,o),
(434,137,cs),
(420,146,o),
(403,152,o),
(387,158,cs),
(383,160,o),
(383,165,o),
(380,167,cs),
(376,170,o),
(372,169,o),
(368,169,cs),
(346,168,o),
(322,184,o),
(301,176,cs),
(291,171,o),
(290,158,o),
(298,150,c),
(276,131,o),
(254,105,o),
(250,76,cs),
(249,63,o),
(250,49,o),
(254,37,cs),
(268,-5,o),
(308,-42,o),
(350,-53,cs)
);
},
{
closed = 1;
nodes = (
(382,-30,o),
(353,-22,o),
(338,-13,cs),
(317,1,o),
(296,20,o),
(286,44,cs),
(280,57,o),
(279,74,o),
(285,88,cs),
(292,108,o),
(307,126,o),
(323,140,cs),
(324,141,o),
(326,140,o),
(328,140,c),
(353,133,o),
(422,117,o),
(435,95,cs),
(438,89,o),
(439,81,o),
(438,73,cs),
(434,51,o),
(414,-7,o),
(395,-20,cs)
);
},
{
closed = 1;
nodes = (
(144,284,o),
(126,285,o),
(108,288,cs),
(98,290,o),
(85,293,o),
(80,302,cs),
(75,313,o),
(68,364,o),
(67,376,cs),
(66,391,o),
(65,433,o),
(73,444,cs),
(80,453,o),
(92,456,o),
(102,459,cs),
(133,468,o),
(304,497,o),
(336,502,cs),
(367,506,o),
(398,510,o),
(430,512,cs),
(448,513,o),
(467,513,o),
(485,510,cs),
(545,499,o),
(604,483,o),
(663,469,cs),
(667,468,o),
(674,469,o),
(674,467,c),
(681,445,o),
(688,422,o),
(687,398,cs),
(686,385,o),
(679,372,o),
(668,364,cs),
(656,354,o),
(641,348,o),
(626,342,cs),
(590,328,o),
(552,319,o),
(514,312,cs),
(449,298,o),
(382,291,o),
(316,287,cs),
(265,284,o),
(213,282,o),
(162,283,cs)
);
},
{
closed = 1;
nodes = (
(343,555,o),
(412,581,o),
(437,630,cs),
(458,671,o),
(461,738,o),
(424,766,cs),
(404,781,o),
(376,787,o),
(351,784,cs),
(303,778,o),
(258,738,o),
(248,692,cs),
(246,685,o),
(247,676,o),
(245,669,c),
(243,649,o),
(244,627,o),
(253,609,cs),
(261,592,o),
(274,580,o),
(291,574,cs)
);
},
{
closed = 1;
nodes = (
(310,602,o),
(296,607,o),
(288,616,cs),
(280,624,o),
(276,636,o),
(274,647,c),
(279,649,o),
(283,651,o),
(285,655,c),
(295,669,o),
(299,685,o),
(305,701,cs),
(318,736,o),
(357,767,o),
(393,758,cs),
(405,754,o),
(417,745,o),
(422,734,cs),
(437,701,o),
(424,647,o),
(396,624,cs),
(376,608,o),
(348,599,o),
(322,601,cs)
);
}
);
width = 763;
}
);
note = divide;
unicode = 247;
},
